<mxfile host="app.diagrams.net" modified="2024-06-24T00:28:45.711Z" agent="Mozilla/5.0 (Windows NT 10.0; Win64; x64) AppleWebKit/537.36 (KHTML, like Gecko) Chrome/126.0.0.0 Safari/537.36" etag="PFrcOKE_ruApJnh8c1U8" version="24.6.1" type="device">
  <diagram name="Página-1" id="dLtPcpsSmYYfWdFWy5hz">
    <mxGraphModel dx="11281" dy="5929" grid="0" gridSize="10" guides="1" tooltips="1" connect="1" arrows="1" fold="1" page="1" pageScale="1" pageWidth="827" pageHeight="1169" math="0" shadow="0">
      <root>
        <mxCell id="0" />
        <mxCell id="1" parent="0" />
        <mxCell id="Y9CdEm4xqu9V9nbw5cVp-127" style="edgeStyle=orthogonalEdgeStyle;rounded=0;orthogonalLoop=1;jettySize=auto;html=1;" edge="1" parent="1" source="Y9CdEm4xqu9V9nbw5cVp-2" target="Y9CdEm4xqu9V9nbw5cVp-3">
          <mxGeometry relative="1" as="geometry" />
        </mxCell>
        <mxCell id="Y9CdEm4xqu9V9nbw5cVp-2" value="inicio" style="ellipse;whiteSpace=wrap;html=1;" vertex="1" parent="1">
          <mxGeometry x="-126" y="60.5" width="120" height="80" as="geometry" />
        </mxCell>
        <mxCell id="Y9CdEm4xqu9V9nbw5cVp-6" value="" style="edgeStyle=orthogonalEdgeStyle;rounded=0;orthogonalLoop=1;jettySize=auto;html=1;" edge="1" parent="1" source="Y9CdEm4xqu9V9nbw5cVp-3" target="Y9CdEm4xqu9V9nbw5cVp-5">
          <mxGeometry relative="1" as="geometry" />
        </mxCell>
        <mxCell id="Y9CdEm4xqu9V9nbw5cVp-3" value="corte de tecidos" style="whiteSpace=wrap;html=1;" vertex="1" parent="1">
          <mxGeometry x="-126" y="230.5" width="120" height="60" as="geometry" />
        </mxCell>
        <mxCell id="Y9CdEm4xqu9V9nbw5cVp-8" value="" style="edgeStyle=orthogonalEdgeStyle;rounded=0;orthogonalLoop=1;jettySize=auto;html=1;" edge="1" parent="1" source="Y9CdEm4xqu9V9nbw5cVp-5" target="Y9CdEm4xqu9V9nbw5cVp-7">
          <mxGeometry relative="1" as="geometry" />
        </mxCell>
        <mxCell id="Y9CdEm4xqu9V9nbw5cVp-5" value="escolher modelo" style="whiteSpace=wrap;html=1;" vertex="1" parent="1">
          <mxGeometry x="-126" y="370.5" width="120" height="60" as="geometry" />
        </mxCell>
        <mxCell id="Y9CdEm4xqu9V9nbw5cVp-10" value="" style="edgeStyle=orthogonalEdgeStyle;rounded=0;orthogonalLoop=1;jettySize=auto;html=1;" edge="1" parent="1" source="Y9CdEm4xqu9V9nbw5cVp-7" target="Y9CdEm4xqu9V9nbw5cVp-9">
          <mxGeometry relative="1" as="geometry" />
        </mxCell>
        <mxCell id="Y9CdEm4xqu9V9nbw5cVp-7" value="costuras de bolsos" style="whiteSpace=wrap;html=1;" vertex="1" parent="1">
          <mxGeometry x="-126" y="510.5" width="120" height="60" as="geometry" />
        </mxCell>
        <mxCell id="Y9CdEm4xqu9V9nbw5cVp-12" value="" style="edgeStyle=orthogonalEdgeStyle;rounded=0;orthogonalLoop=1;jettySize=auto;html=1;" edge="1" parent="1" source="Y9CdEm4xqu9V9nbw5cVp-9" target="Y9CdEm4xqu9V9nbw5cVp-11">
          <mxGeometry relative="1" as="geometry" />
        </mxCell>
        <mxCell id="Y9CdEm4xqu9V9nbw5cVp-9" value="costura de bolsos frontal e traseiras" style="whiteSpace=wrap;html=1;" vertex="1" parent="1">
          <mxGeometry x="-126" y="650.5" width="120" height="60" as="geometry" />
        </mxCell>
        <mxCell id="Y9CdEm4xqu9V9nbw5cVp-14" value="" style="edgeStyle=orthogonalEdgeStyle;rounded=0;orthogonalLoop=1;jettySize=auto;html=1;" edge="1" parent="1" source="Y9CdEm4xqu9V9nbw5cVp-11" target="Y9CdEm4xqu9V9nbw5cVp-13">
          <mxGeometry relative="1" as="geometry" />
        </mxCell>
        <mxCell id="Y9CdEm4xqu9V9nbw5cVp-11" value="costura de passador" style="whiteSpace=wrap;html=1;" vertex="1" parent="1">
          <mxGeometry x="-126" y="790.5" width="120" height="60" as="geometry" />
        </mxCell>
        <mxCell id="Y9CdEm4xqu9V9nbw5cVp-18" value="" style="edgeStyle=orthogonalEdgeStyle;rounded=0;orthogonalLoop=1;jettySize=auto;html=1;" edge="1" parent="1" source="Y9CdEm4xqu9V9nbw5cVp-13" target="Y9CdEm4xqu9V9nbw5cVp-17">
          <mxGeometry relative="1" as="geometry" />
        </mxCell>
        <mxCell id="Y9CdEm4xqu9V9nbw5cVp-13" value="costura das bocas" style="whiteSpace=wrap;html=1;" vertex="1" parent="1">
          <mxGeometry x="-126" y="930.5" width="120" height="60" as="geometry" />
        </mxCell>
        <mxCell id="Y9CdEm4xqu9V9nbw5cVp-21" style="edgeStyle=orthogonalEdgeStyle;rounded=0;orthogonalLoop=1;jettySize=auto;html=1;" edge="1" parent="1" source="Y9CdEm4xqu9V9nbw5cVp-17" target="Y9CdEm4xqu9V9nbw5cVp-19">
          <mxGeometry relative="1" as="geometry" />
        </mxCell>
        <mxCell id="Y9CdEm4xqu9V9nbw5cVp-25" style="edgeStyle=orthogonalEdgeStyle;rounded=0;orthogonalLoop=1;jettySize=auto;html=1;" edge="1" parent="1" source="Y9CdEm4xqu9V9nbw5cVp-17">
          <mxGeometry relative="1" as="geometry">
            <mxPoint x="70" y="1120.5" as="targetPoint" />
          </mxGeometry>
        </mxCell>
        <mxCell id="Y9CdEm4xqu9V9nbw5cVp-17" value="peças dentro da classificação?" style="rhombus;whiteSpace=wrap;html=1;" vertex="1" parent="1">
          <mxGeometry x="-160.5" y="1060.5" width="189" height="120" as="geometry" />
        </mxCell>
        <mxCell id="Y9CdEm4xqu9V9nbw5cVp-22" style="edgeStyle=orthogonalEdgeStyle;rounded=0;orthogonalLoop=1;jettySize=auto;html=1;" edge="1" parent="1" source="Y9CdEm4xqu9V9nbw5cVp-19">
          <mxGeometry relative="1" as="geometry">
            <mxPoint x="-290" y="1120.5" as="targetPoint" />
          </mxGeometry>
        </mxCell>
        <mxCell id="Y9CdEm4xqu9V9nbw5cVp-19" value="se não" style="text;html=1;align=center;verticalAlign=middle;whiteSpace=wrap;rounded=0;" vertex="1" parent="1">
          <mxGeometry x="-260" y="1105.5" width="60" height="30" as="geometry" />
        </mxCell>
        <mxCell id="Y9CdEm4xqu9V9nbw5cVp-24" style="edgeStyle=orthogonalEdgeStyle;rounded=0;orthogonalLoop=1;jettySize=auto;html=1;entryX=0;entryY=0.5;entryDx=0;entryDy=0;" edge="1" parent="1" source="Y9CdEm4xqu9V9nbw5cVp-23" target="Y9CdEm4xqu9V9nbw5cVp-3">
          <mxGeometry relative="1" as="geometry">
            <Array as="points">
              <mxPoint x="-390" y="260.5" />
            </Array>
          </mxGeometry>
        </mxCell>
        <mxCell id="Y9CdEm4xqu9V9nbw5cVp-23" value="desmanchar e refazer" style="rounded=0;whiteSpace=wrap;html=1;" vertex="1" parent="1">
          <mxGeometry x="-450" y="1090.5" width="120" height="60" as="geometry" />
        </mxCell>
        <mxCell id="Y9CdEm4xqu9V9nbw5cVp-27" style="edgeStyle=orthogonalEdgeStyle;rounded=0;orthogonalLoop=1;jettySize=auto;html=1;" edge="1" parent="1" source="Y9CdEm4xqu9V9nbw5cVp-26">
          <mxGeometry relative="1" as="geometry">
            <mxPoint x="190" y="1120.5" as="targetPoint" />
          </mxGeometry>
        </mxCell>
        <mxCell id="Y9CdEm4xqu9V9nbw5cVp-26" value="sim" style="text;html=1;align=center;verticalAlign=middle;whiteSpace=wrap;rounded=0;" vertex="1" parent="1">
          <mxGeometry x="80" y="1105.5" width="60" height="30" as="geometry" />
        </mxCell>
        <mxCell id="Y9CdEm4xqu9V9nbw5cVp-30" value="" style="edgeStyle=orthogonalEdgeStyle;rounded=0;orthogonalLoop=1;jettySize=auto;html=1;" edge="1" parent="1" source="Y9CdEm4xqu9V9nbw5cVp-28" target="Y9CdEm4xqu9V9nbw5cVp-29">
          <mxGeometry relative="1" as="geometry" />
        </mxCell>
        <mxCell id="Y9CdEm4xqu9V9nbw5cVp-28" value="junção de todas as partes" style="rounded=0;whiteSpace=wrap;html=1;" vertex="1" parent="1">
          <mxGeometry x="210" y="1089.5" width="160" height="60" as="geometry" />
        </mxCell>
        <mxCell id="Y9CdEm4xqu9V9nbw5cVp-31" style="edgeStyle=orthogonalEdgeStyle;rounded=0;orthogonalLoop=1;jettySize=auto;html=1;" edge="1" parent="1" source="Y9CdEm4xqu9V9nbw5cVp-29">
          <mxGeometry relative="1" as="geometry">
            <mxPoint x="150" y="1259.5" as="targetPoint" />
          </mxGeometry>
        </mxCell>
        <mxCell id="Y9CdEm4xqu9V9nbw5cVp-29" value="etiqueta" style="whiteSpace=wrap;html=1;rounded=0;" vertex="1" parent="1">
          <mxGeometry x="230" y="1229.5" width="120" height="60" as="geometry" />
        </mxCell>
        <mxCell id="Y9CdEm4xqu9V9nbw5cVp-34" value="" style="edgeStyle=orthogonalEdgeStyle;rounded=0;orthogonalLoop=1;jettySize=auto;html=1;" edge="1" parent="1" source="Y9CdEm4xqu9V9nbw5cVp-32" target="Y9CdEm4xqu9V9nbw5cVp-33">
          <mxGeometry relative="1" as="geometry" />
        </mxCell>
        <mxCell id="Y9CdEm4xqu9V9nbw5cVp-32" value="passar" style="rounded=1;whiteSpace=wrap;html=1;" vertex="1" parent="1">
          <mxGeometry x="28.5" y="1229.5" width="120" height="60" as="geometry" />
        </mxCell>
        <mxCell id="Y9CdEm4xqu9V9nbw5cVp-36" value="" style="edgeStyle=orthogonalEdgeStyle;rounded=0;orthogonalLoop=1;jettySize=auto;html=1;" edge="1" parent="1" source="Y9CdEm4xqu9V9nbw5cVp-33" target="Y9CdEm4xqu9V9nbw5cVp-35">
          <mxGeometry relative="1" as="geometry" />
        </mxCell>
        <mxCell id="Y9CdEm4xqu9V9nbw5cVp-33" value="dobrar e embalar" style="rounded=1;whiteSpace=wrap;html=1;" vertex="1" parent="1">
          <mxGeometry x="-171.5" y="1229.5" width="120" height="60" as="geometry" />
        </mxCell>
        <mxCell id="Y9CdEm4xqu9V9nbw5cVp-38" value="" style="edgeStyle=orthogonalEdgeStyle;rounded=0;orthogonalLoop=1;jettySize=auto;html=1;" edge="1" parent="1" source="Y9CdEm4xqu9V9nbw5cVp-35" target="Y9CdEm4xqu9V9nbw5cVp-37">
          <mxGeometry relative="1" as="geometry" />
        </mxCell>
        <mxCell id="Y9CdEm4xqu9V9nbw5cVp-35" value="estocar" style="whiteSpace=wrap;html=1;rounded=1;" vertex="1" parent="1">
          <mxGeometry x="-371.5" y="1229.5" width="120" height="60" as="geometry" />
        </mxCell>
        <mxCell id="Y9CdEm4xqu9V9nbw5cVp-40" value="" style="edgeStyle=orthogonalEdgeStyle;rounded=0;orthogonalLoop=1;jettySize=auto;html=1;" edge="1" parent="1" source="Y9CdEm4xqu9V9nbw5cVp-37" target="Y9CdEm4xqu9V9nbw5cVp-39">
          <mxGeometry relative="1" as="geometry" />
        </mxCell>
        <mxCell id="Y9CdEm4xqu9V9nbw5cVp-37" value="expedição" style="whiteSpace=wrap;html=1;rounded=1;" vertex="1" parent="1">
          <mxGeometry x="-371.5" y="1369.5" width="120" height="60" as="geometry" />
        </mxCell>
        <mxCell id="Y9CdEm4xqu9V9nbw5cVp-39" value="fim" style="ellipse;whiteSpace=wrap;html=1;rounded=1;" vertex="1" parent="1">
          <mxGeometry x="-151.5" y="1359.5" width="80" height="80" as="geometry" />
        </mxCell>
        <mxCell id="Y9CdEm4xqu9V9nbw5cVp-43" value="" style="edgeStyle=orthogonalEdgeStyle;rounded=0;orthogonalLoop=1;jettySize=auto;html=1;" edge="1" parent="1" source="Y9CdEm4xqu9V9nbw5cVp-41" target="Y9CdEm4xqu9V9nbw5cVp-42">
          <mxGeometry relative="1" as="geometry" />
        </mxCell>
        <mxCell id="Y9CdEm4xqu9V9nbw5cVp-41" value="inicio" style="ellipse;whiteSpace=wrap;html=1;" vertex="1" parent="1">
          <mxGeometry x="1150" y="80" width="120" height="80" as="geometry" />
        </mxCell>
        <mxCell id="Y9CdEm4xqu9V9nbw5cVp-45" value="" style="edgeStyle=orthogonalEdgeStyle;rounded=0;orthogonalLoop=1;jettySize=auto;html=1;" edge="1" parent="1" source="Y9CdEm4xqu9V9nbw5cVp-42">
          <mxGeometry relative="1" as="geometry">
            <mxPoint x="1210" y="420" as="targetPoint" />
          </mxGeometry>
        </mxCell>
        <mxCell id="Y9CdEm4xqu9V9nbw5cVp-42" value="gerente pede os produtos" style="whiteSpace=wrap;html=1;" vertex="1" parent="1">
          <mxGeometry x="1150" y="250" width="120" height="60" as="geometry" />
        </mxCell>
        <mxCell id="Y9CdEm4xqu9V9nbw5cVp-48" style="edgeStyle=orthogonalEdgeStyle;rounded=0;orthogonalLoop=1;jettySize=auto;html=1;" edge="1" parent="1" source="Y9CdEm4xqu9V9nbw5cVp-46" target="Y9CdEm4xqu9V9nbw5cVp-47">
          <mxGeometry relative="1" as="geometry" />
        </mxCell>
        <mxCell id="Y9CdEm4xqu9V9nbw5cVp-65" value="" style="edgeStyle=orthogonalEdgeStyle;rounded=0;orthogonalLoop=1;jettySize=auto;html=1;" edge="1" parent="1" source="Y9CdEm4xqu9V9nbw5cVp-46" target="Y9CdEm4xqu9V9nbw5cVp-64">
          <mxGeometry relative="1" as="geometry" />
        </mxCell>
        <mxCell id="Y9CdEm4xqu9V9nbw5cVp-46" value="o produto entrou?" style="rhombus;whiteSpace=wrap;html=1;" vertex="1" parent="1">
          <mxGeometry x="1105" y="420" width="210" height="120" as="geometry" />
        </mxCell>
        <mxCell id="Y9CdEm4xqu9V9nbw5cVp-49" style="edgeStyle=orthogonalEdgeStyle;rounded=0;orthogonalLoop=1;jettySize=auto;html=1;" edge="1" parent="1" source="Y9CdEm4xqu9V9nbw5cVp-47" target="Y9CdEm4xqu9V9nbw5cVp-50">
          <mxGeometry relative="1" as="geometry">
            <mxPoint x="1210" y="750" as="targetPoint" />
          </mxGeometry>
        </mxCell>
        <mxCell id="Y9CdEm4xqu9V9nbw5cVp-47" value="não" style="text;html=1;align=center;verticalAlign=middle;whiteSpace=wrap;rounded=0;" vertex="1" parent="1">
          <mxGeometry x="1180" y="640" width="60" height="30" as="geometry" />
        </mxCell>
        <mxCell id="Y9CdEm4xqu9V9nbw5cVp-53" value="" style="edgeStyle=orthogonalEdgeStyle;rounded=0;orthogonalLoop=1;jettySize=auto;html=1;" edge="1" parent="1" source="Y9CdEm4xqu9V9nbw5cVp-50" target="Y9CdEm4xqu9V9nbw5cVp-52">
          <mxGeometry relative="1" as="geometry" />
        </mxCell>
        <mxCell id="Y9CdEm4xqu9V9nbw5cVp-50" value="saída de produtos" style="rounded=0;whiteSpace=wrap;html=1;" vertex="1" parent="1">
          <mxGeometry x="1150" y="720" width="120" height="60" as="geometry" />
        </mxCell>
        <mxCell id="Y9CdEm4xqu9V9nbw5cVp-55" style="edgeStyle=orthogonalEdgeStyle;rounded=0;orthogonalLoop=1;jettySize=auto;html=1;" edge="1" parent="1" source="Y9CdEm4xqu9V9nbw5cVp-52" target="Y9CdEm4xqu9V9nbw5cVp-54">
          <mxGeometry relative="1" as="geometry" />
        </mxCell>
        <mxCell id="Y9CdEm4xqu9V9nbw5cVp-59" value="" style="edgeStyle=orthogonalEdgeStyle;rounded=0;orthogonalLoop=1;jettySize=auto;html=1;" edge="1" parent="1" source="Y9CdEm4xqu9V9nbw5cVp-52" target="Y9CdEm4xqu9V9nbw5cVp-58">
          <mxGeometry relative="1" as="geometry" />
        </mxCell>
        <mxCell id="Y9CdEm4xqu9V9nbw5cVp-52" value="dados do produto valido?" style="rhombus;whiteSpace=wrap;html=1;rounded=0;" vertex="1" parent="1">
          <mxGeometry x="1120" y="850" width="180" height="110" as="geometry" />
        </mxCell>
        <mxCell id="Y9CdEm4xqu9V9nbw5cVp-57" value="" style="edgeStyle=orthogonalEdgeStyle;rounded=0;orthogonalLoop=1;jettySize=auto;html=1;" edge="1" parent="1" source="Y9CdEm4xqu9V9nbw5cVp-54" target="Y9CdEm4xqu9V9nbw5cVp-56">
          <mxGeometry relative="1" as="geometry" />
        </mxCell>
        <mxCell id="Y9CdEm4xqu9V9nbw5cVp-54" value="sim" style="text;html=1;align=center;verticalAlign=middle;whiteSpace=wrap;rounded=0;" vertex="1" parent="1">
          <mxGeometry x="1180" y="1030" width="60" height="30" as="geometry" />
        </mxCell>
        <mxCell id="Y9CdEm4xqu9V9nbw5cVp-56" value="altera o estoque" style="whiteSpace=wrap;html=1;" vertex="1" parent="1">
          <mxGeometry x="1150" y="1125" width="120" height="60" as="geometry" />
        </mxCell>
        <mxCell id="Y9CdEm4xqu9V9nbw5cVp-61" value="" style="edgeStyle=orthogonalEdgeStyle;rounded=0;orthogonalLoop=1;jettySize=auto;html=1;" edge="1" parent="1" source="Y9CdEm4xqu9V9nbw5cVp-58" target="Y9CdEm4xqu9V9nbw5cVp-60">
          <mxGeometry relative="1" as="geometry" />
        </mxCell>
        <mxCell id="Y9CdEm4xqu9V9nbw5cVp-58" value="não" style="text;html=1;align=center;verticalAlign=middle;whiteSpace=wrap;rounded=0;" vertex="1" parent="1">
          <mxGeometry x="1350" y="890" width="60" height="30" as="geometry" />
        </mxCell>
        <mxCell id="Y9CdEm4xqu9V9nbw5cVp-63" value="" style="edgeStyle=orthogonalEdgeStyle;rounded=0;orthogonalLoop=1;jettySize=auto;html=1;" edge="1" parent="1" source="Y9CdEm4xqu9V9nbw5cVp-60" target="Y9CdEm4xqu9V9nbw5cVp-62">
          <mxGeometry relative="1" as="geometry" />
        </mxCell>
        <mxCell id="Y9CdEm4xqu9V9nbw5cVp-60" value="mostrar erro" style="whiteSpace=wrap;html=1;" vertex="1" parent="1">
          <mxGeometry x="1460" y="875" width="120" height="60" as="geometry" />
        </mxCell>
        <mxCell id="Y9CdEm4xqu9V9nbw5cVp-62" value="solucionar erro" style="whiteSpace=wrap;html=1;" vertex="1" parent="1">
          <mxGeometry x="1660" y="875" width="120" height="60" as="geometry" />
        </mxCell>
        <mxCell id="Y9CdEm4xqu9V9nbw5cVp-67" value="" style="edgeStyle=orthogonalEdgeStyle;rounded=0;orthogonalLoop=1;jettySize=auto;html=1;" edge="1" parent="1" source="Y9CdEm4xqu9V9nbw5cVp-64" target="Y9CdEm4xqu9V9nbw5cVp-66">
          <mxGeometry relative="1" as="geometry" />
        </mxCell>
        <mxCell id="Y9CdEm4xqu9V9nbw5cVp-64" value="sim" style="text;html=1;align=center;verticalAlign=middle;whiteSpace=wrap;rounded=0;" vertex="1" parent="1">
          <mxGeometry x="1390" y="465" width="60" height="30" as="geometry" />
        </mxCell>
        <mxCell id="Y9CdEm4xqu9V9nbw5cVp-69" value="" style="edgeStyle=orthogonalEdgeStyle;rounded=0;orthogonalLoop=1;jettySize=auto;html=1;" edge="1" parent="1" source="Y9CdEm4xqu9V9nbw5cVp-66" target="Y9CdEm4xqu9V9nbw5cVp-68">
          <mxGeometry relative="1" as="geometry" />
        </mxCell>
        <mxCell id="Y9CdEm4xqu9V9nbw5cVp-66" value="entrada de produtos" style="whiteSpace=wrap;html=1;" vertex="1" parent="1">
          <mxGeometry x="1500" y="450" width="120" height="60" as="geometry" />
        </mxCell>
        <mxCell id="Y9CdEm4xqu9V9nbw5cVp-71" value="" style="edgeStyle=orthogonalEdgeStyle;rounded=0;orthogonalLoop=1;jettySize=auto;html=1;" edge="1" parent="1" source="Y9CdEm4xqu9V9nbw5cVp-68" target="Y9CdEm4xqu9V9nbw5cVp-70">
          <mxGeometry relative="1" as="geometry" />
        </mxCell>
        <mxCell id="Y9CdEm4xqu9V9nbw5cVp-76" value="" style="edgeStyle=orthogonalEdgeStyle;rounded=0;orthogonalLoop=1;jettySize=auto;html=1;" edge="1" parent="1" source="Y9CdEm4xqu9V9nbw5cVp-68" target="Y9CdEm4xqu9V9nbw5cVp-75">
          <mxGeometry relative="1" as="geometry" />
        </mxCell>
        <mxCell id="Y9CdEm4xqu9V9nbw5cVp-68" value="dados sobre produtos validos?" style="rhombus;whiteSpace=wrap;html=1;" vertex="1" parent="1">
          <mxGeometry x="1730" y="410" width="130" height="140" as="geometry" />
        </mxCell>
        <mxCell id="Y9CdEm4xqu9V9nbw5cVp-74" value="" style="edgeStyle=orthogonalEdgeStyle;rounded=0;orthogonalLoop=1;jettySize=auto;html=1;" edge="1" parent="1" source="Y9CdEm4xqu9V9nbw5cVp-70" target="Y9CdEm4xqu9V9nbw5cVp-73">
          <mxGeometry relative="1" as="geometry" />
        </mxCell>
        <mxCell id="Y9CdEm4xqu9V9nbw5cVp-70" value="manda produtos para estoque" style="whiteSpace=wrap;html=1;" vertex="1" parent="1">
          <mxGeometry x="1735" y="670" width="120" height="60" as="geometry" />
        </mxCell>
        <mxCell id="Y9CdEm4xqu9V9nbw5cVp-72" value="sim" style="text;html=1;align=center;verticalAlign=middle;whiteSpace=wrap;rounded=0;" vertex="1" parent="1">
          <mxGeometry x="1810" y="530" width="60" height="30" as="geometry" />
        </mxCell>
        <mxCell id="Y9CdEm4xqu9V9nbw5cVp-73" value="fim" style="ellipse;whiteSpace=wrap;html=1;" vertex="1" parent="1">
          <mxGeometry x="1955" y="660" width="80" height="80" as="geometry" />
        </mxCell>
        <mxCell id="Y9CdEm4xqu9V9nbw5cVp-78" value="" style="edgeStyle=orthogonalEdgeStyle;rounded=0;orthogonalLoop=1;jettySize=auto;html=1;" edge="1" parent="1" source="Y9CdEm4xqu9V9nbw5cVp-75" target="Y9CdEm4xqu9V9nbw5cVp-77">
          <mxGeometry relative="1" as="geometry" />
        </mxCell>
        <mxCell id="Y9CdEm4xqu9V9nbw5cVp-75" value="mostrar erro" style="whiteSpace=wrap;html=1;" vertex="1" parent="1">
          <mxGeometry x="1945" y="450" width="120" height="60" as="geometry" />
        </mxCell>
        <mxCell id="Y9CdEm4xqu9V9nbw5cVp-77" value="mandar solucionar o erro" style="whiteSpace=wrap;html=1;" vertex="1" parent="1">
          <mxGeometry x="2145" y="450" width="120" height="60" as="geometry" />
        </mxCell>
        <mxCell id="Y9CdEm4xqu9V9nbw5cVp-79" value="não" style="text;html=1;align=center;verticalAlign=middle;whiteSpace=wrap;rounded=0;" vertex="1" parent="1">
          <mxGeometry x="1870" y="420" width="60" height="30" as="geometry" />
        </mxCell>
        <mxCell id="Y9CdEm4xqu9V9nbw5cVp-82" value="" style="edgeStyle=orthogonalEdgeStyle;rounded=0;orthogonalLoop=1;jettySize=auto;html=1;" edge="1" parent="1" source="Y9CdEm4xqu9V9nbw5cVp-80" target="Y9CdEm4xqu9V9nbw5cVp-81">
          <mxGeometry relative="1" as="geometry" />
        </mxCell>
        <mxCell id="Y9CdEm4xqu9V9nbw5cVp-80" value="entrar no app" style="ellipse;whiteSpace=wrap;html=1;" vertex="1" parent="1">
          <mxGeometry x="580" y="1600" width="120" height="80" as="geometry" />
        </mxCell>
        <mxCell id="Y9CdEm4xqu9V9nbw5cVp-84" value="" style="edgeStyle=orthogonalEdgeStyle;rounded=0;orthogonalLoop=1;jettySize=auto;html=1;" edge="1" parent="1" source="Y9CdEm4xqu9V9nbw5cVp-81" target="Y9CdEm4xqu9V9nbw5cVp-83">
          <mxGeometry relative="1" as="geometry" />
        </mxCell>
        <mxCell id="Y9CdEm4xqu9V9nbw5cVp-81" value="criar novo usuario" style="whiteSpace=wrap;html=1;" vertex="1" parent="1">
          <mxGeometry x="580" y="1770" width="120" height="60" as="geometry" />
        </mxCell>
        <mxCell id="Y9CdEm4xqu9V9nbw5cVp-86" value="" style="edgeStyle=orthogonalEdgeStyle;rounded=0;orthogonalLoop=1;jettySize=auto;html=1;" edge="1" parent="1" source="Y9CdEm4xqu9V9nbw5cVp-83" target="Y9CdEm4xqu9V9nbw5cVp-85">
          <mxGeometry relative="1" as="geometry" />
        </mxCell>
        <mxCell id="Y9CdEm4xqu9V9nbw5cVp-83" value="nome do usuario" style="whiteSpace=wrap;html=1;" vertex="1" parent="1">
          <mxGeometry x="580" y="1910" width="120" height="60" as="geometry" />
        </mxCell>
        <mxCell id="Y9CdEm4xqu9V9nbw5cVp-88" value="" style="edgeStyle=orthogonalEdgeStyle;rounded=0;orthogonalLoop=1;jettySize=auto;html=1;" edge="1" parent="1" source="Y9CdEm4xqu9V9nbw5cVp-85" target="Y9CdEm4xqu9V9nbw5cVp-87">
          <mxGeometry relative="1" as="geometry" />
        </mxCell>
        <mxCell id="Y9CdEm4xqu9V9nbw5cVp-85" value="colocar email" style="whiteSpace=wrap;html=1;" vertex="1" parent="1">
          <mxGeometry x="580" y="2050" width="120" height="60" as="geometry" />
        </mxCell>
        <mxCell id="Y9CdEm4xqu9V9nbw5cVp-90" value="" style="edgeStyle=orthogonalEdgeStyle;rounded=0;orthogonalLoop=1;jettySize=auto;html=1;" edge="1" parent="1" source="Y9CdEm4xqu9V9nbw5cVp-87" target="Y9CdEm4xqu9V9nbw5cVp-89">
          <mxGeometry relative="1" as="geometry" />
        </mxCell>
        <mxCell id="Y9CdEm4xqu9V9nbw5cVp-98" value="" style="edgeStyle=orthogonalEdgeStyle;rounded=0;orthogonalLoop=1;jettySize=auto;html=1;" edge="1" parent="1" source="Y9CdEm4xqu9V9nbw5cVp-87" target="Y9CdEm4xqu9V9nbw5cVp-97">
          <mxGeometry relative="1" as="geometry" />
        </mxCell>
        <mxCell id="Y9CdEm4xqu9V9nbw5cVp-87" value="email já cadastrado?" style="rhombus;whiteSpace=wrap;html=1;" vertex="1" parent="1">
          <mxGeometry x="570" y="2170" width="140" height="120" as="geometry" />
        </mxCell>
        <mxCell id="Y9CdEm4xqu9V9nbw5cVp-92" value="" style="edgeStyle=orthogonalEdgeStyle;rounded=0;orthogonalLoop=1;jettySize=auto;html=1;" edge="1" parent="1" source="Y9CdEm4xqu9V9nbw5cVp-89" target="Y9CdEm4xqu9V9nbw5cVp-91">
          <mxGeometry relative="1" as="geometry" />
        </mxCell>
        <mxCell id="Y9CdEm4xqu9V9nbw5cVp-89" value="sim" style="text;html=1;align=center;verticalAlign=middle;whiteSpace=wrap;rounded=0;" vertex="1" parent="1">
          <mxGeometry x="458.5" y="2215" width="60" height="30" as="geometry" />
        </mxCell>
        <mxCell id="Y9CdEm4xqu9V9nbw5cVp-94" value="" style="edgeStyle=orthogonalEdgeStyle;rounded=0;orthogonalLoop=1;jettySize=auto;html=1;" edge="1" parent="1" source="Y9CdEm4xqu9V9nbw5cVp-91" target="Y9CdEm4xqu9V9nbw5cVp-93">
          <mxGeometry relative="1" as="geometry" />
        </mxCell>
        <mxCell id="Y9CdEm4xqu9V9nbw5cVp-91" value="logar email" style="whiteSpace=wrap;html=1;" vertex="1" parent="1">
          <mxGeometry x="288.5" y="2200" width="120" height="60" as="geometry" />
        </mxCell>
        <mxCell id="Y9CdEm4xqu9V9nbw5cVp-96" value="" style="edgeStyle=orthogonalEdgeStyle;rounded=0;orthogonalLoop=1;jettySize=auto;html=1;" edge="1" parent="1" source="Y9CdEm4xqu9V9nbw5cVp-93" target="Y9CdEm4xqu9V9nbw5cVp-95">
          <mxGeometry relative="1" as="geometry" />
        </mxCell>
        <mxCell id="Y9CdEm4xqu9V9nbw5cVp-93" value="senha correta?" style="rhombus;whiteSpace=wrap;html=1;" vertex="1" parent="1">
          <mxGeometry x="40" y="2190" width="148.5" height="80" as="geometry" />
        </mxCell>
        <mxCell id="Y9CdEm4xqu9V9nbw5cVp-111" value="" style="edgeStyle=orthogonalEdgeStyle;rounded=0;orthogonalLoop=1;jettySize=auto;html=1;" edge="1" parent="1" source="Y9CdEm4xqu9V9nbw5cVp-95" target="Y9CdEm4xqu9V9nbw5cVp-110">
          <mxGeometry relative="1" as="geometry" />
        </mxCell>
        <mxCell id="Y9CdEm4xqu9V9nbw5cVp-95" value="sim" style="text;html=1;align=center;verticalAlign=middle;whiteSpace=wrap;rounded=0;" vertex="1" parent="1">
          <mxGeometry x="84.25" y="2328" width="60" height="30" as="geometry" />
        </mxCell>
        <mxCell id="Y9CdEm4xqu9V9nbw5cVp-100" value="" style="edgeStyle=orthogonalEdgeStyle;rounded=0;orthogonalLoop=1;jettySize=auto;html=1;" edge="1" parent="1" source="Y9CdEm4xqu9V9nbw5cVp-97" target="Y9CdEm4xqu9V9nbw5cVp-99">
          <mxGeometry relative="1" as="geometry" />
        </mxCell>
        <mxCell id="Y9CdEm4xqu9V9nbw5cVp-108" style="edgeStyle=orthogonalEdgeStyle;rounded=0;orthogonalLoop=1;jettySize=auto;html=1;" edge="1" parent="1" source="Y9CdEm4xqu9V9nbw5cVp-97" target="Y9CdEm4xqu9V9nbw5cVp-107">
          <mxGeometry relative="1" as="geometry">
            <Array as="points">
              <mxPoint x="505" y="2365" />
              <mxPoint x="505" y="2341" />
            </Array>
          </mxGeometry>
        </mxCell>
        <mxCell id="Y9CdEm4xqu9V9nbw5cVp-97" value="não" style="text;html=1;align=center;verticalAlign=middle;whiteSpace=wrap;rounded=0;" vertex="1" parent="1">
          <mxGeometry x="610" y="2350" width="60" height="30" as="geometry" />
        </mxCell>
        <mxCell id="Y9CdEm4xqu9V9nbw5cVp-104" value="" style="edgeStyle=orthogonalEdgeStyle;rounded=0;orthogonalLoop=1;jettySize=auto;html=1;" edge="1" parent="1" source="Y9CdEm4xqu9V9nbw5cVp-99" target="Y9CdEm4xqu9V9nbw5cVp-103">
          <mxGeometry relative="1" as="geometry" />
        </mxCell>
        <mxCell id="Y9CdEm4xqu9V9nbw5cVp-99" value="o login esta correto?" style="rhombus;whiteSpace=wrap;html=1;" vertex="1" parent="1">
          <mxGeometry x="585" y="2435" width="110" height="80" as="geometry" />
        </mxCell>
        <mxCell id="Y9CdEm4xqu9V9nbw5cVp-106" value="" style="edgeStyle=orthogonalEdgeStyle;rounded=0;orthogonalLoop=1;jettySize=auto;html=1;" edge="1" parent="1" source="Y9CdEm4xqu9V9nbw5cVp-103" target="Y9CdEm4xqu9V9nbw5cVp-105">
          <mxGeometry relative="1" as="geometry" />
        </mxCell>
        <mxCell id="Y9CdEm4xqu9V9nbw5cVp-103" value="não" style="text;html=1;align=center;verticalAlign=middle;whiteSpace=wrap;rounded=0;" vertex="1" parent="1">
          <mxGeometry x="470" y="2460" width="60" height="30" as="geometry" />
        </mxCell>
        <mxCell id="Y9CdEm4xqu9V9nbw5cVp-109" value="" style="edgeStyle=orthogonalEdgeStyle;rounded=0;orthogonalLoop=1;jettySize=auto;html=1;" edge="1" parent="1" source="Y9CdEm4xqu9V9nbw5cVp-105" target="Y9CdEm4xqu9V9nbw5cVp-107">
          <mxGeometry relative="1" as="geometry" />
        </mxCell>
        <mxCell id="Y9CdEm4xqu9V9nbw5cVp-105" value="esqueceu a senha" style="whiteSpace=wrap;html=1;" vertex="1" parent="1">
          <mxGeometry x="300" y="2445" width="120" height="60" as="geometry" />
        </mxCell>
        <mxCell id="Y9CdEm4xqu9V9nbw5cVp-107" value="criar uma nova senha" style="text;html=1;align=center;verticalAlign=middle;whiteSpace=wrap;rounded=0;" vertex="1" parent="1">
          <mxGeometry x="330" y="2326" width="60" height="30" as="geometry" />
        </mxCell>
        <mxCell id="Y9CdEm4xqu9V9nbw5cVp-113" value="" style="edgeStyle=orthogonalEdgeStyle;rounded=0;orthogonalLoop=1;jettySize=auto;html=1;" edge="1" parent="1" source="Y9CdEm4xqu9V9nbw5cVp-110" target="Y9CdEm4xqu9V9nbw5cVp-112">
          <mxGeometry relative="1" as="geometry" />
        </mxCell>
        <mxCell id="Y9CdEm4xqu9V9nbw5cVp-110" value="criar conta" style="whiteSpace=wrap;html=1;" vertex="1" parent="1">
          <mxGeometry x="54.25" y="2423" width="120" height="60" as="geometry" />
        </mxCell>
        <mxCell id="Y9CdEm4xqu9V9nbw5cVp-117" value="" style="edgeStyle=orthogonalEdgeStyle;rounded=0;orthogonalLoop=1;jettySize=auto;html=1;" edge="1" parent="1" source="Y9CdEm4xqu9V9nbw5cVp-112" target="Y9CdEm4xqu9V9nbw5cVp-116">
          <mxGeometry relative="1" as="geometry" />
        </mxCell>
        <mxCell id="Y9CdEm4xqu9V9nbw5cVp-112" value="enviar email de verificação" style="whiteSpace=wrap;html=1;" vertex="1" parent="1">
          <mxGeometry x="54.25" y="2563" width="120" height="60" as="geometry" />
        </mxCell>
        <mxCell id="Y9CdEm4xqu9V9nbw5cVp-119" value="" style="edgeStyle=orthogonalEdgeStyle;rounded=0;orthogonalLoop=1;jettySize=auto;html=1;" edge="1" parent="1" source="Y9CdEm4xqu9V9nbw5cVp-116" target="Y9CdEm4xqu9V9nbw5cVp-118">
          <mxGeometry relative="1" as="geometry" />
        </mxCell>
        <mxCell id="Y9CdEm4xqu9V9nbw5cVp-125" value="" style="edgeStyle=orthogonalEdgeStyle;rounded=0;orthogonalLoop=1;jettySize=auto;html=1;" edge="1" parent="1" source="Y9CdEm4xqu9V9nbw5cVp-116" target="Y9CdEm4xqu9V9nbw5cVp-124">
          <mxGeometry relative="1" as="geometry" />
        </mxCell>
        <mxCell id="Y9CdEm4xqu9V9nbw5cVp-116" value="o email foi enviado?" style="rhombus;whiteSpace=wrap;html=1;" vertex="1" parent="1">
          <mxGeometry x="74.25" y="2693" width="80" height="80" as="geometry" />
        </mxCell>
        <mxCell id="Y9CdEm4xqu9V9nbw5cVp-121" value="" style="edgeStyle=orthogonalEdgeStyle;rounded=0;orthogonalLoop=1;jettySize=auto;html=1;" edge="1" parent="1" source="Y9CdEm4xqu9V9nbw5cVp-118" target="Y9CdEm4xqu9V9nbw5cVp-120">
          <mxGeometry relative="1" as="geometry" />
        </mxCell>
        <mxCell id="Y9CdEm4xqu9V9nbw5cVp-118" value="não" style="text;html=1;align=center;verticalAlign=middle;whiteSpace=wrap;rounded=0;" vertex="1" parent="1">
          <mxGeometry x="-20" y="2718" width="60" height="30" as="geometry" />
        </mxCell>
        <mxCell id="Y9CdEm4xqu9V9nbw5cVp-132" value="" style="edgeStyle=orthogonalEdgeStyle;rounded=0;orthogonalLoop=1;jettySize=auto;html=1;" edge="1" parent="1" source="Y9CdEm4xqu9V9nbw5cVp-120" target="Y9CdEm4xqu9V9nbw5cVp-131">
          <mxGeometry relative="1" as="geometry" />
        </mxCell>
        <mxCell id="Y9CdEm4xqu9V9nbw5cVp-120" value="reenviar email de verificação" style="whiteSpace=wrap;html=1;" vertex="1" parent="1">
          <mxGeometry x="-190" y="2703" width="120" height="60" as="geometry" />
        </mxCell>
        <mxCell id="Y9CdEm4xqu9V9nbw5cVp-129" value="" style="edgeStyle=orthogonalEdgeStyle;rounded=0;orthogonalLoop=1;jettySize=auto;html=1;" edge="1" parent="1" source="Y9CdEm4xqu9V9nbw5cVp-124">
          <mxGeometry relative="1" as="geometry">
            <mxPoint x="114.35294117647072" y="2993.06230850193" as="targetPoint" />
          </mxGeometry>
        </mxCell>
        <mxCell id="Y9CdEm4xqu9V9nbw5cVp-124" value="continuar o processo de login" style="whiteSpace=wrap;html=1;" vertex="1" parent="1">
          <mxGeometry x="54.25" y="2863" width="120" height="60" as="geometry" />
        </mxCell>
        <mxCell id="Y9CdEm4xqu9V9nbw5cVp-126" value="sim" style="text;html=1;align=center;verticalAlign=middle;whiteSpace=wrap;rounded=0;" vertex="1" parent="1">
          <mxGeometry x="128.5" y="2790" width="60" height="30" as="geometry" />
        </mxCell>
        <mxCell id="Y9CdEm4xqu9V9nbw5cVp-130" value="fim" style="ellipse;whiteSpace=wrap;html=1;aspect=fixed;" vertex="1" parent="1">
          <mxGeometry x="74.25" y="3000" width="80" height="80" as="geometry" />
        </mxCell>
        <mxCell id="Y9CdEm4xqu9V9nbw5cVp-134" value="" style="edgeStyle=orthogonalEdgeStyle;rounded=0;orthogonalLoop=1;jettySize=auto;html=1;" edge="1" parent="1" source="Y9CdEm4xqu9V9nbw5cVp-131" target="Y9CdEm4xqu9V9nbw5cVp-133">
          <mxGeometry relative="1" as="geometry" />
        </mxCell>
        <mxCell id="Y9CdEm4xqu9V9nbw5cVp-138" style="edgeStyle=orthogonalEdgeStyle;rounded=0;orthogonalLoop=1;jettySize=auto;html=1;" edge="1" parent="1" source="Y9CdEm4xqu9V9nbw5cVp-131" target="Y9CdEm4xqu9V9nbw5cVp-137">
          <mxGeometry relative="1" as="geometry" />
        </mxCell>
        <mxCell id="Y9CdEm4xqu9V9nbw5cVp-131" value="foi sucedido?" style="rhombus;whiteSpace=wrap;html=1;" vertex="1" parent="1">
          <mxGeometry x="-390" y="2693" width="100" height="80" as="geometry" />
        </mxCell>
        <mxCell id="Y9CdEm4xqu9V9nbw5cVp-136" style="edgeStyle=orthogonalEdgeStyle;rounded=0;orthogonalLoop=1;jettySize=auto;html=1;entryX=0;entryY=0.5;entryDx=0;entryDy=0;" edge="1" parent="1" source="Y9CdEm4xqu9V9nbw5cVp-133" target="Y9CdEm4xqu9V9nbw5cVp-130">
          <mxGeometry relative="1" as="geometry">
            <Array as="points">
              <mxPoint x="-340" y="3040" />
            </Array>
          </mxGeometry>
        </mxCell>
        <mxCell id="Y9CdEm4xqu9V9nbw5cVp-133" value="sim" style="text;html=1;align=center;verticalAlign=middle;whiteSpace=wrap;rounded=0;" vertex="1" parent="1">
          <mxGeometry x="-370" y="2830" width="60" height="30" as="geometry" />
        </mxCell>
        <mxCell id="Y9CdEm4xqu9V9nbw5cVp-139" style="edgeStyle=orthogonalEdgeStyle;rounded=0;orthogonalLoop=1;jettySize=auto;html=1;" edge="1" parent="1" source="Y9CdEm4xqu9V9nbw5cVp-137" target="Y9CdEm4xqu9V9nbw5cVp-140">
          <mxGeometry relative="1" as="geometry">
            <mxPoint x="-610.0000000000002" y="2733" as="targetPoint" />
          </mxGeometry>
        </mxCell>
        <mxCell id="Y9CdEm4xqu9V9nbw5cVp-137" value="não" style="text;html=1;align=center;verticalAlign=middle;whiteSpace=wrap;rounded=0;" vertex="1" parent="1">
          <mxGeometry x="-530" y="2718" width="60" height="30" as="geometry" />
        </mxCell>
        <mxCell id="Y9CdEm4xqu9V9nbw5cVp-295" style="edgeStyle=none;curved=1;rounded=0;orthogonalLoop=1;jettySize=auto;html=1;exitX=0.5;exitY=0;exitDx=0;exitDy=0;entryX=0.5;entryY=0;entryDx=0;entryDy=0;fontSize=12;startSize=8;endSize=8;" edge="1" parent="1" source="Y9CdEm4xqu9V9nbw5cVp-140" target="Y9CdEm4xqu9V9nbw5cVp-131">
          <mxGeometry relative="1" as="geometry">
            <Array as="points">
              <mxPoint x="-520" y="2539" />
            </Array>
          </mxGeometry>
        </mxCell>
        <mxCell id="Y9CdEm4xqu9V9nbw5cVp-140" value="investigar email" style="rounded=0;whiteSpace=wrap;html=1;" vertex="1" parent="1">
          <mxGeometry x="-740.0000000000002" y="2703" width="120" height="60" as="geometry" />
        </mxCell>
        <mxCell id="Y9CdEm4xqu9V9nbw5cVp-146" value="" style="edgeStyle=orthogonalEdgeStyle;rounded=0;orthogonalLoop=1;jettySize=auto;html=1;" edge="1" parent="1" source="Y9CdEm4xqu9V9nbw5cVp-141" target="Y9CdEm4xqu9V9nbw5cVp-145">
          <mxGeometry relative="1" as="geometry" />
        </mxCell>
        <mxCell id="Y9CdEm4xqu9V9nbw5cVp-141" value="inicio" style="ellipse;whiteSpace=wrap;html=1;" vertex="1" parent="1">
          <mxGeometry x="1400" y="1550" width="120" height="80" as="geometry" />
        </mxCell>
        <mxCell id="Y9CdEm4xqu9V9nbw5cVp-148" value="" style="edgeStyle=orthogonalEdgeStyle;rounded=0;orthogonalLoop=1;jettySize=auto;html=1;" edge="1" parent="1" source="Y9CdEm4xqu9V9nbw5cVp-145" target="Y9CdEm4xqu9V9nbw5cVp-147">
          <mxGeometry relative="1" as="geometry" />
        </mxCell>
        <mxCell id="Y9CdEm4xqu9V9nbw5cVp-145" value="verificar o pedido do produto" style="whiteSpace=wrap;html=1;" vertex="1" parent="1">
          <mxGeometry x="1400" y="1720" width="120" height="60" as="geometry" />
        </mxCell>
        <mxCell id="Y9CdEm4xqu9V9nbw5cVp-150" value="" style="edgeStyle=orthogonalEdgeStyle;rounded=0;orthogonalLoop=1;jettySize=auto;html=1;" edge="1" parent="1" source="Y9CdEm4xqu9V9nbw5cVp-147" target="Y9CdEm4xqu9V9nbw5cVp-149">
          <mxGeometry relative="1" as="geometry" />
        </mxCell>
        <mxCell id="Y9CdEm4xqu9V9nbw5cVp-147" value="localizar no GPS a entrega do cliente" style="whiteSpace=wrap;html=1;" vertex="1" parent="1">
          <mxGeometry x="1400" y="1860" width="120" height="60" as="geometry" />
        </mxCell>
        <mxCell id="Y9CdEm4xqu9V9nbw5cVp-153" value="" style="edgeStyle=orthogonalEdgeStyle;rounded=0;orthogonalLoop=1;jettySize=auto;html=1;" edge="1" parent="1" source="Y9CdEm4xqu9V9nbw5cVp-149" target="Y9CdEm4xqu9V9nbw5cVp-152">
          <mxGeometry relative="1" as="geometry" />
        </mxCell>
        <mxCell id="Y9CdEm4xqu9V9nbw5cVp-158" value="" style="edgeStyle=orthogonalEdgeStyle;rounded=0;orthogonalLoop=1;jettySize=auto;html=1;" edge="1" parent="1" source="Y9CdEm4xqu9V9nbw5cVp-149" target="Y9CdEm4xqu9V9nbw5cVp-157">
          <mxGeometry relative="1" as="geometry" />
        </mxCell>
        <mxCell id="Y9CdEm4xqu9V9nbw5cVp-149" value="endereço localizado" style="rhombus;whiteSpace=wrap;html=1;" vertex="1" parent="1">
          <mxGeometry x="1410" y="1990" width="100" height="90" as="geometry" />
        </mxCell>
        <mxCell id="Y9CdEm4xqu9V9nbw5cVp-155" value="" style="edgeStyle=orthogonalEdgeStyle;rounded=0;orthogonalLoop=1;jettySize=auto;html=1;" edge="1" parent="1" source="Y9CdEm4xqu9V9nbw5cVp-152" target="Y9CdEm4xqu9V9nbw5cVp-154">
          <mxGeometry relative="1" as="geometry" />
        </mxCell>
        <mxCell id="Y9CdEm4xqu9V9nbw5cVp-152" value="entrar em contato com o cliente" style="whiteSpace=wrap;html=1;" vertex="1" parent="1">
          <mxGeometry x="1580" y="2005" width="120" height="60" as="geometry" />
        </mxCell>
        <mxCell id="Y9CdEm4xqu9V9nbw5cVp-162" style="edgeStyle=orthogonalEdgeStyle;rounded=0;orthogonalLoop=1;jettySize=auto;html=1;entryX=1;entryY=0.5;entryDx=0;entryDy=0;" edge="1" parent="1" source="Y9CdEm4xqu9V9nbw5cVp-154" target="Y9CdEm4xqu9V9nbw5cVp-159">
          <mxGeometry relative="1" as="geometry">
            <Array as="points">
              <mxPoint x="1840" y="2255" />
            </Array>
          </mxGeometry>
        </mxCell>
        <mxCell id="Y9CdEm4xqu9V9nbw5cVp-154" value="verificar endereço correto" style="whiteSpace=wrap;html=1;" vertex="1" parent="1">
          <mxGeometry x="1780" y="2005" width="120" height="60" as="geometry" />
        </mxCell>
        <mxCell id="Y9CdEm4xqu9V9nbw5cVp-156" value="não" style="text;html=1;align=center;verticalAlign=middle;whiteSpace=wrap;rounded=0;" vertex="1" parent="1">
          <mxGeometry x="1510" y="2000" width="60" height="30" as="geometry" />
        </mxCell>
        <mxCell id="Y9CdEm4xqu9V9nbw5cVp-160" value="" style="edgeStyle=orthogonalEdgeStyle;rounded=0;orthogonalLoop=1;jettySize=auto;html=1;" edge="1" parent="1" source="Y9CdEm4xqu9V9nbw5cVp-157" target="Y9CdEm4xqu9V9nbw5cVp-159">
          <mxGeometry relative="1" as="geometry" />
        </mxCell>
        <mxCell id="Y9CdEm4xqu9V9nbw5cVp-157" value="sim" style="text;html=1;align=center;verticalAlign=middle;whiteSpace=wrap;rounded=0;" vertex="1" parent="1">
          <mxGeometry x="1430" y="2120" width="60" height="40" as="geometry" />
        </mxCell>
        <mxCell id="Y9CdEm4xqu9V9nbw5cVp-164" value="" style="edgeStyle=orthogonalEdgeStyle;rounded=0;orthogonalLoop=1;jettySize=auto;html=1;" edge="1" parent="1" source="Y9CdEm4xqu9V9nbw5cVp-159" target="Y9CdEm4xqu9V9nbw5cVp-163">
          <mxGeometry relative="1" as="geometry" />
        </mxCell>
        <mxCell id="Y9CdEm4xqu9V9nbw5cVp-159" value="prosseguir com a entrega do pedido" style="whiteSpace=wrap;html=1;" vertex="1" parent="1">
          <mxGeometry x="1400" y="2225" width="120" height="60" as="geometry" />
        </mxCell>
        <mxCell id="Y9CdEm4xqu9V9nbw5cVp-166" value="" style="edgeStyle=orthogonalEdgeStyle;rounded=0;orthogonalLoop=1;jettySize=auto;html=1;" edge="1" parent="1" source="Y9CdEm4xqu9V9nbw5cVp-163" target="Y9CdEm4xqu9V9nbw5cVp-165">
          <mxGeometry relative="1" as="geometry" />
        </mxCell>
        <mxCell id="Y9CdEm4xqu9V9nbw5cVp-163" value="localizar e chegar corretamente ao endereço" style="whiteSpace=wrap;html=1;" vertex="1" parent="1">
          <mxGeometry x="1400" y="2365" width="120" height="60" as="geometry" />
        </mxCell>
        <mxCell id="Y9CdEm4xqu9V9nbw5cVp-168" value="" style="edgeStyle=orthogonalEdgeStyle;rounded=0;orthogonalLoop=1;jettySize=auto;html=1;" edge="1" parent="1" source="Y9CdEm4xqu9V9nbw5cVp-165" target="Y9CdEm4xqu9V9nbw5cVp-167">
          <mxGeometry relative="1" as="geometry" />
        </mxCell>
        <mxCell id="Y9CdEm4xqu9V9nbw5cVp-297" value="" style="edgeStyle=none;curved=1;rounded=0;orthogonalLoop=1;jettySize=auto;html=1;fontSize=12;startSize=8;endSize=8;" edge="1" parent="1" source="Y9CdEm4xqu9V9nbw5cVp-165" target="Y9CdEm4xqu9V9nbw5cVp-296">
          <mxGeometry relative="1" as="geometry" />
        </mxCell>
        <mxCell id="Y9CdEm4xqu9V9nbw5cVp-165" value="cliente estava no endereço da entrega" style="rhombus;whiteSpace=wrap;html=1;" vertex="1" parent="1">
          <mxGeometry x="1390" y="2493" width="140" height="115" as="geometry" />
        </mxCell>
        <mxCell id="Y9CdEm4xqu9V9nbw5cVp-170" value="" style="edgeStyle=orthogonalEdgeStyle;rounded=0;orthogonalLoop=1;jettySize=auto;html=1;" edge="1" parent="1" source="Y9CdEm4xqu9V9nbw5cVp-167" target="Y9CdEm4xqu9V9nbw5cVp-169">
          <mxGeometry relative="1" as="geometry" />
        </mxCell>
        <mxCell id="Y9CdEm4xqu9V9nbw5cVp-167" value="não" style="text;html=1;align=center;verticalAlign=middle;whiteSpace=wrap;rounded=0;" vertex="1" parent="1">
          <mxGeometry x="1560" y="2535.5" width="60" height="30" as="geometry" />
        </mxCell>
        <mxCell id="Y9CdEm4xqu9V9nbw5cVp-172" value="" style="edgeStyle=orthogonalEdgeStyle;rounded=0;orthogonalLoop=1;jettySize=auto;html=1;" edge="1" parent="1" source="Y9CdEm4xqu9V9nbw5cVp-169" target="Y9CdEm4xqu9V9nbw5cVp-171">
          <mxGeometry relative="1" as="geometry" />
        </mxCell>
        <mxCell id="Y9CdEm4xqu9V9nbw5cVp-169" value="entrar em contato com o cliente" style="whiteSpace=wrap;html=1;" vertex="1" parent="1">
          <mxGeometry x="1670" y="2520.5" width="120" height="60" as="geometry" />
        </mxCell>
        <mxCell id="Y9CdEm4xqu9V9nbw5cVp-174" style="edgeStyle=orthogonalEdgeStyle;rounded=0;orthogonalLoop=1;jettySize=auto;html=1;entryX=0.5;entryY=1;entryDx=0;entryDy=0;" edge="1" parent="1" source="Y9CdEm4xqu9V9nbw5cVp-171" target="Y9CdEm4xqu9V9nbw5cVp-173">
          <mxGeometry relative="1" as="geometry" />
        </mxCell>
        <mxCell id="Y9CdEm4xqu9V9nbw5cVp-178" style="edgeStyle=orthogonalEdgeStyle;rounded=0;orthogonalLoop=1;jettySize=auto;html=1;" edge="1" parent="1" source="Y9CdEm4xqu9V9nbw5cVp-171">
          <mxGeometry relative="1" as="geometry">
            <mxPoint x="1949.9999999999995" y="2650" as="targetPoint" />
          </mxGeometry>
        </mxCell>
        <mxCell id="Y9CdEm4xqu9V9nbw5cVp-171" value="contato foi bem sucedido?" style="rhombus;whiteSpace=wrap;html=1;" vertex="1" parent="1">
          <mxGeometry x="1890" y="2490.25" width="120" height="120.5" as="geometry" />
        </mxCell>
        <mxCell id="Y9CdEm4xqu9V9nbw5cVp-176" value="" style="edgeStyle=orthogonalEdgeStyle;rounded=0;orthogonalLoop=1;jettySize=auto;html=1;" edge="1" parent="1" source="Y9CdEm4xqu9V9nbw5cVp-173">
          <mxGeometry relative="1" as="geometry">
            <mxPoint x="1949.9999999999995" y="2340" as="targetPoint" />
          </mxGeometry>
        </mxCell>
        <mxCell id="Y9CdEm4xqu9V9nbw5cVp-173" value="sim" style="text;html=1;align=center;verticalAlign=middle;whiteSpace=wrap;rounded=0;" vertex="1" parent="1">
          <mxGeometry x="1920" y="2420" width="60" height="30" as="geometry" />
        </mxCell>
        <mxCell id="Y9CdEm4xqu9V9nbw5cVp-188" value="" style="edgeStyle=orthogonalEdgeStyle;rounded=0;orthogonalLoop=1;jettySize=auto;html=1;" edge="1" parent="1" source="Y9CdEm4xqu9V9nbw5cVp-177" target="Y9CdEm4xqu9V9nbw5cVp-187">
          <mxGeometry relative="1" as="geometry" />
        </mxCell>
        <mxCell id="Y9CdEm4xqu9V9nbw5cVp-177" value="resolver oq fazer com o produto" style="rounded=0;whiteSpace=wrap;html=1;" vertex="1" parent="1">
          <mxGeometry x="1890" y="2275" width="120" height="60" as="geometry" />
        </mxCell>
        <mxCell id="Y9CdEm4xqu9V9nbw5cVp-185" value="" style="edgeStyle=orthogonalEdgeStyle;rounded=0;orthogonalLoop=1;jettySize=auto;html=1;" edge="1" parent="1" source="Y9CdEm4xqu9V9nbw5cVp-179" target="Y9CdEm4xqu9V9nbw5cVp-184">
          <mxGeometry relative="1" as="geometry" />
        </mxCell>
        <mxCell id="Y9CdEm4xqu9V9nbw5cVp-179" value="não" style="text;html=1;align=center;verticalAlign=middle;whiteSpace=wrap;rounded=0;" vertex="1" parent="1">
          <mxGeometry x="1920" y="2650" width="60" height="30" as="geometry" />
        </mxCell>
        <mxCell id="Y9CdEm4xqu9V9nbw5cVp-184" value="enviar uma mensagem para o cliente avisando que seu produto esta na loja aguardando retorno do mesmo" style="whiteSpace=wrap;html=1;" vertex="1" parent="1">
          <mxGeometry x="1890" y="2745" width="120" height="115" as="geometry" />
        </mxCell>
        <mxCell id="Y9CdEm4xqu9V9nbw5cVp-190" value="" style="edgeStyle=orthogonalEdgeStyle;rounded=0;orthogonalLoop=1;jettySize=auto;html=1;" edge="1" parent="1" source="Y9CdEm4xqu9V9nbw5cVp-187" target="Y9CdEm4xqu9V9nbw5cVp-189">
          <mxGeometry relative="1" as="geometry" />
        </mxCell>
        <mxCell id="Y9CdEm4xqu9V9nbw5cVp-187" value="solucionar o problema" style="whiteSpace=wrap;html=1;rounded=0;" vertex="1" parent="1">
          <mxGeometry x="2090" y="2275" width="120" height="60" as="geometry" />
        </mxCell>
        <mxCell id="Y9CdEm4xqu9V9nbw5cVp-192" value="" style="edgeStyle=orthogonalEdgeStyle;rounded=0;orthogonalLoop=1;jettySize=auto;html=1;" edge="1" parent="1" source="Y9CdEm4xqu9V9nbw5cVp-189" target="Y9CdEm4xqu9V9nbw5cVp-191">
          <mxGeometry relative="1" as="geometry" />
        </mxCell>
        <mxCell id="Y9CdEm4xqu9V9nbw5cVp-189" value="entregar o produto" style="whiteSpace=wrap;html=1;rounded=0;" vertex="1" parent="1">
          <mxGeometry x="2290" y="2275" width="120" height="60" as="geometry" />
        </mxCell>
        <mxCell id="Y9CdEm4xqu9V9nbw5cVp-191" value="fim" style="ellipse;whiteSpace=wrap;html=1;rounded=0;" vertex="1" parent="1">
          <mxGeometry x="2310" y="2405" width="80" height="80" as="geometry" />
        </mxCell>
        <mxCell id="Y9CdEm4xqu9V9nbw5cVp-195" value="" style="edgeStyle=orthogonalEdgeStyle;rounded=0;orthogonalLoop=1;jettySize=auto;html=1;" edge="1" parent="1" source="Y9CdEm4xqu9V9nbw5cVp-193" target="Y9CdEm4xqu9V9nbw5cVp-194">
          <mxGeometry relative="1" as="geometry" />
        </mxCell>
        <mxCell id="Y9CdEm4xqu9V9nbw5cVp-193" value="inicio" style="ellipse;whiteSpace=wrap;html=1;" vertex="1" parent="1">
          <mxGeometry x="990" y="2830" width="120" height="80" as="geometry" />
        </mxCell>
        <mxCell id="Y9CdEm4xqu9V9nbw5cVp-197" value="" style="edgeStyle=orthogonalEdgeStyle;rounded=0;orthogonalLoop=1;jettySize=auto;html=1;" edge="1" parent="1" source="Y9CdEm4xqu9V9nbw5cVp-194" target="Y9CdEm4xqu9V9nbw5cVp-196">
          <mxGeometry relative="1" as="geometry" />
        </mxCell>
        <mxCell id="Y9CdEm4xqu9V9nbw5cVp-194" value="escolha a forma de pagamento" style="whiteSpace=wrap;html=1;" vertex="1" parent="1">
          <mxGeometry x="990" y="3000" width="120" height="60" as="geometry" />
        </mxCell>
        <mxCell id="Y9CdEm4xqu9V9nbw5cVp-199" value="" style="edgeStyle=orthogonalEdgeStyle;rounded=0;orthogonalLoop=1;jettySize=auto;html=1;" edge="1" parent="1" source="Y9CdEm4xqu9V9nbw5cVp-196" target="Y9CdEm4xqu9V9nbw5cVp-198">
          <mxGeometry relative="1" as="geometry" />
        </mxCell>
        <mxCell id="Y9CdEm4xqu9V9nbw5cVp-196" value="pix ou cartão?" style="rhombus;whiteSpace=wrap;html=1;" vertex="1" parent="1">
          <mxGeometry x="990" y="3130" width="120" height="80" as="geometry" />
        </mxCell>
        <mxCell id="Y9CdEm4xqu9V9nbw5cVp-201" value="" style="edgeStyle=orthogonalEdgeStyle;rounded=0;orthogonalLoop=1;jettySize=auto;html=1;" edge="1" parent="1" source="Y9CdEm4xqu9V9nbw5cVp-198" target="Y9CdEm4xqu9V9nbw5cVp-200">
          <mxGeometry relative="1" as="geometry" />
        </mxCell>
        <mxCell id="Y9CdEm4xqu9V9nbw5cVp-198" value="pix" style="text;html=1;align=center;verticalAlign=middle;whiteSpace=wrap;rounded=0;" vertex="1" parent="1">
          <mxGeometry x="835" y="3155" width="60" height="30" as="geometry" />
        </mxCell>
        <mxCell id="Y9CdEm4xqu9V9nbw5cVp-203" value="" style="edgeStyle=orthogonalEdgeStyle;rounded=0;orthogonalLoop=1;jettySize=auto;html=1;" edge="1" parent="1" source="Y9CdEm4xqu9V9nbw5cVp-200" target="Y9CdEm4xqu9V9nbw5cVp-202">
          <mxGeometry relative="1" as="geometry" />
        </mxCell>
        <mxCell id="Y9CdEm4xqu9V9nbw5cVp-200" value="produzir a chave pix onde o dinheiro será depositado" style="whiteSpace=wrap;html=1;" vertex="1" parent="1">
          <mxGeometry x="805" y="3250" width="120" height="60" as="geometry" />
        </mxCell>
        <mxCell id="Y9CdEm4xqu9V9nbw5cVp-205" value="" style="edgeStyle=orthogonalEdgeStyle;rounded=0;orthogonalLoop=1;jettySize=auto;html=1;" edge="1" parent="1" source="Y9CdEm4xqu9V9nbw5cVp-202" target="Y9CdEm4xqu9V9nbw5cVp-204">
          <mxGeometry relative="1" as="geometry" />
        </mxCell>
        <mxCell id="Y9CdEm4xqu9V9nbw5cVp-202" value="conferir o pagamento" style="whiteSpace=wrap;html=1;" vertex="1" parent="1">
          <mxGeometry x="805" y="3390" width="120" height="60" as="geometry" />
        </mxCell>
        <mxCell id="Y9CdEm4xqu9V9nbw5cVp-207" style="edgeStyle=orthogonalEdgeStyle;rounded=0;orthogonalLoop=1;jettySize=auto;html=1;" edge="1" parent="1" source="Y9CdEm4xqu9V9nbw5cVp-204" target="Y9CdEm4xqu9V9nbw5cVp-206">
          <mxGeometry relative="1" as="geometry" />
        </mxCell>
        <mxCell id="Y9CdEm4xqu9V9nbw5cVp-213" value="" style="edgeStyle=orthogonalEdgeStyle;rounded=0;orthogonalLoop=1;jettySize=auto;html=1;" edge="1" parent="1" source="Y9CdEm4xqu9V9nbw5cVp-204" target="Y9CdEm4xqu9V9nbw5cVp-212">
          <mxGeometry relative="1" as="geometry" />
        </mxCell>
        <mxCell id="Y9CdEm4xqu9V9nbw5cVp-204" value="pagamento concluido?" style="rhombus;whiteSpace=wrap;html=1;" vertex="1" parent="1">
          <mxGeometry x="812.5" y="3520" width="105" height="80" as="geometry" />
        </mxCell>
        <mxCell id="Y9CdEm4xqu9V9nbw5cVp-209" value="" style="edgeStyle=orthogonalEdgeStyle;rounded=0;orthogonalLoop=1;jettySize=auto;html=1;" edge="1" parent="1" source="Y9CdEm4xqu9V9nbw5cVp-206" target="Y9CdEm4xqu9V9nbw5cVp-208">
          <mxGeometry relative="1" as="geometry" />
        </mxCell>
        <mxCell id="Y9CdEm4xqu9V9nbw5cVp-206" value="sim" style="text;html=1;align=center;verticalAlign=middle;whiteSpace=wrap;rounded=0;" vertex="1" parent="1">
          <mxGeometry x="700" y="3545" width="60" height="30" as="geometry" />
        </mxCell>
        <mxCell id="Y9CdEm4xqu9V9nbw5cVp-211" value="" style="edgeStyle=orthogonalEdgeStyle;rounded=0;orthogonalLoop=1;jettySize=auto;html=1;" edge="1" parent="1" source="Y9CdEm4xqu9V9nbw5cVp-208" target="Y9CdEm4xqu9V9nbw5cVp-210">
          <mxGeometry relative="1" as="geometry" />
        </mxCell>
        <mxCell id="Y9CdEm4xqu9V9nbw5cVp-208" value="enviar o comprovante" style="whiteSpace=wrap;html=1;" vertex="1" parent="1">
          <mxGeometry x="670" y="3640" width="120" height="60" as="geometry" />
        </mxCell>
        <mxCell id="Y9CdEm4xqu9V9nbw5cVp-210" value="fim" style="ellipse;whiteSpace=wrap;html=1;" vertex="1" parent="1">
          <mxGeometry x="690" y="3770" width="80" height="80" as="geometry" />
        </mxCell>
        <mxCell id="Y9CdEm4xqu9V9nbw5cVp-215" value="" style="edgeStyle=orthogonalEdgeStyle;rounded=0;orthogonalLoop=1;jettySize=auto;html=1;" edge="1" parent="1" source="Y9CdEm4xqu9V9nbw5cVp-212" target="Y9CdEm4xqu9V9nbw5cVp-214">
          <mxGeometry relative="1" as="geometry">
            <Array as="points">
              <mxPoint x="1100" y="3560" />
            </Array>
          </mxGeometry>
        </mxCell>
        <mxCell id="Y9CdEm4xqu9V9nbw5cVp-212" value="cartão" style="text;html=1;align=center;verticalAlign=middle;resizable=0;points=[];autosize=1;strokeColor=none;fillColor=none;" vertex="1" parent="1">
          <mxGeometry x="985" y="3545" width="60" height="30" as="geometry" />
        </mxCell>
        <mxCell id="Y9CdEm4xqu9V9nbw5cVp-217" value="" style="edgeStyle=orthogonalEdgeStyle;rounded=0;orthogonalLoop=1;jettySize=auto;html=1;" edge="1" parent="1" source="Y9CdEm4xqu9V9nbw5cVp-214" target="Y9CdEm4xqu9V9nbw5cVp-216">
          <mxGeometry relative="1" as="geometry" />
        </mxCell>
        <mxCell id="Y9CdEm4xqu9V9nbw5cVp-214" value="cartão de credito" style="whiteSpace=wrap;html=1;" vertex="1" parent="1">
          <mxGeometry x="1040" y="3620" width="120" height="60" as="geometry" />
        </mxCell>
        <mxCell id="Y9CdEm4xqu9V9nbw5cVp-219" value="" style="edgeStyle=orthogonalEdgeStyle;rounded=0;orthogonalLoop=1;jettySize=auto;html=1;" edge="1" parent="1" source="Y9CdEm4xqu9V9nbw5cVp-216" target="Y9CdEm4xqu9V9nbw5cVp-218">
          <mxGeometry relative="1" as="geometry" />
        </mxCell>
        <mxCell id="Y9CdEm4xqu9V9nbw5cVp-216" value="informe os dados do cartão" style="whiteSpace=wrap;html=1;" vertex="1" parent="1">
          <mxGeometry x="1040" y="3760" width="120" height="60" as="geometry" />
        </mxCell>
        <mxCell id="Y9CdEm4xqu9V9nbw5cVp-222" value="" style="edgeStyle=orthogonalEdgeStyle;rounded=0;orthogonalLoop=1;jettySize=auto;html=1;" edge="1" parent="1" source="Y9CdEm4xqu9V9nbw5cVp-218" target="Y9CdEm4xqu9V9nbw5cVp-221">
          <mxGeometry relative="1" as="geometry" />
        </mxCell>
        <mxCell id="Y9CdEm4xqu9V9nbw5cVp-226" style="edgeStyle=orthogonalEdgeStyle;rounded=0;orthogonalLoop=1;jettySize=auto;html=1;" edge="1" parent="1" source="Y9CdEm4xqu9V9nbw5cVp-218">
          <mxGeometry relative="1" as="geometry">
            <mxPoint x="1100" y="4030" as="targetPoint" />
          </mxGeometry>
        </mxCell>
        <mxCell id="Y9CdEm4xqu9V9nbw5cVp-218" value="dados corretos?" style="rhombus;whiteSpace=wrap;html=1;" vertex="1" parent="1">
          <mxGeometry x="1060" y="3890" width="80" height="80" as="geometry" />
        </mxCell>
        <mxCell id="Y9CdEm4xqu9V9nbw5cVp-224" value="" style="edgeStyle=orthogonalEdgeStyle;rounded=0;orthogonalLoop=1;jettySize=auto;html=1;" edge="1" parent="1" source="Y9CdEm4xqu9V9nbw5cVp-221" target="Y9CdEm4xqu9V9nbw5cVp-223">
          <mxGeometry relative="1" as="geometry" />
        </mxCell>
        <mxCell id="Y9CdEm4xqu9V9nbw5cVp-221" value="não" style="text;html=1;align=center;verticalAlign=middle;resizable=0;points=[];autosize=1;strokeColor=none;fillColor=none;" vertex="1" parent="1">
          <mxGeometry x="1195" y="3915" width="40" height="30" as="geometry" />
        </mxCell>
        <mxCell id="Y9CdEm4xqu9V9nbw5cVp-225" style="edgeStyle=orthogonalEdgeStyle;rounded=0;orthogonalLoop=1;jettySize=auto;html=1;entryX=1;entryY=0.5;entryDx=0;entryDy=0;" edge="1" parent="1" source="Y9CdEm4xqu9V9nbw5cVp-223" target="Y9CdEm4xqu9V9nbw5cVp-216">
          <mxGeometry relative="1" as="geometry">
            <Array as="points">
              <mxPoint x="1380" y="3790" />
            </Array>
          </mxGeometry>
        </mxCell>
        <mxCell id="Y9CdEm4xqu9V9nbw5cVp-223" value="revisar dados e recomeçar" style="whiteSpace=wrap;html=1;" vertex="1" parent="1">
          <mxGeometry x="1320" y="3900" width="120" height="60" as="geometry" />
        </mxCell>
        <mxCell id="Y9CdEm4xqu9V9nbw5cVp-228" style="edgeStyle=orthogonalEdgeStyle;rounded=0;orthogonalLoop=1;jettySize=auto;html=1;" edge="1" parent="1" source="Y9CdEm4xqu9V9nbw5cVp-227" target="Y9CdEm4xqu9V9nbw5cVp-229">
          <mxGeometry relative="1" as="geometry">
            <mxPoint x="1100" y="4110" as="targetPoint" />
          </mxGeometry>
        </mxCell>
        <mxCell id="Y9CdEm4xqu9V9nbw5cVp-227" value="sim" style="text;html=1;align=center;verticalAlign=middle;whiteSpace=wrap;rounded=0;" vertex="1" parent="1">
          <mxGeometry x="1070" y="4030" width="60" height="30" as="geometry" />
        </mxCell>
        <mxCell id="Y9CdEm4xqu9V9nbw5cVp-230" style="edgeStyle=orthogonalEdgeStyle;rounded=0;orthogonalLoop=1;jettySize=auto;html=1;" edge="1" parent="1" source="Y9CdEm4xqu9V9nbw5cVp-229">
          <mxGeometry relative="1" as="geometry">
            <mxPoint x="1100" y="4220" as="targetPoint" />
          </mxGeometry>
        </mxCell>
        <mxCell id="Y9CdEm4xqu9V9nbw5cVp-229" value="fazer o pagamento&amp;nbsp;" style="rounded=0;whiteSpace=wrap;html=1;" vertex="1" parent="1">
          <mxGeometry x="1040" y="4110" width="120" height="60" as="geometry" />
        </mxCell>
        <mxCell id="Y9CdEm4xqu9V9nbw5cVp-233" value="" style="edgeStyle=orthogonalEdgeStyle;rounded=0;orthogonalLoop=1;jettySize=auto;html=1;" edge="1" parent="1" source="Y9CdEm4xqu9V9nbw5cVp-231">
          <mxGeometry relative="1" as="geometry">
            <mxPoint x="1105" y="4350" as="targetPoint" />
          </mxGeometry>
        </mxCell>
        <mxCell id="Y9CdEm4xqu9V9nbw5cVp-231" value="enviar comprovante" style="rounded=0;whiteSpace=wrap;html=1;" vertex="1" parent="1">
          <mxGeometry x="1045" y="4220" width="120" height="60" as="geometry" />
        </mxCell>
        <mxCell id="Y9CdEm4xqu9V9nbw5cVp-232" value="fim" style="ellipse;whiteSpace=wrap;html=1;rounded=0;" vertex="1" parent="1">
          <mxGeometry x="1070" y="4350" width="80" height="80" as="geometry" />
        </mxCell>
        <mxCell id="Y9CdEm4xqu9V9nbw5cVp-234" value="&lt;b&gt;parte de costura/corte&lt;/b&gt;" style="text;html=1;align=center;verticalAlign=middle;whiteSpace=wrap;rounded=0;" vertex="1" parent="1">
          <mxGeometry x="-160.5" y="-40" width="160" height="30" as="geometry" />
        </mxCell>
        <mxCell id="Y9CdEm4xqu9V9nbw5cVp-235" value="&lt;b&gt;pedidos do gerente&lt;/b&gt;" style="text;html=1;align=center;verticalAlign=middle;whiteSpace=wrap;rounded=0;" vertex="1" parent="1">
          <mxGeometry x="1145" y="-10" width="125" height="30" as="geometry" />
        </mxCell>
        <mxCell id="Y9CdEm4xqu9V9nbw5cVp-236" value="&lt;b&gt;entrega dos pedido&lt;/b&gt;" style="text;html=1;align=center;verticalAlign=middle;whiteSpace=wrap;rounded=0;" vertex="1" parent="1">
          <mxGeometry x="1390" y="1490" width="140" height="30" as="geometry" />
        </mxCell>
        <mxCell id="Y9CdEm4xqu9V9nbw5cVp-237" value="login do app da loja" style="text;html=1;align=center;verticalAlign=middle;whiteSpace=wrap;rounded=0;" vertex="1" parent="1">
          <mxGeometry x="575" y="1520" width="130" height="30" as="geometry" />
        </mxCell>
        <mxCell id="Y9CdEm4xqu9V9nbw5cVp-238" value="&lt;b&gt;area de pagamento (se necessario )&lt;/b&gt;" style="text;html=1;align=center;verticalAlign=middle;whiteSpace=wrap;rounded=0;" vertex="1" parent="1">
          <mxGeometry x="930" y="2763" width="240" height="30" as="geometry" />
        </mxCell>
        <mxCell id="Y9CdEm4xqu9V9nbw5cVp-240" value="" style="rounded=1;whiteSpace=wrap;html=1;rotation=90;fillColor=#000000;strokeWidth=4;strokeColor=#FF0000;" vertex="1" parent="1">
          <mxGeometry x="2755" y="155" width="420" height="310" as="geometry" />
        </mxCell>
        <mxCell id="Y9CdEm4xqu9V9nbw5cVp-241" value="cadastro" style="rounded=0;whiteSpace=wrap;html=1;" vertex="1" parent="1">
          <mxGeometry x="2880" y="110" width="170" height="20" as="geometry" />
        </mxCell>
        <mxCell id="Y9CdEm4xqu9V9nbw5cVp-247" value="entrar" style="rounded=0;whiteSpace=wrap;html=1;" vertex="1" parent="1">
          <mxGeometry x="2935" y="495" width="60" height="20" as="geometry" />
        </mxCell>
        <mxCell id="Y9CdEm4xqu9V9nbw5cVp-251" value="" style="rounded=1;whiteSpace=wrap;html=1;" vertex="1" parent="1">
          <mxGeometry x="2820" y="150" width="290" height="340" as="geometry" />
        </mxCell>
        <mxCell id="Y9CdEm4xqu9V9nbw5cVp-252" value="" style="rounded=1;whiteSpace=wrap;html=1;fillColor=#000000;" vertex="1" parent="1">
          <mxGeometry x="2850" y="170" width="230" height="290" as="geometry" />
        </mxCell>
        <mxCell id="Y9CdEm4xqu9V9nbw5cVp-253" value="nome" style="rounded=0;whiteSpace=wrap;html=1;" vertex="1" parent="1">
          <mxGeometry x="2859" y="190" width="50" height="20" as="geometry" />
        </mxCell>
        <mxCell id="Y9CdEm4xqu9V9nbw5cVp-255" value="" style="rounded=0;whiteSpace=wrap;html=1;" vertex="1" parent="1">
          <mxGeometry x="2920" y="190" width="140" height="20" as="geometry" />
        </mxCell>
        <mxCell id="Y9CdEm4xqu9V9nbw5cVp-256" value="sobrenome" style="rounded=0;whiteSpace=wrap;html=1;" vertex="1" parent="1">
          <mxGeometry x="2853" y="250.5" width="80" height="20" as="geometry" />
        </mxCell>
        <mxCell id="Y9CdEm4xqu9V9nbw5cVp-257" value="" style="rounded=0;whiteSpace=wrap;html=1;" vertex="1" parent="1">
          <mxGeometry x="2941" y="250.5" width="125" height="20" as="geometry" />
        </mxCell>
        <mxCell id="Y9CdEm4xqu9V9nbw5cVp-258" value="email" style="rounded=0;whiteSpace=wrap;html=1;" vertex="1" parent="1">
          <mxGeometry x="2853" y="305" width="50" height="20" as="geometry" />
        </mxCell>
        <mxCell id="Y9CdEm4xqu9V9nbw5cVp-259" value="" style="rounded=0;whiteSpace=wrap;html=1;" vertex="1" parent="1">
          <mxGeometry x="2913" y="305" width="153" height="20" as="geometry" />
        </mxCell>
        <mxCell id="Y9CdEm4xqu9V9nbw5cVp-260" value="endereço" style="rounded=0;whiteSpace=wrap;html=1;" vertex="1" parent="1">
          <mxGeometry x="2853" y="359" width="62" height="20" as="geometry" />
        </mxCell>
        <mxCell id="Y9CdEm4xqu9V9nbw5cVp-261" value="" style="rounded=0;whiteSpace=wrap;html=1;" vertex="1" parent="1">
          <mxGeometry x="2923" y="359" width="142" height="20" as="geometry" />
        </mxCell>
        <mxCell id="Y9CdEm4xqu9V9nbw5cVp-262" value="" style="rounded=1;whiteSpace=wrap;html=1;rotation=90;fillColor=#000000;strokeWidth=4;strokeColor=#FF0000;" vertex="1" parent="1">
          <mxGeometry x="3308" y="155" width="420" height="310" as="geometry" />
        </mxCell>
        <mxCell id="Y9CdEm4xqu9V9nbw5cVp-263" value="cadastro" style="rounded=0;whiteSpace=wrap;html=1;" vertex="1" parent="1">
          <mxGeometry x="3433" y="110" width="170" height="20" as="geometry" />
        </mxCell>
        <mxCell id="Y9CdEm4xqu9V9nbw5cVp-264" value="entrar" style="rounded=0;whiteSpace=wrap;html=1;" vertex="1" parent="1">
          <mxGeometry x="3488" y="495" width="60" height="20" as="geometry" />
        </mxCell>
        <mxCell id="Y9CdEm4xqu9V9nbw5cVp-265" value="" style="rounded=1;whiteSpace=wrap;html=1;" vertex="1" parent="1">
          <mxGeometry x="3373" y="150" width="290" height="340" as="geometry" />
        </mxCell>
        <mxCell id="Y9CdEm4xqu9V9nbw5cVp-266" value="" style="rounded=1;whiteSpace=wrap;html=1;fillColor=#000000;" vertex="1" parent="1">
          <mxGeometry x="3403" y="170" width="230" height="290" as="geometry" />
        </mxCell>
        <mxCell id="Y9CdEm4xqu9V9nbw5cVp-269" value="login" style="rounded=0;whiteSpace=wrap;html=1;" vertex="1" parent="1">
          <mxGeometry x="3406" y="250.5" width="61" height="20" as="geometry" />
        </mxCell>
        <mxCell id="Y9CdEm4xqu9V9nbw5cVp-270" value="" style="rounded=0;whiteSpace=wrap;html=1;" vertex="1" parent="1">
          <mxGeometry x="3479" y="250.5" width="140" height="20" as="geometry" />
        </mxCell>
        <mxCell id="Y9CdEm4xqu9V9nbw5cVp-271" value="senha" style="rounded=0;whiteSpace=wrap;html=1;" vertex="1" parent="1">
          <mxGeometry x="3406" y="305" width="50" height="20" as="geometry" />
        </mxCell>
        <mxCell id="Y9CdEm4xqu9V9nbw5cVp-272" value="" style="rounded=0;whiteSpace=wrap;html=1;" vertex="1" parent="1">
          <mxGeometry x="3466" y="305" width="153" height="20" as="geometry" />
        </mxCell>
        <mxCell id="Y9CdEm4xqu9V9nbw5cVp-273" value="confirmar senha" style="rounded=0;whiteSpace=wrap;html=1;" vertex="1" parent="1">
          <mxGeometry x="3466" y="385" width="93" height="20" as="geometry" />
        </mxCell>
        <mxCell id="Y9CdEm4xqu9V9nbw5cVp-274" value="" style="rounded=0;whiteSpace=wrap;html=1;" vertex="1" parent="1">
          <mxGeometry x="3447" y="425" width="142" height="20" as="geometry" />
        </mxCell>
        <mxCell id="Y9CdEm4xqu9V9nbw5cVp-275" value="" style="rounded=1;whiteSpace=wrap;html=1;rotation=90;fillColor=#000000;strokeWidth=4;strokeColor=#FF0000;" vertex="1" parent="1">
          <mxGeometry x="3831" y="150.5" width="420" height="310" as="geometry" />
        </mxCell>
        <mxCell id="Y9CdEm4xqu9V9nbw5cVp-276" value="cadastro" style="rounded=0;whiteSpace=wrap;html=1;" vertex="1" parent="1">
          <mxGeometry x="3956" y="105.5" width="170" height="20" as="geometry" />
        </mxCell>
        <mxCell id="Y9CdEm4xqu9V9nbw5cVp-277" value="entrar" style="rounded=0;whiteSpace=wrap;html=1;" vertex="1" parent="1">
          <mxGeometry x="4011" y="490.5" width="60" height="20" as="geometry" />
        </mxCell>
        <mxCell id="Y9CdEm4xqu9V9nbw5cVp-278" value="" style="rounded=1;whiteSpace=wrap;html=1;" vertex="1" parent="1">
          <mxGeometry x="3896" y="145.5" width="290" height="340" as="geometry" />
        </mxCell>
        <mxCell id="Y9CdEm4xqu9V9nbw5cVp-279" value="" style="rounded=1;whiteSpace=wrap;html=1;fillColor=#000000;" vertex="1" parent="1">
          <mxGeometry x="3926" y="165.5" width="230" height="290" as="geometry" />
        </mxCell>
        <mxCell id="Y9CdEm4xqu9V9nbw5cVp-286" value="&lt;b&gt;cadastro concluido(a)&lt;/b&gt;" style="rounded=0;whiteSpace=wrap;html=1;" vertex="1" parent="1">
          <mxGeometry x="3945" y="238" width="186" height="137" as="geometry" />
        </mxCell>
        <mxCell id="Y9CdEm4xqu9V9nbw5cVp-288" value="" style="verticalLabelPosition=bottom;verticalAlign=top;html=1;shape=mxgraph.basic.tick;fillColor=#000000;" vertex="1" parent="1">
          <mxGeometry x="4021" y="318" width="45" height="37" as="geometry" />
        </mxCell>
        <mxCell id="Y9CdEm4xqu9V9nbw5cVp-300" value="" style="edgeStyle=none;curved=1;rounded=0;orthogonalLoop=1;jettySize=auto;html=1;fontSize=12;startSize=8;endSize=8;" edge="1" parent="1" source="Y9CdEm4xqu9V9nbw5cVp-290" target="Y9CdEm4xqu9V9nbw5cVp-299">
          <mxGeometry relative="1" as="geometry" />
        </mxCell>
        <mxCell id="Y9CdEm4xqu9V9nbw5cVp-290" value="inicio" style="ellipse;whiteSpace=wrap;html=1;" vertex="1" parent="1">
          <mxGeometry x="-1152" y="30" width="120" height="80" as="geometry" />
        </mxCell>
        <mxCell id="Y9CdEm4xqu9V9nbw5cVp-296" value="entregar produto e receber o pagamento&amp;nbsp;" style="whiteSpace=wrap;html=1;" vertex="1" parent="1">
          <mxGeometry x="1140" y="2520.5" width="120" height="60" as="geometry" />
        </mxCell>
        <mxCell id="Y9CdEm4xqu9V9nbw5cVp-298" value="sim" style="text;html=1;align=center;verticalAlign=middle;whiteSpace=wrap;rounded=0;fontSize=16;" vertex="1" parent="1">
          <mxGeometry x="1304" y="2490.5" width="60" height="30" as="geometry" />
        </mxCell>
        <mxCell id="Y9CdEm4xqu9V9nbw5cVp-302" value="" style="edgeStyle=none;curved=1;rounded=0;orthogonalLoop=1;jettySize=auto;html=1;fontSize=12;startSize=8;endSize=8;" edge="1" parent="1" source="Y9CdEm4xqu9V9nbw5cVp-299" target="Y9CdEm4xqu9V9nbw5cVp-301">
          <mxGeometry relative="1" as="geometry" />
        </mxCell>
        <mxCell id="Y9CdEm4xqu9V9nbw5cVp-299" value="recebimento do pedido do corte" style="whiteSpace=wrap;html=1;" vertex="1" parent="1">
          <mxGeometry x="-1152" y="240" width="120" height="60" as="geometry" />
        </mxCell>
        <mxCell id="Y9CdEm4xqu9V9nbw5cVp-304" value="" style="edgeStyle=none;curved=1;rounded=0;orthogonalLoop=1;jettySize=auto;html=1;fontSize=12;startSize=8;endSize=8;" edge="1" parent="1" source="Y9CdEm4xqu9V9nbw5cVp-301" target="Y9CdEm4xqu9V9nbw5cVp-303">
          <mxGeometry relative="1" as="geometry" />
        </mxCell>
        <mxCell id="Y9CdEm4xqu9V9nbw5cVp-301" value="verificação do pedidos e do material" style="whiteSpace=wrap;html=1;" vertex="1" parent="1">
          <mxGeometry x="-1152" y="420" width="120" height="60" as="geometry" />
        </mxCell>
        <mxCell id="Y9CdEm4xqu9V9nbw5cVp-306" value="" style="edgeStyle=none;curved=1;rounded=0;orthogonalLoop=1;jettySize=auto;html=1;fontSize=12;startSize=8;endSize=8;" edge="1" parent="1" source="Y9CdEm4xqu9V9nbw5cVp-303" target="Y9CdEm4xqu9V9nbw5cVp-305">
          <mxGeometry relative="1" as="geometry" />
        </mxCell>
        <mxCell id="Y9CdEm4xqu9V9nbw5cVp-303" value="preparação do tecido&lt;span style=&quot;white-space: pre;&quot;&gt;&#x9;&lt;/span&gt;" style="whiteSpace=wrap;html=1;" vertex="1" parent="1">
          <mxGeometry x="-1152" y="600" width="120" height="60" as="geometry" />
        </mxCell>
        <mxCell id="Y9CdEm4xqu9V9nbw5cVp-308" value="" style="edgeStyle=none;curved=1;rounded=0;orthogonalLoop=1;jettySize=auto;html=1;fontSize=12;startSize=8;endSize=8;" edge="1" parent="1" source="Y9CdEm4xqu9V9nbw5cVp-305" target="Y9CdEm4xqu9V9nbw5cVp-307">
          <mxGeometry relative="1" as="geometry" />
        </mxCell>
        <mxCell id="Y9CdEm4xqu9V9nbw5cVp-305" value="verificação do tecido quanto a defeitos e alinhamento" style="whiteSpace=wrap;html=1;" vertex="1" parent="1">
          <mxGeometry x="-1152" y="780" width="120" height="60" as="geometry" />
        </mxCell>
        <mxCell id="Y9CdEm4xqu9V9nbw5cVp-310" value="" style="edgeStyle=none;curved=1;rounded=0;orthogonalLoop=1;jettySize=auto;html=1;fontSize=12;startSize=8;endSize=8;" edge="1" parent="1" source="Y9CdEm4xqu9V9nbw5cVp-307" target="Y9CdEm4xqu9V9nbw5cVp-309">
          <mxGeometry relative="1" as="geometry" />
        </mxCell>
        <mxCell id="Y9CdEm4xqu9V9nbw5cVp-307" value="marcação do corte conforme as ordens dadas" style="whiteSpace=wrap;html=1;" vertex="1" parent="1">
          <mxGeometry x="-1152" y="960" width="120" height="60" as="geometry" />
        </mxCell>
        <mxCell id="Y9CdEm4xqu9V9nbw5cVp-312" value="" style="edgeStyle=none;curved=1;rounded=0;orthogonalLoop=1;jettySize=auto;html=1;fontSize=12;startSize=8;endSize=8;" edge="1" parent="1" source="Y9CdEm4xqu9V9nbw5cVp-309" target="Y9CdEm4xqu9V9nbw5cVp-311">
          <mxGeometry relative="1" as="geometry" />
        </mxCell>
        <mxCell id="Y9CdEm4xqu9V9nbw5cVp-309" value="corte do tecidos" style="whiteSpace=wrap;html=1;" vertex="1" parent="1">
          <mxGeometry x="-1152" y="1140" width="120" height="60" as="geometry" />
        </mxCell>
        <mxCell id="Y9CdEm4xqu9V9nbw5cVp-314" value="" style="edgeStyle=none;curved=1;rounded=0;orthogonalLoop=1;jettySize=auto;html=1;fontSize=12;startSize=8;endSize=8;" edge="1" parent="1" source="Y9CdEm4xqu9V9nbw5cVp-311" target="Y9CdEm4xqu9V9nbw5cVp-313">
          <mxGeometry relative="1" as="geometry" />
        </mxCell>
        <mxCell id="Y9CdEm4xqu9V9nbw5cVp-311" value="separação dos cortes por pedido e etiquetagem" style="whiteSpace=wrap;html=1;" vertex="1" parent="1">
          <mxGeometry x="-1152" y="1320" width="120" height="60" as="geometry" />
        </mxCell>
        <mxCell id="Y9CdEm4xqu9V9nbw5cVp-316" value="" style="edgeStyle=none;curved=1;rounded=0;orthogonalLoop=1;jettySize=auto;html=1;fontSize=12;startSize=8;endSize=8;" edge="1" parent="1" source="Y9CdEm4xqu9V9nbw5cVp-313" target="Y9CdEm4xqu9V9nbw5cVp-315">
          <mxGeometry relative="1" as="geometry" />
        </mxCell>
        <mxCell id="Y9CdEm4xqu9V9nbw5cVp-313" value="embalagem dos cortes" style="whiteSpace=wrap;html=1;" vertex="1" parent="1">
          <mxGeometry x="-1152" y="1500" width="120" height="60" as="geometry" />
        </mxCell>
        <mxCell id="Y9CdEm4xqu9V9nbw5cVp-318" value="" style="edgeStyle=none;curved=1;rounded=0;orthogonalLoop=1;jettySize=auto;html=1;fontSize=12;startSize=8;endSize=8;" edge="1" parent="1" source="Y9CdEm4xqu9V9nbw5cVp-315" target="Y9CdEm4xqu9V9nbw5cVp-317">
          <mxGeometry relative="1" as="geometry" />
        </mxCell>
        <mxCell id="Y9CdEm4xqu9V9nbw5cVp-315" value="verificação final antes da expedição" style="whiteSpace=wrap;html=1;" vertex="1" parent="1">
          <mxGeometry x="-1152" y="1680" width="120" height="60" as="geometry" />
        </mxCell>
        <mxCell id="Y9CdEm4xqu9V9nbw5cVp-320" value="" style="edgeStyle=none;curved=1;rounded=0;orthogonalLoop=1;jettySize=auto;html=1;fontSize=12;startSize=8;endSize=8;" edge="1" parent="1" source="Y9CdEm4xqu9V9nbw5cVp-317" target="Y9CdEm4xqu9V9nbw5cVp-319">
          <mxGeometry relative="1" as="geometry" />
        </mxCell>
        <mxCell id="Y9CdEm4xqu9V9nbw5cVp-317" value="envio para expedição" style="whiteSpace=wrap;html=1;" vertex="1" parent="1">
          <mxGeometry x="-1152" y="1860" width="120" height="60" as="geometry" />
        </mxCell>
        <mxCell id="Y9CdEm4xqu9V9nbw5cVp-319" value="fim" style="ellipse;whiteSpace=wrap;html=1;" vertex="1" parent="1">
          <mxGeometry x="-1132" y="2030" width="80" height="80" as="geometry" />
        </mxCell>
        <mxCell id="Y9CdEm4xqu9V9nbw5cVp-321" value="corte de tecidos resumido" style="text;html=1;align=center;verticalAlign=middle;whiteSpace=wrap;rounded=0;fontSize=16;" vertex="1" parent="1">
          <mxGeometry x="-1129" y="-55" width="60" height="30" as="geometry" />
        </mxCell>
        <mxCell id="Y9CdEm4xqu9V9nbw5cVp-326" value="" style="edgeStyle=none;curved=1;rounded=0;orthogonalLoop=1;jettySize=auto;html=1;fontSize=12;startSize=8;endSize=8;" edge="1" parent="1" source="Y9CdEm4xqu9V9nbw5cVp-324">
          <mxGeometry relative="1" as="geometry">
            <mxPoint x="-922" y="3656" as="targetPoint" />
          </mxGeometry>
        </mxCell>
        <mxCell id="Y9CdEm4xqu9V9nbw5cVp-324" value="inicio" style="ellipse;whiteSpace=wrap;html=1;" vertex="1" parent="1">
          <mxGeometry x="-982" y="3446" width="120" height="80" as="geometry" />
        </mxCell>
        <mxCell id="Y9CdEm4xqu9V9nbw5cVp-340" value="" style="edgeStyle=none;curved=1;rounded=0;orthogonalLoop=1;jettySize=auto;html=1;fontSize=12;startSize=8;endSize=8;" edge="1" parent="1" source="Y9CdEm4xqu9V9nbw5cVp-338" target="Y9CdEm4xqu9V9nbw5cVp-339">
          <mxGeometry relative="1" as="geometry" />
        </mxCell>
        <mxCell id="Y9CdEm4xqu9V9nbw5cVp-338" value="recebimento de materiais" style="rounded=1;whiteSpace=wrap;html=1;" vertex="1" parent="1">
          <mxGeometry x="-982" y="3654" width="120" height="60" as="geometry" />
        </mxCell>
        <mxCell id="Y9CdEm4xqu9V9nbw5cVp-342" value="" style="edgeStyle=none;curved=1;rounded=0;orthogonalLoop=1;jettySize=auto;html=1;fontSize=12;startSize=8;endSize=8;" edge="1" parent="1" source="Y9CdEm4xqu9V9nbw5cVp-339" target="Y9CdEm4xqu9V9nbw5cVp-341">
          <mxGeometry relative="1" as="geometry" />
        </mxCell>
        <mxCell id="Y9CdEm4xqu9V9nbw5cVp-354" value="" style="edgeStyle=none;curved=1;rounded=0;orthogonalLoop=1;jettySize=auto;html=1;fontSize=12;startSize=8;endSize=8;" edge="1" parent="1" source="Y9CdEm4xqu9V9nbw5cVp-339" target="Y9CdEm4xqu9V9nbw5cVp-353">
          <mxGeometry relative="1" as="geometry" />
        </mxCell>
        <mxCell id="Y9CdEm4xqu9V9nbw5cVp-366" value="" style="edgeStyle=none;curved=1;rounded=0;orthogonalLoop=1;jettySize=auto;html=1;fontSize=12;startSize=8;endSize=8;" edge="1" parent="1" source="Y9CdEm4xqu9V9nbw5cVp-339" target="Y9CdEm4xqu9V9nbw5cVp-365">
          <mxGeometry relative="1" as="geometry" />
        </mxCell>
        <mxCell id="Y9CdEm4xqu9V9nbw5cVp-339" value="inspeção inicial" style="whiteSpace=wrap;html=1;rounded=1;" vertex="1" parent="1">
          <mxGeometry x="-982" y="3834" width="120" height="60" as="geometry" />
        </mxCell>
        <mxCell id="Y9CdEm4xqu9V9nbw5cVp-344" value="" style="edgeStyle=none;curved=1;rounded=0;orthogonalLoop=1;jettySize=auto;html=1;fontSize=12;startSize=8;endSize=8;" edge="1" parent="1" source="Y9CdEm4xqu9V9nbw5cVp-341" target="Y9CdEm4xqu9V9nbw5cVp-343">
          <mxGeometry relative="1" as="geometry" />
        </mxCell>
        <mxCell id="Y9CdEm4xqu9V9nbw5cVp-341" value="danos maiores" style="whiteSpace=wrap;html=1;rounded=1;" vertex="1" parent="1">
          <mxGeometry x="-982" y="4014" width="120" height="60" as="geometry" />
        </mxCell>
        <mxCell id="Y9CdEm4xqu9V9nbw5cVp-346" value="" style="edgeStyle=none;curved=1;rounded=0;orthogonalLoop=1;jettySize=auto;html=1;fontSize=12;startSize=8;endSize=8;" edge="1" parent="1" source="Y9CdEm4xqu9V9nbw5cVp-343" target="Y9CdEm4xqu9V9nbw5cVp-345">
          <mxGeometry relative="1" as="geometry" />
        </mxCell>
        <mxCell id="Y9CdEm4xqu9V9nbw5cVp-343" value="reparo externo" style="whiteSpace=wrap;html=1;rounded=1;" vertex="1" parent="1">
          <mxGeometry x="-982" y="4194" width="120" height="60" as="geometry" />
        </mxCell>
        <mxCell id="Y9CdEm4xqu9V9nbw5cVp-348" value="" style="edgeStyle=none;curved=1;rounded=0;orthogonalLoop=1;jettySize=auto;html=1;fontSize=12;startSize=8;endSize=8;" edge="1" parent="1" source="Y9CdEm4xqu9V9nbw5cVp-345" target="Y9CdEm4xqu9V9nbw5cVp-347">
          <mxGeometry relative="1" as="geometry" />
        </mxCell>
        <mxCell id="Y9CdEm4xqu9V9nbw5cVp-345" value="aguardar retorno" style="whiteSpace=wrap;html=1;rounded=1;" vertex="1" parent="1">
          <mxGeometry x="-982" y="4374" width="120" height="60" as="geometry" />
        </mxCell>
        <mxCell id="Y9CdEm4xqu9V9nbw5cVp-349" style="edgeStyle=none;curved=1;rounded=0;orthogonalLoop=1;jettySize=auto;html=1;exitX=0;exitY=1;exitDx=0;exitDy=0;fontSize=12;startSize=8;endSize=8;" edge="1" parent="1" source="Y9CdEm4xqu9V9nbw5cVp-347" target="Y9CdEm4xqu9V9nbw5cVp-350">
          <mxGeometry relative="1" as="geometry">
            <mxPoint x="-1096.7619047619048" y="4695.142857142857" as="targetPoint" />
          </mxGeometry>
        </mxCell>
        <mxCell id="Y9CdEm4xqu9V9nbw5cVp-351" style="edgeStyle=none;curved=1;rounded=0;orthogonalLoop=1;jettySize=auto;html=1;exitX=1;exitY=1;exitDx=0;exitDy=0;fontSize=12;startSize=8;endSize=8;" edge="1" parent="1" source="Y9CdEm4xqu9V9nbw5cVp-347" target="Y9CdEm4xqu9V9nbw5cVp-352">
          <mxGeometry relative="1" as="geometry">
            <mxPoint x="-723.4285714285716" y="4687.523809523809" as="targetPoint" />
          </mxGeometry>
        </mxCell>
        <mxCell id="Y9CdEm4xqu9V9nbw5cVp-347" value="inspeção após reparo" style="whiteSpace=wrap;html=1;rounded=1;" vertex="1" parent="1">
          <mxGeometry x="-982" y="4554" width="120" height="60" as="geometry" />
        </mxCell>
        <mxCell id="Y9CdEm4xqu9V9nbw5cVp-350" value="enviar para estoque ou para distribuição" style="rounded=1;whiteSpace=wrap;html=1;" vertex="1" parent="1">
          <mxGeometry x="-1238.0019047619048" y="4696.002857142857" width="120" height="60" as="geometry" />
        </mxCell>
        <mxCell id="Y9CdEm4xqu9V9nbw5cVp-352" value="reclassificar como irreparável" style="rounded=1;whiteSpace=wrap;html=1;" vertex="1" parent="1">
          <mxGeometry x="-730.9985714285716" y="4696.003809523809" width="120" height="60" as="geometry" />
        </mxCell>
        <mxCell id="Y9CdEm4xqu9V9nbw5cVp-356" value="" style="edgeStyle=none;curved=1;rounded=0;orthogonalLoop=1;jettySize=auto;html=1;fontSize=12;startSize=8;endSize=8;" edge="1" parent="1" source="Y9CdEm4xqu9V9nbw5cVp-353" target="Y9CdEm4xqu9V9nbw5cVp-355">
          <mxGeometry relative="1" as="geometry" />
        </mxCell>
        <mxCell id="Y9CdEm4xqu9V9nbw5cVp-353" value="danos menores" style="whiteSpace=wrap;html=1;rounded=1;" vertex="1" parent="1">
          <mxGeometry x="-1222" y="3834" width="120" height="60" as="geometry" />
        </mxCell>
        <mxCell id="Y9CdEm4xqu9V9nbw5cVp-358" value="" style="edgeStyle=none;curved=1;rounded=0;orthogonalLoop=1;jettySize=auto;html=1;fontSize=12;startSize=8;endSize=8;" edge="1" parent="1" source="Y9CdEm4xqu9V9nbw5cVp-355" target="Y9CdEm4xqu9V9nbw5cVp-357">
          <mxGeometry relative="1" as="geometry" />
        </mxCell>
        <mxCell id="Y9CdEm4xqu9V9nbw5cVp-355" value="reparo interno" style="whiteSpace=wrap;html=1;rounded=1;" vertex="1" parent="1">
          <mxGeometry x="-1462" y="3834" width="120" height="60" as="geometry" />
        </mxCell>
        <mxCell id="Y9CdEm4xqu9V9nbw5cVp-360" value="" style="edgeStyle=none;curved=1;rounded=0;orthogonalLoop=1;jettySize=auto;html=1;fontSize=12;startSize=8;endSize=8;" edge="1" parent="1" source="Y9CdEm4xqu9V9nbw5cVp-357" target="Y9CdEm4xqu9V9nbw5cVp-359">
          <mxGeometry relative="1" as="geometry" />
        </mxCell>
        <mxCell id="Y9CdEm4xqu9V9nbw5cVp-357" value="reavaliar" style="whiteSpace=wrap;html=1;rounded=1;" vertex="1" parent="1">
          <mxGeometry x="-1462" y="4014" width="120" height="60" as="geometry" />
        </mxCell>
        <mxCell id="Y9CdEm4xqu9V9nbw5cVp-362" value="" style="edgeStyle=none;curved=1;rounded=0;orthogonalLoop=1;jettySize=auto;html=1;fontSize=12;startSize=8;endSize=8;" edge="1" parent="1" source="Y9CdEm4xqu9V9nbw5cVp-359" target="Y9CdEm4xqu9V9nbw5cVp-361">
          <mxGeometry relative="1" as="geometry" />
        </mxCell>
        <mxCell id="Y9CdEm4xqu9V9nbw5cVp-363" style="edgeStyle=none;curved=1;rounded=0;orthogonalLoop=1;jettySize=auto;html=1;exitX=0;exitY=1;exitDx=0;exitDy=0;fontSize=12;startSize=8;endSize=8;" edge="1" parent="1" source="Y9CdEm4xqu9V9nbw5cVp-359" target="Y9CdEm4xqu9V9nbw5cVp-364">
          <mxGeometry relative="1" as="geometry">
            <mxPoint x="-1771.047619047619" y="4442.761904761905" as="targetPoint" />
          </mxGeometry>
        </mxCell>
        <mxCell id="Y9CdEm4xqu9V9nbw5cVp-359" value="reavaliar" style="whiteSpace=wrap;html=1;rounded=1;" vertex="1" parent="1">
          <mxGeometry x="-1462" y="4194" width="120" height="60" as="geometry" />
        </mxCell>
        <mxCell id="Y9CdEm4xqu9V9nbw5cVp-361" value="reclassificar como dano maior" style="whiteSpace=wrap;html=1;rounded=1;" vertex="1" parent="1">
          <mxGeometry x="-1462" y="4374" width="120" height="60" as="geometry" />
        </mxCell>
        <mxCell id="Y9CdEm4xqu9V9nbw5cVp-364" value="enviar para estoque ou para distribuição" style="rounded=1;whiteSpace=wrap;html=1;" vertex="1" parent="1">
          <mxGeometry x="-1761.997619047619" y="4374.001904761904" width="120" height="60" as="geometry" />
        </mxCell>
        <mxCell id="Y9CdEm4xqu9V9nbw5cVp-368" value="" style="edgeStyle=none;curved=1;rounded=0;orthogonalLoop=1;jettySize=auto;html=1;fontSize=12;startSize=8;endSize=8;" edge="1" parent="1" source="Y9CdEm4xqu9V9nbw5cVp-365" target="Y9CdEm4xqu9V9nbw5cVp-367">
          <mxGeometry relative="1" as="geometry" />
        </mxCell>
        <mxCell id="Y9CdEm4xqu9V9nbw5cVp-365" value="danos irreparáveis" style="whiteSpace=wrap;html=1;rounded=1;" vertex="1" parent="1">
          <mxGeometry x="-742" y="3834" width="120" height="60" as="geometry" />
        </mxCell>
        <mxCell id="Y9CdEm4xqu9V9nbw5cVp-370" value="" style="edgeStyle=none;curved=1;rounded=0;orthogonalLoop=1;jettySize=auto;html=1;fontSize=12;startSize=8;endSize=8;" edge="1" parent="1" source="Y9CdEm4xqu9V9nbw5cVp-367" target="Y9CdEm4xqu9V9nbw5cVp-369">
          <mxGeometry relative="1" as="geometry" />
        </mxCell>
        <mxCell id="Y9CdEm4xqu9V9nbw5cVp-371" style="edgeStyle=none;curved=1;rounded=0;orthogonalLoop=1;jettySize=auto;html=1;exitX=1;exitY=1;exitDx=0;exitDy=0;fontSize=12;startSize=8;endSize=8;" edge="1" parent="1" source="Y9CdEm4xqu9V9nbw5cVp-367" target="Y9CdEm4xqu9V9nbw5cVp-372">
          <mxGeometry relative="1" as="geometry">
            <mxPoint x="-203.76190476190504" y="4008.47619047619" as="targetPoint" />
          </mxGeometry>
        </mxCell>
        <mxCell id="Y9CdEm4xqu9V9nbw5cVp-373" style="edgeStyle=none;curved=1;rounded=0;orthogonalLoop=1;jettySize=auto;html=1;exitX=0;exitY=1;exitDx=0;exitDy=0;fontSize=12;startSize=8;endSize=8;" edge="1" parent="1" source="Y9CdEm4xqu9V9nbw5cVp-367" target="Y9CdEm4xqu9V9nbw5cVp-374">
          <mxGeometry relative="1" as="geometry">
            <mxPoint x="-651.3809523809523" y="4021.809523809524" as="targetPoint" />
          </mxGeometry>
        </mxCell>
        <mxCell id="Y9CdEm4xqu9V9nbw5cVp-367" value="destinação final" style="whiteSpace=wrap;html=1;rounded=1;" vertex="1" parent="1">
          <mxGeometry x="-502" y="3834" width="120" height="60" as="geometry" />
        </mxCell>
        <mxCell id="Y9CdEm4xqu9V9nbw5cVp-369" value="doação" style="whiteSpace=wrap;html=1;rounded=1;" vertex="1" parent="1">
          <mxGeometry x="-502" y="4014" width="120" height="60" as="geometry" />
        </mxCell>
        <mxCell id="Y9CdEm4xqu9V9nbw5cVp-372" value="descarte" style="rounded=1;whiteSpace=wrap;html=1;" vertex="1" parent="1">
          <mxGeometry x="-280.50190476190505" y="4013.99619047619" width="120" height="60" as="geometry" />
        </mxCell>
        <mxCell id="Y9CdEm4xqu9V9nbw5cVp-374" value="reciclagem" style="rounded=1;whiteSpace=wrap;html=1;" vertex="1" parent="1">
          <mxGeometry x="-727.0009523809523" y="4013.999523809524" width="120" height="60" as="geometry" />
        </mxCell>
        <mxCell id="Y9CdEm4xqu9V9nbw5cVp-375" value="não reparavel" style="text;html=1;align=center;verticalAlign=middle;whiteSpace=wrap;rounded=0;fontSize=16;" vertex="1" parent="1">
          <mxGeometry x="-1362" y="4288" width="151" height="30" as="geometry" />
        </mxCell>
        <mxCell id="Y9CdEm4xqu9V9nbw5cVp-376" value="reparo com sucesso" style="text;html=1;align=center;verticalAlign=middle;whiteSpace=wrap;rounded=0;fontSize=16;" vertex="1" parent="1">
          <mxGeometry x="-1702" y="4250" width="158" height="30" as="geometry" />
        </mxCell>
        <mxCell id="Y9CdEm4xqu9V9nbw5cVp-377" value="reparar e avaliar" style="text;html=1;align=center;verticalAlign=middle;whiteSpace=wrap;rounded=0;fontSize=16;" vertex="1" parent="1">
          <mxGeometry x="-1638" y="3849" width="139" height="30" as="geometry" />
        </mxCell>
        <mxCell id="Y9CdEm4xqu9V9nbw5cVp-378" value="enviar para reparo externo" style="text;html=1;align=center;verticalAlign=middle;whiteSpace=wrap;rounded=0;fontSize=16;" vertex="1" parent="1">
          <mxGeometry x="-887" y="4291" width="233" height="30" as="geometry" />
        </mxCell>
        <mxCell id="Y9CdEm4xqu9V9nbw5cVp-379" value="retorno após reparo" style="text;html=1;align=center;verticalAlign=middle;whiteSpace=wrap;rounded=0;fontSize=16;" vertex="1" parent="1">
          <mxGeometry x="-876" y="4479" width="151" height="30" as="geometry" />
        </mxCell>
        <mxCell id="Y9CdEm4xqu9V9nbw5cVp-380" value="reparo com sucesso" style="text;html=1;align=center;verticalAlign=middle;whiteSpace=wrap;rounded=0;fontSize=16;" vertex="1" parent="1">
          <mxGeometry x="-1240" y="4614" width="156" height="30" as="geometry" />
        </mxCell>
        <mxCell id="Y9CdEm4xqu9V9nbw5cVp-381" value="não reparável" style="text;html=1;align=center;verticalAlign=middle;whiteSpace=wrap;rounded=0;fontSize=16;" vertex="1" parent="1">
          <mxGeometry x="-680" y="4614" width="121" height="30" as="geometry" />
        </mxCell>
        <mxCell id="Y9CdEm4xqu9V9nbw5cVp-382" value="&lt;span style=&quot;font-size: 12px;&quot;&gt;enviar para estoque ou para distribuição&lt;/span&gt;" style="text;html=1;align=center;verticalAlign=middle;whiteSpace=wrap;rounded=0;fontSize=16;" vertex="1" parent="1">
          <mxGeometry x="-1081" y="3374" width="318" height="30" as="geometry" />
        </mxCell>
        <mxCell id="Y9CdEm4xqu9V9nbw5cVp-383" value="" style="rounded=1;whiteSpace=wrap;html=1;rotation=90;fillColor=#000000;strokeWidth=4;strokeColor=#FF0000;" vertex="1" parent="1">
          <mxGeometry x="2764.75" y="675.25" width="469" height="378.5" as="geometry" />
        </mxCell>
        <mxCell id="Y9CdEm4xqu9V9nbw5cVp-384" value="Sistema de Despache de Roupas e Tecidos Danificados" style="rounded=0;whiteSpace=wrap;html=1;" vertex="1" parent="1">
          <mxGeometry x="2834" y="640" width="322" height="20" as="geometry" />
        </mxCell>
        <mxCell id="Y9CdEm4xqu9V9nbw5cVp-385" value="entrar" style="rounded=0;whiteSpace=wrap;html=1;" vertex="1" parent="1">
          <mxGeometry x="2969.5" y="1077" width="60" height="20" as="geometry" />
        </mxCell>
        <mxCell id="Y9CdEm4xqu9V9nbw5cVp-386" value="" style="rounded=1;whiteSpace=wrap;html=1;" vertex="1" parent="1">
          <mxGeometry x="2820" y="680" width="359" height="392" as="geometry" />
        </mxCell>
        <mxCell id="Y9CdEm4xqu9V9nbw5cVp-387" value="" style="rounded=1;whiteSpace=wrap;html=1;fillColor=#000000;" vertex="1" parent="1">
          <mxGeometry x="2850" y="700" width="301" height="349" as="geometry" />
        </mxCell>
        <mxCell id="Y9CdEm4xqu9V9nbw5cVp-388" value="recebimento" style="rounded=0;whiteSpace=wrap;html=1;" vertex="1" parent="1">
          <mxGeometry x="2859" y="720" width="86" height="20" as="geometry" />
        </mxCell>
        <mxCell id="Y9CdEm4xqu9V9nbw5cVp-390" value="inspeção" style="rounded=0;whiteSpace=wrap;html=1;" vertex="1" parent="1">
          <mxGeometry x="2853" y="780.5" width="80" height="20" as="geometry" />
        </mxCell>
        <mxCell id="Y9CdEm4xqu9V9nbw5cVp-392" value="reparo interno" style="rounded=0;whiteSpace=wrap;html=1;" vertex="1" parent="1">
          <mxGeometry x="2853" y="835" width="84" height="20" as="geometry" />
        </mxCell>
        <mxCell id="Y9CdEm4xqu9V9nbw5cVp-394" value="reparo externo" style="rounded=0;whiteSpace=wrap;html=1;" vertex="1" parent="1">
          <mxGeometry x="2853" y="889" width="93" height="20" as="geometry" />
        </mxCell>
        <mxCell id="Y9CdEm4xqu9V9nbw5cVp-397" value="&amp;nbsp;Destinação Final" style="rounded=0;whiteSpace=wrap;html=1;" vertex="1" parent="1">
          <mxGeometry x="2855.5" y="940" width="128.5" height="20" as="geometry" />
        </mxCell>
        <mxCell id="Y9CdEm4xqu9V9nbw5cVp-398" value="" style="rounded=1;whiteSpace=wrap;html=1;rotation=90;fillColor=#000000;strokeWidth=4;strokeColor=#FF0000;" vertex="1" parent="1">
          <mxGeometry x="3282" y="675.25" width="469" height="378.5" as="geometry" />
        </mxCell>
        <mxCell id="Y9CdEm4xqu9V9nbw5cVp-399" value="materiais recebidos." style="rounded=0;whiteSpace=wrap;html=1;" vertex="1" parent="1">
          <mxGeometry x="3351.25" y="640" width="322" height="20" as="geometry" />
        </mxCell>
        <mxCell id="Y9CdEm4xqu9V9nbw5cVp-400" value="Registrar Recebimento" style="rounded=0;whiteSpace=wrap;html=1;" vertex="1" parent="1">
          <mxGeometry x="3430" y="1077" width="176" height="20" as="geometry" />
        </mxCell>
        <mxCell id="Y9CdEm4xqu9V9nbw5cVp-401" value="" style="rounded=1;whiteSpace=wrap;html=1;" vertex="1" parent="1">
          <mxGeometry x="3337.25" y="680" width="359" height="392" as="geometry" />
        </mxCell>
        <mxCell id="Y9CdEm4xqu9V9nbw5cVp-402" value="" style="rounded=1;whiteSpace=wrap;html=1;fillColor=#000000;" vertex="1" parent="1">
          <mxGeometry x="3367.25" y="700" width="301" height="349" as="geometry" />
        </mxCell>
        <mxCell id="Y9CdEm4xqu9V9nbw5cVp-403" value="ID do Item" style="rounded=0;whiteSpace=wrap;html=1;" vertex="1" parent="1">
          <mxGeometry x="3376.25" y="720" width="86" height="20" as="geometry" />
        </mxCell>
        <mxCell id="Y9CdEm4xqu9V9nbw5cVp-404" value="Descrição" style="rounded=0;whiteSpace=wrap;html=1;" vertex="1" parent="1">
          <mxGeometry x="3370.25" y="780.5" width="80" height="20" as="geometry" />
        </mxCell>
        <mxCell id="Y9CdEm4xqu9V9nbw5cVp-405" value="Data de Recebimento" style="rounded=0;whiteSpace=wrap;html=1;" vertex="1" parent="1">
          <mxGeometry x="3370.25" y="835" width="133.75" height="20" as="geometry" />
        </mxCell>
        <mxCell id="Y9CdEm4xqu9V9nbw5cVp-406" value="Quantidade" style="rounded=0;whiteSpace=wrap;html=1;" vertex="1" parent="1">
          <mxGeometry x="3370.25" y="889" width="93" height="20" as="geometry" />
        </mxCell>
        <mxCell id="Y9CdEm4xqu9V9nbw5cVp-408" value="" style="rounded=1;whiteSpace=wrap;html=1;rotation=90;fillColor=#000000;strokeWidth=4;strokeColor=#FF0000;" vertex="1" parent="1">
          <mxGeometry x="3896" y="681.25" width="469" height="378.5" as="geometry" />
        </mxCell>
        <mxCell id="Y9CdEm4xqu9V9nbw5cVp-409" value="Registrar Recebimento" style="rounded=0;whiteSpace=wrap;html=1;" vertex="1" parent="1">
          <mxGeometry x="3965.25" y="646" width="322" height="20" as="geometry" />
        </mxCell>
        <mxCell id="Y9CdEm4xqu9V9nbw5cVp-410" value="Inspecionar Item" style="rounded=0;whiteSpace=wrap;html=1;" vertex="1" parent="1">
          <mxGeometry x="4044" y="1083" width="176" height="20" as="geometry" />
        </mxCell>
        <mxCell id="Y9CdEm4xqu9V9nbw5cVp-411" value="" style="rounded=1;whiteSpace=wrap;html=1;" vertex="1" parent="1">
          <mxGeometry x="3951.25" y="686" width="359" height="392" as="geometry" />
        </mxCell>
        <mxCell id="Y9CdEm4xqu9V9nbw5cVp-412" value="" style="rounded=1;whiteSpace=wrap;html=1;fillColor=#000000;" vertex="1" parent="1">
          <mxGeometry x="3981.25" y="706" width="301" height="349" as="geometry" />
        </mxCell>
        <mxCell id="Y9CdEm4xqu9V9nbw5cVp-413" value="ID do Item" style="rounded=0;whiteSpace=wrap;html=1;" vertex="1" parent="1">
          <mxGeometry x="3990.25" y="726" width="86" height="20" as="geometry" />
        </mxCell>
        <mxCell id="Y9CdEm4xqu9V9nbw5cVp-414" value="Descrição" style="rounded=0;whiteSpace=wrap;html=1;" vertex="1" parent="1">
          <mxGeometry x="3984.25" y="786.5" width="80" height="20" as="geometry" />
        </mxCell>
        <mxCell id="Y9CdEm4xqu9V9nbw5cVp-416" value="status do item" style="rounded=0;whiteSpace=wrap;html=1;" vertex="1" parent="1">
          <mxGeometry x="3986.75" y="846" width="93" height="20" as="geometry" />
        </mxCell>
        <mxCell id="Y9CdEm4xqu9V9nbw5cVp-417" value="" style="rounded=1;whiteSpace=wrap;html=1;rotation=90;fillColor=#000000;strokeWidth=4;strokeColor=#FF0000;" vertex="1" parent="1">
          <mxGeometry x="2769" y="1242.25" width="469" height="378.5" as="geometry" />
        </mxCell>
        <mxCell id="Y9CdEm4xqu9V9nbw5cVp-418" value="Classificação dos Danos" style="rounded=0;whiteSpace=wrap;html=1;" vertex="1" parent="1">
          <mxGeometry x="2838.25" y="1207" width="322" height="20" as="geometry" />
        </mxCell>
        <mxCell id="Y9CdEm4xqu9V9nbw5cVp-420" value="" style="rounded=1;whiteSpace=wrap;html=1;" vertex="1" parent="1">
          <mxGeometry x="2824.25" y="1247" width="359" height="392" as="geometry" />
        </mxCell>
        <mxCell id="Y9CdEm4xqu9V9nbw5cVp-421" value="" style="rounded=1;whiteSpace=wrap;html=1;fillColor=#000000;" vertex="1" parent="1">
          <mxGeometry x="2854.25" y="1267" width="301" height="349" as="geometry" />
        </mxCell>
        <mxCell id="Y9CdEm4xqu9V9nbw5cVp-422" value="Descrição dos danos." style="rounded=0;whiteSpace=wrap;html=1;" vertex="1" parent="1">
          <mxGeometry x="2863.25" y="1287" width="283.75" height="20" as="geometry" />
        </mxCell>
        <mxCell id="Y9CdEm4xqu9V9nbw5cVp-423" value="Danos Menores" style="rounded=0;whiteSpace=wrap;html=1;" vertex="1" parent="1">
          <mxGeometry x="2945.38" y="1349.5" width="118.75" height="20" as="geometry" />
        </mxCell>
        <mxCell id="Y9CdEm4xqu9V9nbw5cVp-424" value="Danos Maiores" style="rounded=0;whiteSpace=wrap;html=1;" vertex="1" parent="1">
          <mxGeometry x="2958.25" y="1406" width="93.75" height="20" as="geometry" />
        </mxCell>
        <mxCell id="Y9CdEm4xqu9V9nbw5cVp-425" value="Danos Irreparáveis" style="rounded=0;whiteSpace=wrap;html=1;" vertex="1" parent="1">
          <mxGeometry x="2941.25" y="1463" width="127.75" height="20" as="geometry" />
        </mxCell>
        <mxCell id="Y9CdEm4xqu9V9nbw5cVp-429" value="" style="rounded=1;whiteSpace=wrap;html=1;rotation=90;fillColor=#000000;strokeWidth=4;strokeColor=#FF0000;" vertex="1" parent="1">
          <mxGeometry x="3331" y="1238.25" width="469" height="378.5" as="geometry" />
        </mxCell>
        <mxCell id="Y9CdEm4xqu9V9nbw5cVp-430" value=" Reparo Interno (Danos Menores)" style="rounded=0;whiteSpace=wrap;html=1;" vertex="1" parent="1">
          <mxGeometry x="3400.25" y="1203" width="322" height="20" as="geometry" />
        </mxCell>
        <mxCell id="Y9CdEm4xqu9V9nbw5cVp-431" value="" style="rounded=1;whiteSpace=wrap;html=1;" vertex="1" parent="1">
          <mxGeometry x="3386.25" y="1243" width="359" height="392" as="geometry" />
        </mxCell>
        <mxCell id="Y9CdEm4xqu9V9nbw5cVp-432" value="" style="rounded=1;whiteSpace=wrap;html=1;fillColor=#000000;" vertex="1" parent="1">
          <mxGeometry x="3416.25" y="1263" width="301" height="349" as="geometry" />
        </mxCell>
        <mxCell id="Y9CdEm4xqu9V9nbw5cVp-434" value="ID do Item" style="rounded=0;whiteSpace=wrap;html=1;" vertex="1" parent="1">
          <mxGeometry x="3433" y="1302" width="118.75" height="20" as="geometry" />
        </mxCell>
        <mxCell id="Y9CdEm4xqu9V9nbw5cVp-435" value="Descrição" style="rounded=0;whiteSpace=wrap;html=1;" vertex="1" parent="1">
          <mxGeometry x="3445.5" y="1349.5" width="93.75" height="20" as="geometry" />
        </mxCell>
        <mxCell id="Y9CdEm4xqu9V9nbw5cVp-436" value="Status do item" style="rounded=0;whiteSpace=wrap;html=1;" vertex="1" parent="1">
          <mxGeometry x="3428.5" y="1406" width="127.75" height="20" as="geometry" />
        </mxCell>
        <mxCell id="Y9CdEm4xqu9V9nbw5cVp-445" value="" style="rounded=0;whiteSpace=wrap;html=1;" vertex="1" parent="1">
          <mxGeometry x="3565" y="1302" width="127.75" height="20" as="geometry" />
        </mxCell>
        <mxCell id="Y9CdEm4xqu9V9nbw5cVp-446" value="" style="rounded=0;whiteSpace=wrap;html=1;" vertex="1" parent="1">
          <mxGeometry x="3554.5" y="1349.5" width="144.5" height="20" as="geometry" />
        </mxCell>
        <mxCell id="Y9CdEm4xqu9V9nbw5cVp-447" value="" style="rounded=0;whiteSpace=wrap;html=1;" vertex="1" parent="1">
          <mxGeometry x="3565" y="1406" width="142" height="20" as="geometry" />
        </mxCell>
        <mxCell id="Y9CdEm4xqu9V9nbw5cVp-448" value="" style="rounded=1;whiteSpace=wrap;html=1;rotation=90;fillColor=#000000;strokeWidth=4;strokeColor=#FF0000;" vertex="1" parent="1">
          <mxGeometry x="3878" y="1236.5" width="469" height="378.5" as="geometry" />
        </mxCell>
        <mxCell id="Y9CdEm4xqu9V9nbw5cVp-449" value=" Reparo Externo (Danos Maiores)" style="rounded=0;whiteSpace=wrap;html=1;" vertex="1" parent="1">
          <mxGeometry x="3947.25" y="1201.25" width="322" height="20" as="geometry" />
        </mxCell>
        <mxCell id="Y9CdEm4xqu9V9nbw5cVp-450" value="" style="rounded=1;whiteSpace=wrap;html=1;" vertex="1" parent="1">
          <mxGeometry x="3933.25" y="1241.25" width="359" height="392" as="geometry" />
        </mxCell>
        <mxCell id="Y9CdEm4xqu9V9nbw5cVp-451" value="" style="rounded=1;whiteSpace=wrap;html=1;fillColor=#000000;" vertex="1" parent="1">
          <mxGeometry x="3963.25" y="1261.25" width="301" height="349" as="geometry" />
        </mxCell>
        <mxCell id="Y9CdEm4xqu9V9nbw5cVp-452" value="ID do Item" style="rounded=0;whiteSpace=wrap;html=1;" vertex="1" parent="1">
          <mxGeometry x="3980" y="1300.25" width="118.75" height="20" as="geometry" />
        </mxCell>
        <mxCell id="Y9CdEm4xqu9V9nbw5cVp-453" value="Descrição" style="rounded=0;whiteSpace=wrap;html=1;" vertex="1" parent="1">
          <mxGeometry x="3992.5" y="1347.75" width="93.75" height="20" as="geometry" />
        </mxCell>
        <mxCell id="Y9CdEm4xqu9V9nbw5cVp-454" value="Status do item" style="rounded=0;whiteSpace=wrap;html=1;" vertex="1" parent="1">
          <mxGeometry x="3975.5" y="1404.25" width="127.75" height="20" as="geometry" />
        </mxCell>
        <mxCell id="Y9CdEm4xqu9V9nbw5cVp-455" value="" style="rounded=0;whiteSpace=wrap;html=1;" vertex="1" parent="1">
          <mxGeometry x="4112" y="1300.25" width="127.75" height="20" as="geometry" />
        </mxCell>
        <mxCell id="Y9CdEm4xqu9V9nbw5cVp-456" value="" style="rounded=0;whiteSpace=wrap;html=1;" vertex="1" parent="1">
          <mxGeometry x="4101.5" y="1347.75" width="144.5" height="20" as="geometry" />
        </mxCell>
        <mxCell id="Y9CdEm4xqu9V9nbw5cVp-457" value="" style="rounded=0;whiteSpace=wrap;html=1;" vertex="1" parent="1">
          <mxGeometry x="4112" y="1404.25" width="142" height="20" as="geometry" />
        </mxCell>
        <mxCell id="Y9CdEm4xqu9V9nbw5cVp-458" value="Registrar Reparo" style="rounded=0;whiteSpace=wrap;html=1;" vertex="1" parent="1">
          <mxGeometry x="4025.75" y="1641.75" width="176" height="20" as="geometry" />
        </mxCell>
        <mxCell id="Y9CdEm4xqu9V9nbw5cVp-459" value="Registrar Reparo" style="rounded=0;whiteSpace=wrap;html=1;" vertex="1" parent="1">
          <mxGeometry x="3463.25" y="1643.5" width="176" height="20" as="geometry" />
        </mxCell>
        <mxCell id="Y9CdEm4xqu9V9nbw5cVp-460" value="&lt;font color=&quot;#ffffff&quot;&gt;Enviar para Reparo Externo&lt;/font&gt;" style="rounded=1;whiteSpace=wrap;html=1;fillColor=#000000;" vertex="1" parent="1">
          <mxGeometry x="4000" y="1612" width="228" height="19" as="geometry" />
        </mxCell>
        <mxCell id="Y9CdEm4xqu9V9nbw5cVp-461" value="" style="rounded=1;whiteSpace=wrap;html=1;rotation=90;fillColor=#000000;strokeWidth=4;strokeColor=#FF0000;" vertex="1" parent="1">
          <mxGeometry x="2759.5" y="1856.25" width="469" height="378.5" as="geometry" />
        </mxCell>
        <mxCell id="Y9CdEm4xqu9V9nbw5cVp-462" value="Destinação Final (Danos Irreparáveis)" style="rounded=0;whiteSpace=wrap;html=1;" vertex="1" parent="1">
          <mxGeometry x="2828.75" y="1821" width="322" height="20" as="geometry" />
        </mxCell>
        <mxCell id="Y9CdEm4xqu9V9nbw5cVp-463" value="" style="rounded=1;whiteSpace=wrap;html=1;" vertex="1" parent="1">
          <mxGeometry x="2814.75" y="1861" width="359" height="392" as="geometry" />
        </mxCell>
        <mxCell id="Y9CdEm4xqu9V9nbw5cVp-464" value="" style="rounded=1;whiteSpace=wrap;html=1;fillColor=#000000;" vertex="1" parent="1">
          <mxGeometry x="2844.75" y="1881" width="301" height="349" as="geometry" />
        </mxCell>
        <mxCell id="Y9CdEm4xqu9V9nbw5cVp-465" value="ID do Item" style="rounded=0;whiteSpace=wrap;html=1;" vertex="1" parent="1">
          <mxGeometry x="2861.5" y="1920" width="118.75" height="20" as="geometry" />
        </mxCell>
        <mxCell id="Y9CdEm4xqu9V9nbw5cVp-466" value="Descrição" style="rounded=0;whiteSpace=wrap;html=1;" vertex="1" parent="1">
          <mxGeometry x="2874" y="1967.5" width="93.75" height="20" as="geometry" />
        </mxCell>
        <mxCell id="Y9CdEm4xqu9V9nbw5cVp-467" value="Status do item" style="rounded=0;whiteSpace=wrap;html=1;" vertex="1" parent="1">
          <mxGeometry x="2857" y="2024" width="127.75" height="20" as="geometry" />
        </mxCell>
        <mxCell id="Y9CdEm4xqu9V9nbw5cVp-468" value="" style="rounded=0;whiteSpace=wrap;html=1;" vertex="1" parent="1">
          <mxGeometry x="2993.5" y="1920" width="127.75" height="20" as="geometry" />
        </mxCell>
        <mxCell id="Y9CdEm4xqu9V9nbw5cVp-469" value="" style="rounded=0;whiteSpace=wrap;html=1;" vertex="1" parent="1">
          <mxGeometry x="2983" y="1967.5" width="144.5" height="20" as="geometry" />
        </mxCell>
        <mxCell id="Y9CdEm4xqu9V9nbw5cVp-470" value="" style="rounded=0;whiteSpace=wrap;html=1;" vertex="1" parent="1">
          <mxGeometry x="2993.5" y="2024" width="142" height="20" as="geometry" />
        </mxCell>
        <mxCell id="Y9CdEm4xqu9V9nbw5cVp-471" value="Registrar Reparo" style="rounded=0;whiteSpace=wrap;html=1;" vertex="1" parent="1">
          <mxGeometry x="2907.25" y="2261.5" width="176" height="20" as="geometry" />
        </mxCell>
        <mxCell id="Y9CdEm4xqu9V9nbw5cVp-473" value="destino" style="rounded=0;whiteSpace=wrap;html=1;" vertex="1" parent="1">
          <mxGeometry x="2929.5" y="2090" width="120" height="17" as="geometry" />
        </mxCell>
        <mxCell id="Y9CdEm4xqu9V9nbw5cVp-474" value="Reciclagem" style="rounded=0;whiteSpace=wrap;html=1;" vertex="1" parent="1">
          <mxGeometry x="2847.75" y="2128" width="88.25" height="17" as="geometry" />
        </mxCell>
        <mxCell id="Y9CdEm4xqu9V9nbw5cVp-475" value="doação" style="rounded=0;whiteSpace=wrap;html=1;" vertex="1" parent="1">
          <mxGeometry x="2951.12" y="2128" width="88.25" height="17" as="geometry" />
        </mxCell>
        <mxCell id="Y9CdEm4xqu9V9nbw5cVp-476" value="Descarte" style="rounded=0;whiteSpace=wrap;html=1;" vertex="1" parent="1">
          <mxGeometry x="3047.25" y="2128" width="88.25" height="17" as="geometry" />
        </mxCell>
        <mxCell id="Y9CdEm4xqu9V9nbw5cVp-477" value="" style="rounded=1;whiteSpace=wrap;html=1;rotation=90;fillColor=#000000;strokeWidth=4;strokeColor=#FF0000;" vertex="1" parent="1">
          <mxGeometry x="3320" y="1864.75" width="469" height="378.5" as="geometry" />
        </mxCell>
        <mxCell id="Y9CdEm4xqu9V9nbw5cVp-478" value="&lt;strong&gt;Recebimento de Materiais&lt;/strong&gt;:" style="rounded=0;whiteSpace=wrap;html=1;" vertex="1" parent="1">
          <mxGeometry x="3389.25" y="1829.5" width="322" height="20" as="geometry" />
        </mxCell>
        <mxCell id="Y9CdEm4xqu9V9nbw5cVp-479" value="" style="rounded=1;whiteSpace=wrap;html=1;" vertex="1" parent="1">
          <mxGeometry x="3375.25" y="1869.5" width="359" height="392" as="geometry" />
        </mxCell>
        <mxCell id="Y9CdEm4xqu9V9nbw5cVp-480" value="" style="rounded=1;whiteSpace=wrap;html=1;fillColor=#000000;" vertex="1" parent="1">
          <mxGeometry x="3405.25" y="1889.5" width="301" height="349" as="geometry" />
        </mxCell>
        <mxCell id="Y9CdEm4xqu9V9nbw5cVp-481" value="ID do Item" style="rounded=0;whiteSpace=wrap;html=1;" vertex="1" parent="1">
          <mxGeometry x="3422" y="1928.5" width="118.75" height="20" as="geometry" />
        </mxCell>
        <mxCell id="Y9CdEm4xqu9V9nbw5cVp-482" value="Descrição" style="rounded=0;whiteSpace=wrap;html=1;" vertex="1" parent="1">
          <mxGeometry x="3434.5" y="1976" width="93.75" height="20" as="geometry" />
        </mxCell>
        <mxCell id="Y9CdEm4xqu9V9nbw5cVp-483" value="Data de Recebimento" style="rounded=0;whiteSpace=wrap;html=1;" vertex="1" parent="1">
          <mxGeometry x="3417.5" y="2025" width="127.75" height="20" as="geometry" />
        </mxCell>
        <mxCell id="Y9CdEm4xqu9V9nbw5cVp-484" value="" style="rounded=0;whiteSpace=wrap;html=1;" vertex="1" parent="1">
          <mxGeometry x="3554" y="1928.5" width="127.75" height="20" as="geometry" />
        </mxCell>
        <mxCell id="Y9CdEm4xqu9V9nbw5cVp-485" value="" style="rounded=0;whiteSpace=wrap;html=1;" vertex="1" parent="1">
          <mxGeometry x="3543.5" y="1976" width="144.5" height="20" as="geometry" />
        </mxCell>
        <mxCell id="Y9CdEm4xqu9V9nbw5cVp-486" value="" style="rounded=0;whiteSpace=wrap;html=1;" vertex="1" parent="1">
          <mxGeometry x="3555.75" y="2025" width="142" height="20" as="geometry" />
        </mxCell>
        <mxCell id="Y9CdEm4xqu9V9nbw5cVp-487" value="continuar" style="rounded=0;whiteSpace=wrap;html=1;" vertex="1" parent="1">
          <mxGeometry x="3467.75" y="2265" width="176" height="20" as="geometry" />
        </mxCell>
        <mxCell id="Y9CdEm4xqu9V9nbw5cVp-492" value="Quantidade" style="rounded=0;whiteSpace=wrap;html=1;" vertex="1" parent="1">
          <mxGeometry x="3425.25" y="2070" width="103" height="20" as="geometry" />
        </mxCell>
        <mxCell id="Y9CdEm4xqu9V9nbw5cVp-493" value="" style="rounded=0;whiteSpace=wrap;html=1;" vertex="1" parent="1">
          <mxGeometry x="3550.75" y="2070" width="142" height="20" as="geometry" />
        </mxCell>
        <mxCell id="Y9CdEm4xqu9V9nbw5cVp-494" value="Fornecedor" style="rounded=0;whiteSpace=wrap;html=1;" vertex="1" parent="1">
          <mxGeometry x="3416.25" y="2116" width="103" height="20" as="geometry" />
        </mxCell>
        <mxCell id="Y9CdEm4xqu9V9nbw5cVp-495" value="" style="rounded=0;whiteSpace=wrap;html=1;" vertex="1" parent="1">
          <mxGeometry x="3534.13" y="2116" width="162.12" height="20" as="geometry" />
        </mxCell>
        <mxCell id="Y9CdEm4xqu9V9nbw5cVp-496" value="Nota Fiscal" style="rounded=0;whiteSpace=wrap;html=1;" vertex="1" parent="1">
          <mxGeometry x="3416.25" y="2160" width="103" height="20" as="geometry" />
        </mxCell>
        <mxCell id="Y9CdEm4xqu9V9nbw5cVp-497" value="" style="rounded=0;whiteSpace=wrap;html=1;" vertex="1" parent="1">
          <mxGeometry x="3535.63" y="2160" width="162.12" height="20" as="geometry" />
        </mxCell>
        <mxCell id="Y9CdEm4xqu9V9nbw5cVp-499" value="" style="rounded=1;whiteSpace=wrap;html=1;rotation=90;fillColor=#000000;strokeWidth=4;strokeColor=#FF0000;" vertex="1" parent="1">
          <mxGeometry x="3818.25" y="1876.25" width="469" height="378.5" as="geometry" />
        </mxCell>
        <mxCell id="Y9CdEm4xqu9V9nbw5cVp-500" value="seleção do tipo de tecido" style="rounded=0;whiteSpace=wrap;html=1;" vertex="1" parent="1">
          <mxGeometry x="3887.5" y="1841" width="322" height="20" as="geometry" />
        </mxCell>
        <mxCell id="Y9CdEm4xqu9V9nbw5cVp-501" value="" style="rounded=1;whiteSpace=wrap;html=1;" vertex="1" parent="1">
          <mxGeometry x="3873.5" y="1881" width="359" height="392" as="geometry" />
        </mxCell>
        <mxCell id="Y9CdEm4xqu9V9nbw5cVp-502" value="" style="rounded=1;whiteSpace=wrap;html=1;fillColor=#000000;" vertex="1" parent="1">
          <mxGeometry x="3903.5" y="1901" width="301" height="349" as="geometry" />
        </mxCell>
        <mxCell id="Y9CdEm4xqu9V9nbw5cVp-503" value="algodão" style="rounded=0;whiteSpace=wrap;html=1;" vertex="1" parent="1">
          <mxGeometry x="3994.63" y="1908.5" width="118.75" height="20" as="geometry" />
        </mxCell>
        <mxCell id="Y9CdEm4xqu9V9nbw5cVp-504" value="linho" style="rounded=0;whiteSpace=wrap;html=1;" vertex="1" parent="1">
          <mxGeometry x="4001.63" y="1942" width="93.75" height="20" as="geometry" />
        </mxCell>
        <mxCell id="Y9CdEm4xqu9V9nbw5cVp-505" value="seda" style="rounded=0;whiteSpace=wrap;html=1;" vertex="1" parent="1">
          <mxGeometry x="3988.88" y="1979" width="127.75" height="20" as="geometry" />
        </mxCell>
        <mxCell id="Y9CdEm4xqu9V9nbw5cVp-509" value="confirmar seleção" style="rounded=0;whiteSpace=wrap;html=1;" vertex="1" parent="1">
          <mxGeometry x="3966" y="2275" width="176" height="20" as="geometry" />
        </mxCell>
        <mxCell id="Y9CdEm4xqu9V9nbw5cVp-510" value="lã" style="rounded=0;whiteSpace=wrap;html=1;" vertex="1" parent="1">
          <mxGeometry x="4001.26" y="2013" width="103" height="20" as="geometry" />
        </mxCell>
        <mxCell id="Y9CdEm4xqu9V9nbw5cVp-512" value="poliester" style="rounded=0;whiteSpace=wrap;html=1;" vertex="1" parent="1">
          <mxGeometry x="3998.63" y="2043" width="103" height="20" as="geometry" />
        </mxCell>
        <mxCell id="Y9CdEm4xqu9V9nbw5cVp-514" value="nylon" style="rounded=0;whiteSpace=wrap;html=1;" vertex="1" parent="1">
          <mxGeometry x="4001.26" y="2073" width="103" height="20" as="geometry" />
        </mxCell>
        <mxCell id="Y9CdEm4xqu9V9nbw5cVp-516" value="elastano" style="rounded=0;whiteSpace=wrap;html=1;" vertex="1" parent="1">
          <mxGeometry x="3999.44" y="2106" width="103" height="20" as="geometry" />
        </mxCell>
        <mxCell id="Y9CdEm4xqu9V9nbw5cVp-517" value="acrílico" style="rounded=0;whiteSpace=wrap;html=1;" vertex="1" parent="1">
          <mxGeometry x="4002.07" y="2136" width="103" height="20" as="geometry" />
        </mxCell>
        <mxCell id="Y9CdEm4xqu9V9nbw5cVp-518" value="renda" style="rounded=0;whiteSpace=wrap;html=1;" vertex="1" parent="1">
          <mxGeometry x="3999.44" y="2163" width="103" height="20" as="geometry" />
        </mxCell>
        <mxCell id="Y9CdEm4xqu9V9nbw5cVp-519" value="viscose" style="rounded=0;whiteSpace=wrap;html=1;" vertex="1" parent="1">
          <mxGeometry x="4002.07" y="2193" width="103" height="20" as="geometry" />
        </mxCell>
        <mxCell id="Y9CdEm4xqu9V9nbw5cVp-520" value="" style="rounded=1;whiteSpace=wrap;html=1;rotation=90;fillColor=#000000;strokeWidth=4;strokeColor=#FF0000;" vertex="1" parent="1">
          <mxGeometry x="2755.5" y="2478.25" width="469" height="378.5" as="geometry" />
        </mxCell>
        <mxCell id="Y9CdEm4xqu9V9nbw5cVp-521" value=" tabela de cortes" style="rounded=0;whiteSpace=wrap;html=1;" vertex="1" parent="1">
          <mxGeometry x="2824.75" y="2443" width="322" height="20" as="geometry" />
        </mxCell>
        <mxCell id="Y9CdEm4xqu9V9nbw5cVp-522" value="" style="rounded=1;whiteSpace=wrap;html=1;" vertex="1" parent="1">
          <mxGeometry x="2810.75" y="2483" width="359" height="392" as="geometry" />
        </mxCell>
        <mxCell id="Y9CdEm4xqu9V9nbw5cVp-523" value="" style="rounded=1;whiteSpace=wrap;html=1;fillColor=#000000;" vertex="1" parent="1">
          <mxGeometry x="2840.75" y="2503" width="301" height="349" as="geometry" />
        </mxCell>
        <mxCell id="Y9CdEm4xqu9V9nbw5cVp-524" value="&lt;p&gt;&lt;strong&gt;Corte em Viés&lt;/strong&gt;&lt;/p&gt;" style="rounded=0;whiteSpace=wrap;html=1;" vertex="1" parent="1">
          <mxGeometry x="2934.63" y="2520.5" width="118.75" height="20" as="geometry" />
        </mxCell>
        <mxCell id="Y9CdEm4xqu9V9nbw5cVp-525" value="&lt;p&gt;&lt;strong&gt;Corte a Fio&lt;/strong&gt;&lt;/p&gt;" style="rounded=0;whiteSpace=wrap;html=1;" vertex="1" parent="1">
          <mxGeometry x="2952.37" y="2553" width="93.75" height="20" as="geometry" />
        </mxCell>
        <mxCell id="Y9CdEm4xqu9V9nbw5cVp-526" value="Tesoura de Pinking" style="rounded=0;whiteSpace=wrap;html=1;" vertex="1" parent="1">
          <mxGeometry x="2935.37" y="2583" width="127.75" height="20" as="geometry" />
        </mxCell>
        <mxCell id="Y9CdEm4xqu9V9nbw5cVp-530" value="confirmar tipo de corte?" style="rounded=0;whiteSpace=wrap;html=1;" vertex="1" parent="1">
          <mxGeometry x="2856" y="2786" width="270" height="20" as="geometry" />
        </mxCell>
        <mxCell id="Y9CdEm4xqu9V9nbw5cVp-531" value="&lt;p&gt;&lt;strong&gt;Corte com Overlock&lt;/strong&gt;&lt;/p&gt;" style="rounded=0;whiteSpace=wrap;html=1;" vertex="1" parent="1">
          <mxGeometry x="2939.5" y="2614" width="120" height="17" as="geometry" />
        </mxCell>
        <mxCell id="Y9CdEm4xqu9V9nbw5cVp-532" value="&lt;p&gt;&lt;strong&gt;Corte com Pesponto&lt;/strong&gt;&lt;/p&gt;" style="rounded=0;whiteSpace=wrap;html=1;" vertex="1" parent="1">
          <mxGeometry x="2941.94" y="2698" width="125.62" height="17" as="geometry" />
        </mxCell>
        <mxCell id="Y9CdEm4xqu9V9nbw5cVp-533" value="&lt;p&gt;&lt;strong&gt;Corte com Interlock&lt;/strong&gt;&lt;/p&gt;" style="rounded=0;whiteSpace=wrap;html=1;" vertex="1" parent="1">
          <mxGeometry x="2943.2" y="2642" width="123.12" height="17" as="geometry" />
        </mxCell>
        <mxCell id="Y9CdEm4xqu9V9nbw5cVp-534" value="&lt;p&gt;&lt;strong&gt;Corte com Friso&lt;/strong&gt;&lt;/p&gt;" style="rounded=0;whiteSpace=wrap;html=1;" vertex="1" parent="1">
          <mxGeometry x="2953.82" y="2669" width="99.87" height="17" as="geometry" />
        </mxCell>
        <mxCell id="Y9CdEm4xqu9V9nbw5cVp-535" value="&lt;p&gt;Corte com Bainha Invisível&lt;br&gt;&lt;/p&gt;" style="rounded=0;whiteSpace=wrap;html=1;" vertex="1" parent="1">
          <mxGeometry x="2929.04" y="2724.5" width="152.18" height="17" as="geometry" />
        </mxCell>
        <mxCell id="Y9CdEm4xqu9V9nbw5cVp-549" value="" style="rounded=1;whiteSpace=wrap;html=1;rotation=90;fillColor=#000000;strokeWidth=4;strokeColor=#FF0000;" vertex="1" parent="1">
          <mxGeometry x="3323" y="2460.25" width="469" height="378.5" as="geometry" />
        </mxCell>
        <mxCell id="Y9CdEm4xqu9V9nbw5cVp-550" value="&lt;b&gt;pedido&lt;/b&gt;" style="rounded=0;whiteSpace=wrap;html=1;" vertex="1" parent="1">
          <mxGeometry x="3392.25" y="2425" width="322" height="20" as="geometry" />
        </mxCell>
        <mxCell id="Y9CdEm4xqu9V9nbw5cVp-551" value="" style="rounded=1;whiteSpace=wrap;html=1;" vertex="1" parent="1">
          <mxGeometry x="3378.25" y="2465" width="359" height="392" as="geometry" />
        </mxCell>
        <mxCell id="Y9CdEm4xqu9V9nbw5cVp-552" value="" style="rounded=1;whiteSpace=wrap;html=1;fillColor=#000000;" vertex="1" parent="1">
          <mxGeometry x="3408.25" y="2485" width="301" height="349" as="geometry" />
        </mxCell>
        <mxCell id="Y9CdEm4xqu9V9nbw5cVp-553" value="ID do Item" style="rounded=0;whiteSpace=wrap;html=1;" vertex="1" parent="1">
          <mxGeometry x="3425" y="2524" width="118.75" height="20" as="geometry" />
        </mxCell>
        <mxCell id="Y9CdEm4xqu9V9nbw5cVp-554" value="Descrição do Corte" style="rounded=0;whiteSpace=wrap;html=1;" vertex="1" parent="1">
          <mxGeometry x="3421" y="2571.5" width="110.25" height="20" as="geometry" />
        </mxCell>
        <mxCell id="Y9CdEm4xqu9V9nbw5cVp-555" value="Data do Corte" style="rounded=0;whiteSpace=wrap;html=1;" vertex="1" parent="1">
          <mxGeometry x="3420.5" y="2620.5" width="127.75" height="20" as="geometry" />
        </mxCell>
        <mxCell id="Y9CdEm4xqu9V9nbw5cVp-556" value="" style="rounded=0;whiteSpace=wrap;html=1;" vertex="1" parent="1">
          <mxGeometry x="3557" y="2524" width="127.75" height="20" as="geometry" />
        </mxCell>
        <mxCell id="Y9CdEm4xqu9V9nbw5cVp-557" value="" style="rounded=0;whiteSpace=wrap;html=1;" vertex="1" parent="1">
          <mxGeometry x="3546.5" y="2571.5" width="144.5" height="20" as="geometry" />
        </mxCell>
        <mxCell id="Y9CdEm4xqu9V9nbw5cVp-558" value="" style="rounded=0;whiteSpace=wrap;html=1;" vertex="1" parent="1">
          <mxGeometry x="3558.75" y="2620.5" width="142" height="20" as="geometry" />
        </mxCell>
        <mxCell id="Y9CdEm4xqu9V9nbw5cVp-559" value="continuar" style="rounded=0;whiteSpace=wrap;html=1;" vertex="1" parent="1">
          <mxGeometry x="3470.75" y="2860.5" width="176" height="20" as="geometry" />
        </mxCell>
        <mxCell id="Y9CdEm4xqu9V9nbw5cVp-560" value="Quantidade Cortada" style="rounded=0;whiteSpace=wrap;html=1;" vertex="1" parent="1">
          <mxGeometry x="3412" y="2665.5" width="119.25" height="20" as="geometry" />
        </mxCell>
        <mxCell id="Y9CdEm4xqu9V9nbw5cVp-561" value="" style="rounded=0;whiteSpace=wrap;html=1;" vertex="1" parent="1">
          <mxGeometry x="3553.75" y="2665.5" width="142" height="20" as="geometry" />
        </mxCell>
        <mxCell id="Y9CdEm4xqu9V9nbw5cVp-562" value="Tipo de Tecido" style="rounded=0;whiteSpace=wrap;html=1;" vertex="1" parent="1">
          <mxGeometry x="3419.25" y="2711.5" width="103" height="20" as="geometry" />
        </mxCell>
        <mxCell id="Y9CdEm4xqu9V9nbw5cVp-563" value="" style="rounded=0;whiteSpace=wrap;html=1;" vertex="1" parent="1">
          <mxGeometry x="3537.13" y="2711.5" width="162.12" height="20" as="geometry" />
        </mxCell>
        <mxCell id="Y9CdEm4xqu9V9nbw5cVp-564" value="peças desejadas" style="rounded=0;whiteSpace=wrap;html=1;" vertex="1" parent="1">
          <mxGeometry x="3419.25" y="2755.5" width="103" height="20" as="geometry" />
        </mxCell>
        <mxCell id="Y9CdEm4xqu9V9nbw5cVp-565" value="" style="rounded=0;whiteSpace=wrap;html=1;" vertex="1" parent="1">
          <mxGeometry x="3538.63" y="2755.5" width="162.12" height="20" as="geometry" />
        </mxCell>
        <mxCell id="Y9CdEm4xqu9V9nbw5cVp-566" value="quantidade de cada uma" style="rounded=0;whiteSpace=wrap;html=1;" vertex="1" parent="1">
          <mxGeometry x="3419.25" y="2798" width="148.75" height="20" as="geometry" />
        </mxCell>
        <mxCell id="Y9CdEm4xqu9V9nbw5cVp-567" value="" style="rounded=0;whiteSpace=wrap;html=1;" vertex="1" parent="1">
          <mxGeometry x="3589" y="2798" width="104.75" height="20" as="geometry" />
        </mxCell>
        <mxCell id="Y9CdEm4xqu9V9nbw5cVp-568" value="" style="rounded=1;whiteSpace=wrap;html=1;rotation=90;fillColor=#000000;strokeWidth=4;strokeColor=#FF0000;" vertex="1" parent="1">
          <mxGeometry x="3866" y="2467" width="469" height="378.5" as="geometry" />
        </mxCell>
        <mxCell id="Y9CdEm4xqu9V9nbw5cVp-569" value="&lt;b&gt;pedido&lt;/b&gt;" style="rounded=0;whiteSpace=wrap;html=1;" vertex="1" parent="1">
          <mxGeometry x="3935.25" y="2431.75" width="322" height="20" as="geometry" />
        </mxCell>
        <mxCell id="Y9CdEm4xqu9V9nbw5cVp-570" value="" style="rounded=1;whiteSpace=wrap;html=1;" vertex="1" parent="1">
          <mxGeometry x="3921.25" y="2471.75" width="359" height="392" as="geometry" />
        </mxCell>
        <mxCell id="Y9CdEm4xqu9V9nbw5cVp-571" value="" style="rounded=1;whiteSpace=wrap;html=1;fillColor=#000000;" vertex="1" parent="1">
          <mxGeometry x="3951.25" y="2491.75" width="301" height="349" as="geometry" />
        </mxCell>
        <mxCell id="Y9CdEm4xqu9V9nbw5cVp-572" value="ID da Finalização" style="rounded=0;whiteSpace=wrap;html=1;" vertex="1" parent="1">
          <mxGeometry x="3968" y="2530.75" width="118.75" height="20" as="geometry" />
        </mxCell>
        <mxCell id="Y9CdEm4xqu9V9nbw5cVp-573" value="Descrição da Finalização" style="rounded=0;whiteSpace=wrap;html=1;" vertex="1" parent="1">
          <mxGeometry x="3964" y="2578.25" width="150" height="20" as="geometry" />
        </mxCell>
        <mxCell id="Y9CdEm4xqu9V9nbw5cVp-574" value="Data da Finalização" style="rounded=0;whiteSpace=wrap;html=1;" vertex="1" parent="1">
          <mxGeometry x="3963.5" y="2627.25" width="127.75" height="20" as="geometry" />
        </mxCell>
        <mxCell id="Y9CdEm4xqu9V9nbw5cVp-575" value="" style="rounded=0;whiteSpace=wrap;html=1;" vertex="1" parent="1">
          <mxGeometry x="4100" y="2530.75" width="127.75" height="20" as="geometry" />
        </mxCell>
        <mxCell id="Y9CdEm4xqu9V9nbw5cVp-576" value="" style="rounded=0;whiteSpace=wrap;html=1;" vertex="1" parent="1">
          <mxGeometry x="4127" y="2578.25" width="107" height="20" as="geometry" />
        </mxCell>
        <mxCell id="Y9CdEm4xqu9V9nbw5cVp-577" value="" style="rounded=0;whiteSpace=wrap;html=1;" vertex="1" parent="1">
          <mxGeometry x="4101.75" y="2627.25" width="142" height="20" as="geometry" />
        </mxCell>
        <mxCell id="Y9CdEm4xqu9V9nbw5cVp-578" value="continuar" style="rounded=0;whiteSpace=wrap;html=1;" vertex="1" parent="1">
          <mxGeometry x="4013.75" y="2867.25" width="176" height="20" as="geometry" />
        </mxCell>
        <mxCell id="Y9CdEm4xqu9V9nbw5cVp-579" value="Quantidade Finalizada" style="rounded=0;whiteSpace=wrap;html=1;" vertex="1" parent="1">
          <mxGeometry x="3955" y="2672.25" width="131" height="20" as="geometry" />
        </mxCell>
        <mxCell id="Y9CdEm4xqu9V9nbw5cVp-580" value="" style="rounded=0;whiteSpace=wrap;html=1;" vertex="1" parent="1">
          <mxGeometry x="4096.75" y="2672.25" width="142" height="20" as="geometry" />
        </mxCell>
        <mxCell id="Y9CdEm4xqu9V9nbw5cVp-581" value="Notas Adicionais" style="rounded=0;whiteSpace=wrap;html=1;" vertex="1" parent="1">
          <mxGeometry x="3962.25" y="2718.25" width="103" height="20" as="geometry" />
        </mxCell>
        <mxCell id="Y9CdEm4xqu9V9nbw5cVp-582" value="" style="rounded=0;whiteSpace=wrap;html=1;" vertex="1" parent="1">
          <mxGeometry x="4080.13" y="2718.25" width="162.12" height="20" as="geometry" />
        </mxCell>
        <mxCell id="Y9CdEm4xqu9V9nbw5cVp-583" value="Status da finalização" style="rounded=0;whiteSpace=wrap;html=1;" vertex="1" parent="1">
          <mxGeometry x="3962.25" y="2762.25" width="114.75" height="20" as="geometry" />
        </mxCell>
        <mxCell id="Y9CdEm4xqu9V9nbw5cVp-584" value="" style="rounded=0;whiteSpace=wrap;html=1;" vertex="1" parent="1">
          <mxGeometry x="4098.75" y="2762.25" width="142.37" height="20" as="geometry" />
        </mxCell>
        <mxCell id="Y9CdEm4xqu9V9nbw5cVp-600" value="" style="rounded=1;whiteSpace=wrap;html=1;rotation=90;fillColor=#000000;strokeWidth=4;strokeColor=#FF0000;" vertex="1" parent="1">
          <mxGeometry x="2766" y="3091.25" width="469" height="378.5" as="geometry" />
        </mxCell>
        <mxCell id="Y9CdEm4xqu9V9nbw5cVp-601" value="entrega de produto" style="rounded=0;whiteSpace=wrap;html=1;" vertex="1" parent="1">
          <mxGeometry x="2835.25" y="3056" width="322" height="20" as="geometry" />
        </mxCell>
        <mxCell id="Y9CdEm4xqu9V9nbw5cVp-602" value="" style="rounded=1;whiteSpace=wrap;html=1;" vertex="1" parent="1">
          <mxGeometry x="2821.25" y="3096" width="359" height="392" as="geometry" />
        </mxCell>
        <mxCell id="Y9CdEm4xqu9V9nbw5cVp-603" value="" style="rounded=1;whiteSpace=wrap;html=1;fillColor=#000000;" vertex="1" parent="1">
          <mxGeometry x="2851.25" y="3116" width="301" height="349" as="geometry" />
        </mxCell>
        <mxCell id="Y9CdEm4xqu9V9nbw5cVp-604" value="&lt;p&gt;Endereço&lt;br&gt;&lt;/p&gt;" style="rounded=0;whiteSpace=wrap;html=1;" vertex="1" parent="1">
          <mxGeometry x="2925.19" y="3155" width="159.87" height="20" as="geometry" />
        </mxCell>
        <mxCell id="Y9CdEm4xqu9V9nbw5cVp-613" style="edgeStyle=none;curved=1;rounded=0;orthogonalLoop=1;jettySize=auto;html=1;exitX=0.75;exitY=0;exitDx=0;exitDy=0;fontSize=12;startSize=8;endSize=8;" edge="1" parent="1" source="Y9CdEm4xqu9V9nbw5cVp-605" target="Y9CdEm4xqu9V9nbw5cVp-604">
          <mxGeometry relative="1" as="geometry" />
        </mxCell>
        <mxCell id="Y9CdEm4xqu9V9nbw5cVp-605" value="&lt;p&gt;Método de Entrega&lt;br&gt;&lt;/p&gt;" style="rounded=0;whiteSpace=wrap;html=1;" vertex="1" parent="1">
          <mxGeometry x="2943.38" y="3199" width="116.75" height="20" as="geometry" />
        </mxCell>
        <mxCell id="Y9CdEm4xqu9V9nbw5cVp-606" value="Pagamento" style="rounded=0;whiteSpace=wrap;html=1;" vertex="1" parent="1">
          <mxGeometry x="2940.8699999999994" y="3243" width="127.75" height="20" as="geometry" />
        </mxCell>
        <mxCell id="Y9CdEm4xqu9V9nbw5cVp-608" value="&lt;p&gt;Revisar Pedido&lt;br&gt;&lt;/p&gt;" style="rounded=0;whiteSpace=wrap;html=1;" vertex="1" parent="1">
          <mxGeometry x="2944.76" y="3282" width="120" height="17" as="geometry" />
        </mxCell>
        <mxCell id="Y9CdEm4xqu9V9nbw5cVp-614" value="" style="rounded=1;whiteSpace=wrap;html=1;rotation=90;fillColor=#000000;strokeWidth=4;strokeColor=#FF0000;" vertex="1" parent="1">
          <mxGeometry x="3337.25" y="3091.25" width="469" height="378.5" as="geometry" />
        </mxCell>
        <mxCell id="Y9CdEm4xqu9V9nbw5cVp-615" value="Seção de Endereço" style="rounded=0;whiteSpace=wrap;html=1;" vertex="1" parent="1">
          <mxGeometry x="3406.5" y="3056" width="322" height="20" as="geometry" />
        </mxCell>
        <mxCell id="Y9CdEm4xqu9V9nbw5cVp-616" value="" style="rounded=1;whiteSpace=wrap;html=1;" vertex="1" parent="1">
          <mxGeometry x="3392.5" y="3096" width="359" height="392" as="geometry" />
        </mxCell>
        <mxCell id="Y9CdEm4xqu9V9nbw5cVp-617" value="" style="rounded=1;whiteSpace=wrap;html=1;fillColor=#000000;" vertex="1" parent="1">
          <mxGeometry x="3422.5" y="3116" width="301" height="349" as="geometry" />
        </mxCell>
        <mxCell id="Y9CdEm4xqu9V9nbw5cVp-618" value="&lt;p&gt;Endereço para entrega&lt;br&gt;&lt;/p&gt;" style="rounded=0;whiteSpace=wrap;html=1;" vertex="1" parent="1">
          <mxGeometry x="3422.5" y="3165" width="159.87" height="20" as="geometry" />
        </mxCell>
        <mxCell id="Y9CdEm4xqu9V9nbw5cVp-619" style="edgeStyle=none;curved=1;rounded=0;orthogonalLoop=1;jettySize=auto;html=1;exitX=0.75;exitY=0;exitDx=0;exitDy=0;fontSize=12;startSize=8;endSize=8;" edge="1" parent="1" source="Y9CdEm4xqu9V9nbw5cVp-620" target="Y9CdEm4xqu9V9nbw5cVp-618">
          <mxGeometry relative="1" as="geometry" />
        </mxCell>
        <mxCell id="Y9CdEm4xqu9V9nbw5cVp-620" value="&lt;p&gt;&lt;br&gt;&lt;/p&gt;" style="rounded=0;whiteSpace=wrap;html=1;" vertex="1" parent="1">
          <mxGeometry x="3593.25" y="3165" width="103.87" height="20" as="geometry" />
        </mxCell>
        <mxCell id="Y9CdEm4xqu9V9nbw5cVp-621" value="ponto de referencia" style="rounded=0;whiteSpace=wrap;html=1;" vertex="1" parent="1">
          <mxGeometry x="3422.2499999999995" y="3212" width="127.75" height="20" as="geometry" />
        </mxCell>
        <mxCell id="Y9CdEm4xqu9V9nbw5cVp-623" value="" style="rounded=0;whiteSpace=wrap;html=1;" vertex="1" parent="1">
          <mxGeometry x="3561.7499999999995" y="3212" width="127.75" height="20" as="geometry" />
        </mxCell>
        <mxCell id="Y9CdEm4xqu9V9nbw5cVp-624" value="outro local caso não esteja na residência" style="rounded=0;whiteSpace=wrap;html=1;" vertex="1" parent="1">
          <mxGeometry x="3422.5" y="3263" width="286.75" height="20" as="geometry" />
        </mxCell>
        <mxCell id="Y9CdEm4xqu9V9nbw5cVp-627" value="" style="rounded=0;whiteSpace=wrap;html=1;" vertex="1" parent="1">
          <mxGeometry x="3470.88" y="3305" width="190" height="20" as="geometry" />
        </mxCell>
        <mxCell id="Y9CdEm4xqu9V9nbw5cVp-628" value="salvar&amp;nbsp;" style="rounded=0;whiteSpace=wrap;html=1;" vertex="1" parent="1">
          <mxGeometry x="3441.2499999999995" y="3426" width="127.75" height="20" as="geometry" />
        </mxCell>
        <mxCell id="Y9CdEm4xqu9V9nbw5cVp-629" value="continuar" style="rounded=0;whiteSpace=wrap;html=1;" vertex="1" parent="1">
          <mxGeometry x="3580.7499999999995" y="3426" width="127.75" height="20" as="geometry" />
        </mxCell>
        <mxCell id="Y9CdEm4xqu9V9nbw5cVp-645" value="" style="rounded=1;whiteSpace=wrap;html=1;rotation=90;fillColor=#000000;strokeWidth=4;strokeColor=#FF0000;" vertex="1" parent="1">
          <mxGeometry x="3870" y="3085.25" width="469" height="378.5" as="geometry" />
        </mxCell>
        <mxCell id="Y9CdEm4xqu9V9nbw5cVp-646" value="Método de Entrega" style="rounded=0;whiteSpace=wrap;html=1;" vertex="1" parent="1">
          <mxGeometry x="3939.25" y="3050" width="322" height="20" as="geometry" />
        </mxCell>
        <mxCell id="Y9CdEm4xqu9V9nbw5cVp-647" value="" style="rounded=1;whiteSpace=wrap;html=1;" vertex="1" parent="1">
          <mxGeometry x="3925.25" y="3090" width="359" height="392" as="geometry" />
        </mxCell>
        <mxCell id="Y9CdEm4xqu9V9nbw5cVp-648" value="" style="rounded=1;whiteSpace=wrap;html=1;fillColor=#000000;" vertex="1" parent="1">
          <mxGeometry x="3955.25" y="3110" width="301" height="349" as="geometry" />
        </mxCell>
        <mxCell id="Y9CdEm4xqu9V9nbw5cVp-649" value="&lt;p&gt; entrega padrão&lt;br&gt;&lt;/p&gt;" style="rounded=0;whiteSpace=wrap;html=1;" vertex="1" parent="1">
          <mxGeometry x="4029.1900000000005" y="3149" width="159.87" height="20" as="geometry" />
        </mxCell>
        <mxCell id="Y9CdEm4xqu9V9nbw5cVp-650" style="edgeStyle=none;curved=1;rounded=0;orthogonalLoop=1;jettySize=auto;html=1;exitX=0.75;exitY=0;exitDx=0;exitDy=0;fontSize=12;startSize=8;endSize=8;" edge="1" parent="1" source="Y9CdEm4xqu9V9nbw5cVp-651" target="Y9CdEm4xqu9V9nbw5cVp-649">
          <mxGeometry relative="1" as="geometry" />
        </mxCell>
        <mxCell id="Y9CdEm4xqu9V9nbw5cVp-651" value="&lt;p&gt;expressa&lt;br&gt;&lt;/p&gt;" style="rounded=0;whiteSpace=wrap;html=1;" vertex="1" parent="1">
          <mxGeometry x="4047.38" y="3193" width="116.75" height="20" as="geometry" />
        </mxCell>
        <mxCell id="Y9CdEm4xqu9V9nbw5cVp-652" value=" retirada na loja" style="rounded=0;whiteSpace=wrap;html=1;" vertex="1" parent="1">
          <mxGeometry x="4044.869999999999" y="3237" width="127.75" height="20" as="geometry" />
        </mxCell>
        <mxCell id="Y9CdEm4xqu9V9nbw5cVp-653" value="&lt;p&gt;correios&lt;br&gt;&lt;/p&gt;" style="rounded=0;whiteSpace=wrap;html=1;" vertex="1" parent="1">
          <mxGeometry x="4048.76" y="3276" width="120" height="17" as="geometry" />
        </mxCell>
        <mxCell id="Y9CdEm4xqu9V9nbw5cVp-654" value="" style="rounded=1;whiteSpace=wrap;html=1;rotation=90;fillColor=#000000;strokeWidth=4;strokeColor=#FF0000;" vertex="1" parent="1">
          <mxGeometry x="2761.75" y="3700.25" width="469" height="378.5" as="geometry" />
        </mxCell>
        <mxCell id="Y9CdEm4xqu9V9nbw5cVp-655" value="Método de Entrega" style="rounded=0;whiteSpace=wrap;html=1;" vertex="1" parent="1">
          <mxGeometry x="2831" y="3665" width="322" height="20" as="geometry" />
        </mxCell>
        <mxCell id="Y9CdEm4xqu9V9nbw5cVp-656" value="" style="rounded=1;whiteSpace=wrap;html=1;" vertex="1" parent="1">
          <mxGeometry x="2817" y="3705" width="359" height="392" as="geometry" />
        </mxCell>
        <mxCell id="Y9CdEm4xqu9V9nbw5cVp-657" value="" style="rounded=1;whiteSpace=wrap;html=1;fillColor=#000000;" vertex="1" parent="1">
          <mxGeometry x="2847" y="3725" width="301" height="349" as="geometry" />
        </mxCell>
        <mxCell id="Y9CdEm4xqu9V9nbw5cVp-658" value="&lt;p&gt; entrega padrão&lt;br&gt;&lt;/p&gt;" style="rounded=0;whiteSpace=wrap;html=1;" vertex="1" parent="1">
          <mxGeometry x="2909.5600000000004" y="3753" width="159.87" height="20" as="geometry" />
        </mxCell>
        <mxCell id="Y9CdEm4xqu9V9nbw5cVp-659" style="edgeStyle=none;curved=1;rounded=0;orthogonalLoop=1;jettySize=auto;html=1;exitX=0.75;exitY=0;exitDx=0;exitDy=0;fontSize=12;startSize=8;endSize=8;" edge="1" parent="1" source="Y9CdEm4xqu9V9nbw5cVp-660" target="Y9CdEm4xqu9V9nbw5cVp-658">
          <mxGeometry relative="1" as="geometry" />
        </mxCell>
        <mxCell id="Y9CdEm4xqu9V9nbw5cVp-660" value="&lt;p&gt;expressa&lt;br&gt;&lt;/p&gt;" style="rounded=0;whiteSpace=wrap;html=1;" vertex="1" parent="1">
          <mxGeometry x="2936.87" y="3836" width="116.75" height="20" as="geometry" />
        </mxCell>
        <mxCell id="Y9CdEm4xqu9V9nbw5cVp-661" value=" retirada na loja" style="rounded=0;whiteSpace=wrap;html=1;" vertex="1" parent="1">
          <mxGeometry x="2931.7499999999986" y="3900" width="127.75" height="20" as="geometry" />
        </mxCell>
        <mxCell id="Y9CdEm4xqu9V9nbw5cVp-662" value="&lt;p&gt;correios&lt;br&gt;&lt;/p&gt;" style="rounded=0;whiteSpace=wrap;html=1;" vertex="1" parent="1">
          <mxGeometry x="2929.75" y="3970" width="120" height="17" as="geometry" />
        </mxCell>
        <mxCell id="Y9CdEm4xqu9V9nbw5cVp-663" value="&lt;p&gt;$12,99 + frete ( depende do local da entrega )&lt;/p&gt;" style="rounded=0;whiteSpace=wrap;html=1;" vertex="1" parent="1">
          <mxGeometry x="2853.75" y="3794" width="288.25" height="20" as="geometry" />
        </mxCell>
        <mxCell id="Y9CdEm4xqu9V9nbw5cVp-664" value="&lt;p&gt;$12,99 + frete ( depende do local da entrega )&lt;br&gt;&lt;/p&gt;" style="rounded=0;whiteSpace=wrap;html=1;" vertex="1" parent="1">
          <mxGeometry x="2851.37" y="3870" width="287.75" height="20" as="geometry" />
        </mxCell>
        <mxCell id="Y9CdEm4xqu9V9nbw5cVp-665" value="&lt;p&gt;$12,99 + frete ( depende do local da entrega )&lt;br&gt;&lt;/p&gt;" style="rounded=0;whiteSpace=wrap;html=1;" vertex="1" parent="1">
          <mxGeometry x="2846.38" y="3934" width="287.75" height="20" as="geometry" />
        </mxCell>
        <mxCell id="Y9CdEm4xqu9V9nbw5cVp-666" value="&lt;p&gt;$12,99 + frete ( depende do local da entrega )&lt;br&gt;&lt;/p&gt;" style="rounded=0;whiteSpace=wrap;html=1;" vertex="1" parent="1">
          <mxGeometry x="2848.12" y="4000" width="287.75" height="20" as="geometry" />
        </mxCell>
        <mxCell id="Y9CdEm4xqu9V9nbw5cVp-667" value="&lt;p&gt;selecionar&lt;br&gt;&lt;/p&gt;" style="rounded=0;whiteSpace=wrap;html=1;" vertex="1" parent="1">
          <mxGeometry x="2930.26" y="4101" width="120" height="17" as="geometry" />
        </mxCell>
        <mxCell id="Y9CdEm4xqu9V9nbw5cVp-668" value="" style="rounded=1;whiteSpace=wrap;html=1;rotation=90;fillColor=#000000;strokeWidth=4;strokeColor=#FF0000;" vertex="1" parent="1">
          <mxGeometry x="3324.25" y="3698.25" width="469" height="378.5" as="geometry" />
        </mxCell>
        <mxCell id="Y9CdEm4xqu9V9nbw5cVp-669" value="pagamento" style="rounded=0;whiteSpace=wrap;html=1;" vertex="1" parent="1">
          <mxGeometry x="3393.5" y="3663" width="322" height="20" as="geometry" />
        </mxCell>
        <mxCell id="Y9CdEm4xqu9V9nbw5cVp-670" value="" style="rounded=1;whiteSpace=wrap;html=1;" vertex="1" parent="1">
          <mxGeometry x="3379.5" y="3703" width="359" height="392" as="geometry" />
        </mxCell>
        <mxCell id="Y9CdEm4xqu9V9nbw5cVp-671" value="" style="rounded=1;whiteSpace=wrap;html=1;fillColor=#000000;" vertex="1" parent="1">
          <mxGeometry x="3409.5" y="3723" width="301" height="349" as="geometry" />
        </mxCell>
        <mxCell id="Y9CdEm4xqu9V9nbw5cVp-672" value="&lt;p&gt; número do cartão&lt;br&gt;&lt;/p&gt;" style="rounded=0;whiteSpace=wrap;html=1;" vertex="1" parent="1">
          <mxGeometry x="3417.5000000000005" y="3780" width="159.87" height="20" as="geometry" />
        </mxCell>
        <mxCell id="Y9CdEm4xqu9V9nbw5cVp-681" value="&lt;p&gt;prosseguir&lt;/p&gt;" style="rounded=0;whiteSpace=wrap;html=1;" vertex="1" parent="1">
          <mxGeometry x="3492.76" y="4099" width="120" height="17" as="geometry" />
        </mxCell>
        <mxCell id="Y9CdEm4xqu9V9nbw5cVp-682" value="&lt;p&gt;&lt;br&gt;&lt;/p&gt;" style="rounded=0;whiteSpace=wrap;html=1;" vertex="1" parent="1">
          <mxGeometry x="3584.13" y="3780" width="100.62" height="20" as="geometry" />
        </mxCell>
        <mxCell id="Y9CdEm4xqu9V9nbw5cVp-684" value="&lt;p&gt;/&amp;nbsp; &amp;nbsp; &amp;nbsp; &amp;nbsp; /&lt;/p&gt;" style="rounded=0;whiteSpace=wrap;html=1;" vertex="1" parent="1">
          <mxGeometry x="3549.5" y="3814" width="100.62" height="20" as="geometry" />
        </mxCell>
        <mxCell id="Y9CdEm4xqu9V9nbw5cVp-683" value="&lt;p&gt;&amp;nbsp;data de validade&lt;br&gt;&lt;/p&gt;" style="rounded=0;whiteSpace=wrap;html=1;" vertex="1" parent="1">
          <mxGeometry x="3419.25" y="3814" width="123.5" height="20" as="geometry" />
        </mxCell>
        <mxCell id="Y9CdEm4xqu9V9nbw5cVp-686" value="&lt;p&gt; código de segurança&lt;br&gt;&lt;/p&gt;" style="rounded=0;whiteSpace=wrap;html=1;" vertex="1" parent="1">
          <mxGeometry x="3418.0000000000005" y="3850" width="159.87" height="20" as="geometry" />
        </mxCell>
        <mxCell id="Y9CdEm4xqu9V9nbw5cVp-687" value="&lt;p&gt;&lt;br&gt;&lt;/p&gt;" style="rounded=0;whiteSpace=wrap;html=1;" vertex="1" parent="1">
          <mxGeometry x="3582.38" y="3850" width="100.62" height="20" as="geometry" />
        </mxCell>
        <mxCell id="Y9CdEm4xqu9V9nbw5cVp-688" value="&lt;p&gt;email&lt;/p&gt;" style="rounded=0;whiteSpace=wrap;html=1;" vertex="1" parent="1">
          <mxGeometry x="3418" y="3746" width="76" height="20" as="geometry" />
        </mxCell>
        <mxCell id="Y9CdEm4xqu9V9nbw5cVp-689" value="&lt;p&gt;&lt;br&gt;&lt;/p&gt;" style="rounded=0;whiteSpace=wrap;html=1;" vertex="1" parent="1">
          <mxGeometry x="3509.69" y="3746" width="157.31" height="20" as="geometry" />
        </mxCell>
        <mxCell id="Y9CdEm4xqu9V9nbw5cVp-690" value="&lt;p&gt;senha&lt;/p&gt;" style="rounded=0;whiteSpace=wrap;html=1;" vertex="1" parent="1">
          <mxGeometry x="3417.5" y="3880" width="71.5" height="20" as="geometry" />
        </mxCell>
        <mxCell id="Y9CdEm4xqu9V9nbw5cVp-691" value="&lt;p&gt;&lt;br&gt;&lt;/p&gt;" style="rounded=0;whiteSpace=wrap;html=1;" vertex="1" parent="1">
          <mxGeometry x="3502" y="3880" width="182.75" height="20" as="geometry" />
        </mxCell>
        <mxCell id="Y9CdEm4xqu9V9nbw5cVp-692" value="&lt;p&gt; valor total&lt;br&gt;&lt;/p&gt;" style="rounded=0;whiteSpace=wrap;html=1;" vertex="1" parent="1">
          <mxGeometry x="3417.5" y="3970" width="97.5" height="20" as="geometry" />
        </mxCell>
        <mxCell id="Y9CdEm4xqu9V9nbw5cVp-693" value="&lt;p&gt;&lt;br&gt;&lt;/p&gt;" style="rounded=0;whiteSpace=wrap;html=1;" vertex="1" parent="1">
          <mxGeometry x="3526" y="3968.5" width="141" height="20" as="geometry" />
        </mxCell>
        <mxCell id="Y9CdEm4xqu9V9nbw5cVp-694" value="&lt;font color=&quot;#ff3399&quot;&gt;PESSOA&lt;/font&gt;" style="swimlane;fontStyle=0;childLayout=stackLayout;horizontal=1;startSize=17;horizontalStack=0;resizeParent=1;resizeParentMax=0;resizeLast=0;collapsible=1;marginBottom=0;whiteSpace=wrap;html=1;" vertex="1" parent="1">
          <mxGeometry x="-145.003333333334" y="4744.995555555555" width="140" height="107" as="geometry" />
        </mxCell>
        <mxCell id="Y9CdEm4xqu9V9nbw5cVp-695" value="&lt;div&gt;&lt;font color=&quot;#ff3399&quot;&gt;-telefone&lt;/font&gt;&lt;/div&gt;&lt;div&gt;&lt;font color=&quot;#ff3399&quot;&gt;-pessoa&lt;/font&gt;&lt;/div&gt;" style="text;align=left;verticalAlign=middle;spacingLeft=4;spacingRight=4;overflow=hidden;points=[[0,0.5],[1,0.5]];portConstraint=eastwest;rotatable=0;whiteSpace=wrap;html=1;" vertex="1" parent="Y9CdEm4xqu9V9nbw5cVp-694">
          <mxGeometry y="17" width="140" height="30" as="geometry" />
        </mxCell>
        <mxCell id="Y9CdEm4xqu9V9nbw5cVp-696" value="+SetNome&lt;div&gt;+GetNome&lt;/div&gt;&lt;div&gt;+SetTelefone&lt;/div&gt;&lt;div&gt;+GetTelefone&lt;/div&gt;" style="text;align=left;verticalAlign=middle;spacingLeft=4;spacingRight=4;overflow=hidden;points=[[0,0.5],[1,0.5]];portConstraint=eastwest;rotatable=0;whiteSpace=wrap;html=1;" vertex="1" parent="Y9CdEm4xqu9V9nbw5cVp-694">
          <mxGeometry y="47" width="140" height="60" as="geometry" />
        </mxCell>
        <mxCell id="Y9CdEm4xqu9V9nbw5cVp-697" value="&lt;font color=&quot;#ff3399&quot;&gt;CLIENTE&lt;/font&gt;" style="swimlane;fontStyle=0;childLayout=stackLayout;horizontal=1;startSize=30;horizontalStack=0;resizeParent=1;resizeParentMax=0;resizeLast=0;collapsible=1;marginBottom=0;whiteSpace=wrap;html=1;" vertex="1" parent="1">
          <mxGeometry x="-263.003333333334" y="4914.995555555555" width="140" height="110" as="geometry" />
        </mxCell>
        <mxCell id="Y9CdEm4xqu9V9nbw5cVp-698" value="&lt;font color=&quot;#ff3399&quot;&gt;-CPF&lt;/font&gt;" style="text;align=left;verticalAlign=middle;spacingLeft=4;spacingRight=4;overflow=hidden;points=[[0,0.5],[1,0.5]];portConstraint=eastwest;rotatable=0;whiteSpace=wrap;html=1;" vertex="1" parent="Y9CdEm4xqu9V9nbw5cVp-697">
          <mxGeometry y="30" width="140" height="30" as="geometry" />
        </mxCell>
        <mxCell id="Y9CdEm4xqu9V9nbw5cVp-699" value="+GetCPF&lt;div&gt;+SetCPF&lt;/div&gt;" style="text;align=left;verticalAlign=middle;spacingLeft=4;spacingRight=4;overflow=hidden;points=[[0,0.5],[1,0.5]];portConstraint=eastwest;rotatable=0;whiteSpace=wrap;html=1;" vertex="1" parent="Y9CdEm4xqu9V9nbw5cVp-697">
          <mxGeometry y="60" width="140" height="50" as="geometry" />
        </mxCell>
        <mxCell id="Y9CdEm4xqu9V9nbw5cVp-700" value="&lt;font color=&quot;#ff3399&quot;&gt;FORNECEDOR&lt;/font&gt;" style="swimlane;fontStyle=0;childLayout=stackLayout;horizontal=1;startSize=30;horizontalStack=0;resizeParent=1;resizeParentMax=0;resizeLast=0;collapsible=1;marginBottom=0;whiteSpace=wrap;html=1;" vertex="1" parent="1">
          <mxGeometry x="4.996666666665988" y="4904.995555555555" width="140" height="130" as="geometry" />
        </mxCell>
        <mxCell id="Y9CdEm4xqu9V9nbw5cVp-701" value="&lt;font color=&quot;#ff3399&quot;&gt;-Nome&lt;br&gt;-Telefone&lt;/font&gt;" style="text;align=left;verticalAlign=middle;spacingLeft=4;spacingRight=4;overflow=hidden;points=[[0,0.5],[1,0.5]];portConstraint=eastwest;rotatable=0;whiteSpace=wrap;html=1;" vertex="1" parent="Y9CdEm4xqu9V9nbw5cVp-700">
          <mxGeometry y="30" width="140" height="30" as="geometry" />
        </mxCell>
        <mxCell id="Y9CdEm4xqu9V9nbw5cVp-702" value="+SetNome&lt;br&gt;+GetNome&lt;br&gt;+SetTelefone&lt;br&gt;+GetTelefone" style="text;align=left;verticalAlign=middle;spacingLeft=4;spacingRight=4;overflow=hidden;points=[[0,0.5],[1,0.5]];portConstraint=eastwest;rotatable=0;whiteSpace=wrap;html=1;" vertex="1" parent="Y9CdEm4xqu9V9nbw5cVp-700">
          <mxGeometry y="60" width="140" height="70" as="geometry" />
        </mxCell>
        <mxCell id="Y9CdEm4xqu9V9nbw5cVp-705" value="&lt;font color=&quot;#ff3399&quot;&gt;COSTURA&lt;/font&gt;" style="swimlane;fontStyle=0;childLayout=stackLayout;horizontal=1;startSize=30;horizontalStack=0;resizeParent=1;resizeParentMax=0;resizeLast=0;collapsible=1;marginBottom=0;whiteSpace=wrap;html=1;" vertex="1" parent="1">
          <mxGeometry x="619.996666666666" y="4683.995555555555" width="140" height="330" as="geometry" />
        </mxCell>
        <mxCell id="Y9CdEm4xqu9V9nbw5cVp-706" value="&lt;font color=&quot;#ff3399&quot;&gt;-Peças&lt;/font&gt;&lt;div&gt;&lt;font color=&quot;#ff3399&quot;&gt;-Bolso&lt;/font&gt;&lt;/div&gt;&lt;div&gt;&lt;font color=&quot;#ff3399&quot;&gt;-Passador&lt;/font&gt;&lt;/div&gt;&lt;div&gt;&lt;font color=&quot;#ff3399&quot;&gt;-Gancho Frontal&lt;br&gt;-Gancho Traseiro&lt;/font&gt;&lt;/div&gt;&lt;div&gt;&lt;font color=&quot;#ff3399&quot;&gt;-Bocas&lt;/font&gt;&lt;/div&gt;" style="text;align=left;verticalAlign=middle;spacingLeft=4;spacingRight=4;overflow=hidden;points=[[0,0.5],[1,0.5]];portConstraint=eastwest;rotatable=0;whiteSpace=wrap;html=1;" vertex="1" parent="Y9CdEm4xqu9V9nbw5cVp-705">
          <mxGeometry y="30" width="140" height="120" as="geometry" />
        </mxCell>
        <mxCell id="Y9CdEm4xqu9V9nbw5cVp-707" value="+SetBolso&lt;div&gt;+GetBolso&lt;br&gt;&lt;div&gt;+SetBocas&lt;br&gt;+GetBocas&lt;/div&gt;&lt;/div&gt;&lt;div&gt;+SetGanchoFrontal&lt;/div&gt;&lt;div&gt;+GetGanchoFrontal&lt;/div&gt;&lt;div&gt;+SetGanchoTraseiro&lt;/div&gt;&lt;div&gt;+GetGanchoTraseiro&lt;/div&gt;&lt;div&gt;+SetPassador&lt;/div&gt;&lt;div&gt;+GetPassador&lt;/div&gt;&lt;div&gt;+Juntar&lt;/div&gt;" style="text;align=left;verticalAlign=middle;spacingLeft=4;spacingRight=4;overflow=hidden;points=[[0,0.5],[1,0.5]];portConstraint=eastwest;rotatable=0;whiteSpace=wrap;html=1;" vertex="1" parent="Y9CdEm4xqu9V9nbw5cVp-705">
          <mxGeometry y="150" width="140" height="180" as="geometry" />
        </mxCell>
        <mxCell id="Y9CdEm4xqu9V9nbw5cVp-708" value="&lt;font color=&quot;#ff3399&quot;&gt;CORTE&lt;/font&gt;" style="swimlane;fontStyle=0;childLayout=stackLayout;horizontal=1;startSize=30;horizontalStack=0;resizeParent=1;resizeParentMax=0;resizeLast=0;collapsible=1;marginBottom=0;whiteSpace=wrap;html=1;" vertex="1" parent="1">
          <mxGeometry x="460.996666666666" y="4683.995555555555" width="140" height="190" as="geometry" />
        </mxCell>
        <mxCell id="Y9CdEm4xqu9V9nbw5cVp-709" value="&lt;font color=&quot;#ff3399&quot;&gt;-Corte&lt;/font&gt;&lt;div&gt;&lt;font color=&quot;#ff3399&quot;&gt;-Estilo&lt;/font&gt;&lt;/div&gt;&lt;div&gt;&lt;font color=&quot;#ff3399&quot;&gt;-Tecido&lt;/font&gt;&lt;/div&gt;&lt;div&gt;&lt;font color=&quot;#ff3399&quot;&gt;-Peças&lt;/font&gt;&lt;/div&gt;" style="text;align=left;verticalAlign=middle;spacingLeft=4;spacingRight=4;overflow=hidden;points=[[0,0.5],[1,0.5]];portConstraint=eastwest;rotatable=0;whiteSpace=wrap;html=1;" vertex="1" parent="Y9CdEm4xqu9V9nbw5cVp-708">
          <mxGeometry y="30" width="140" height="60" as="geometry" />
        </mxCell>
        <mxCell id="Y9CdEm4xqu9V9nbw5cVp-710" value="+SetTecido&lt;div&gt;+GetCorte&lt;/div&gt;&lt;div&gt;+SetTelefone&lt;/div&gt;&lt;div&gt;+SalvarCorte&lt;/div&gt;&lt;div&gt;GetPeças&lt;br&gt;SetPeças&lt;/div&gt;" style="text;align=left;verticalAlign=middle;spacingLeft=4;spacingRight=4;overflow=hidden;points=[[0,0.5],[1,0.5]];portConstraint=eastwest;rotatable=0;whiteSpace=wrap;html=1;" vertex="1" parent="Y9CdEm4xqu9V9nbw5cVp-708">
          <mxGeometry y="90" width="140" height="100" as="geometry" />
        </mxCell>
        <mxCell id="Y9CdEm4xqu9V9nbw5cVp-711" value="&lt;font color=&quot;#ff3399&quot;&gt;DESPACHE&lt;/font&gt;" style="swimlane;fontStyle=0;childLayout=stackLayout;horizontal=1;startSize=30;horizontalStack=0;resizeParent=1;resizeParentMax=0;resizeLast=0;collapsible=1;marginBottom=0;whiteSpace=wrap;html=1;" vertex="1" parent="1">
          <mxGeometry x="285.996666666666" y="4873.995555555555" width="160" height="370" as="geometry" />
        </mxCell>
        <mxCell id="Y9CdEm4xqu9V9nbw5cVp-712" value="&lt;font color=&quot;#ff3399&quot;&gt;-PedidoID&lt;/font&gt;&lt;div&gt;&lt;font color=&quot;#ff3399&quot;&gt;-Cliente&lt;/font&gt;&lt;/div&gt;&lt;div&gt;&lt;font color=&quot;#ff3399&quot;&gt;-EnderecoEntrega&lt;/font&gt;&lt;/div&gt;&lt;div&gt;&lt;font color=&quot;#ff3399&quot;&gt;-Status&lt;/font&gt;&lt;/div&gt;&lt;div&gt;&lt;font color=&quot;#ff3399&quot;&gt;-idItem&lt;/font&gt;&lt;/div&gt;&lt;div&gt;&lt;font color=&quot;#ff3399&quot;&gt;-produto&lt;br&gt;-Qt&lt;/font&gt;&lt;/div&gt;&lt;div&gt;&lt;font color=&quot;#ff3399&quot;&gt;-peso&lt;br&gt;&lt;/font&gt;&lt;/div&gt;&lt;div&gt;&lt;font color=&quot;#ff3399&quot;&gt;-idDespacho&lt;br&gt;-pedido&lt;br&gt;&lt;/font&gt;&lt;/div&gt;&lt;div&gt;&lt;font color=&quot;#ff3399&quot;&gt;-transportadora&lt;br&gt;&lt;/font&gt;&lt;/div&gt;&lt;div&gt;&lt;font color=&quot;#ff3399&quot;&gt;-dataDespacho&lt;/font&gt;&lt;br&gt;&lt;/div&gt;" style="text;align=left;verticalAlign=middle;spacingLeft=4;spacingRight=4;overflow=hidden;points=[[0,0.5],[1,0.5]];portConstraint=eastwest;rotatable=0;whiteSpace=wrap;html=1;" vertex="1" parent="Y9CdEm4xqu9V9nbw5cVp-711">
          <mxGeometry y="30" width="160" height="240" as="geometry" />
        </mxCell>
        <mxCell id="Y9CdEm4xqu9V9nbw5cVp-713" value="+ConfimarPedido&lt;div&gt;+GetStatus&lt;/div&gt;&lt;div&gt;+despacharPedido&lt;/div&gt;&lt;div&gt;+atualizarStatusDespacho&lt;/div&gt;" style="text;align=left;verticalAlign=middle;spacingLeft=4;spacingRight=4;overflow=hidden;points=[[0,0.5],[1,0.5]];portConstraint=eastwest;rotatable=0;whiteSpace=wrap;html=1;" vertex="1" parent="Y9CdEm4xqu9V9nbw5cVp-711">
          <mxGeometry y="270" width="160" height="100" as="geometry" />
        </mxCell>
        <mxCell id="Y9CdEm4xqu9V9nbw5cVp-714" value="&lt;font color=&quot;#ff3399&quot;&gt;PROJETOLAVAGEM&lt;/font&gt;" style="swimlane;fontStyle=0;childLayout=stackLayout;horizontal=1;startSize=30;horizontalStack=0;resizeParent=1;resizeParentMax=0;resizeLast=0;collapsible=1;marginBottom=0;whiteSpace=wrap;html=1;" vertex="1" parent="1">
          <mxGeometry x="458.496666666666" y="5059.995555555555" width="160" height="264" as="geometry" />
        </mxCell>
        <mxCell id="Y9CdEm4xqu9V9nbw5cVp-715" value="&lt;font color=&quot;#ff3399&quot;&gt;&lt;span style=&quot;background-color: initial;&quot;&gt;-Id&lt;/span&gt;&lt;br&gt;&lt;span style=&quot;background-color: initial;&quot;&gt;-nome&lt;/span&gt;&lt;/font&gt;&lt;div&gt;&lt;span style=&quot;background-color: initial;&quot;&gt;&lt;font color=&quot;#ff3399&quot;&gt;-tipoTecido&lt;/font&gt;&lt;/span&gt;&lt;/div&gt;&lt;div&gt;&lt;span style=&quot;background-color: initial;&quot;&gt;&lt;font color=&quot;#ff3399&quot;&gt;-quantidade&lt;/font&gt;&lt;/span&gt;&lt;/div&gt;&lt;div&gt;&lt;font color=&quot;#ff3399&quot;&gt;&lt;span style=&quot;background-color: initial;&quot;&gt;-modelo&lt;/span&gt;&lt;br&gt;&lt;span style=&quot;background-color: initial;&quot;&gt;-capacidade&lt;/span&gt;&lt;/font&gt;&lt;br&gt;&lt;/div&gt;" style="text;align=left;verticalAlign=middle;spacingLeft=4;spacingRight=4;overflow=hidden;points=[[0,0.5],[1,0.5]];portConstraint=eastwest;rotatable=0;whiteSpace=wrap;html=1;" vertex="1" parent="Y9CdEm4xqu9V9nbw5cVp-714">
          <mxGeometry y="30" width="160" height="114" as="geometry" />
        </mxCell>
        <mxCell id="Y9CdEm4xqu9V9nbw5cVp-716" value="&lt;span style=&quot;background-color: initial;&quot;&gt;+iniciarLavagem&lt;/span&gt;&lt;br&gt;&lt;span style=&quot;background-color: initial;&quot;&gt;-pausarLavagem&lt;/span&gt;&lt;br&gt;&lt;span style=&quot;background-color: initial;&quot;&gt;-cancelarLavagem&lt;/span&gt;&lt;br&gt;&lt;span style=&quot;background-color: initial;&quot;&gt;+salvarConfiguracoes&lt;/span&gt;&lt;div&gt;&lt;span style=&quot;background-color: initial;&quot;&gt;-selecionarPrograma&lt;/span&gt;&lt;br&gt;&lt;span style=&quot;background-color: initial;&quot;&gt;-ajustarTempo&lt;/span&gt;&lt;br&gt;&lt;span style=&quot;background-color: initial;&quot;&gt;-ajustarTemperatura&lt;/span&gt;&lt;br&gt;&lt;/div&gt;" style="text;align=left;verticalAlign=middle;spacingLeft=4;spacingRight=4;overflow=hidden;points=[[0,0.5],[1,0.5]];portConstraint=eastwest;rotatable=0;whiteSpace=wrap;html=1;" vertex="1" parent="Y9CdEm4xqu9V9nbw5cVp-714">
          <mxGeometry y="144" width="160" height="120" as="geometry" />
        </mxCell>
        <mxCell id="Y9CdEm4xqu9V9nbw5cVp-717" value="&lt;font color=&quot;#ff3399&quot;&gt;ACABAMENTO&lt;/font&gt;" style="swimlane;fontStyle=0;childLayout=stackLayout;horizontal=1;startSize=30;horizontalStack=0;resizeParent=1;resizeParentMax=0;resizeLast=0;collapsible=1;marginBottom=0;whiteSpace=wrap;html=1;" vertex="1" parent="1">
          <mxGeometry x="282.996666666666" y="4683.995555555555" width="160" height="150" as="geometry" />
        </mxCell>
        <mxCell id="Y9CdEm4xqu9V9nbw5cVp-719" value="&lt;span style=&quot;background-color: initial;&quot;&gt;-iniciarAcabamento()&lt;/span&gt;&lt;br&gt;&lt;span style=&quot;background-color: initial;&quot;&gt;-pausarAcabamento()&lt;/span&gt;&lt;br&gt;&lt;span style=&quot;background-color: initial;&quot;&gt;-cancelarAcabamento()&lt;/span&gt;&lt;br&gt;&lt;span style=&quot;background-color: initial;&quot;&gt;-salvarConfiguracoes()&lt;/span&gt;" style="text;align=left;verticalAlign=middle;spacingLeft=4;spacingRight=4;overflow=hidden;points=[[0,0.5],[1,0.5]];portConstraint=eastwest;rotatable=0;whiteSpace=wrap;html=1;" vertex="1" parent="Y9CdEm4xqu9V9nbw5cVp-717">
          <mxGeometry y="30" width="160" height="120" as="geometry" />
        </mxCell>
        <mxCell id="Y9CdEm4xqu9V9nbw5cVp-765" value="" style="edgeStyle=none;curved=1;rounded=0;orthogonalLoop=1;jettySize=auto;html=1;fontSize=12;startSize=8;endSize=8;" edge="1" parent="1" source="Y9CdEm4xqu9V9nbw5cVp-762" target="Y9CdEm4xqu9V9nbw5cVp-764">
          <mxGeometry relative="1" as="geometry" />
        </mxCell>
        <mxCell id="Y9CdEm4xqu9V9nbw5cVp-762" value="inicio" style="ellipse;whiteSpace=wrap;html=1;" vertex="1" parent="1">
          <mxGeometry x="-1939" y="2076" width="120" height="80" as="geometry" />
        </mxCell>
        <mxCell id="Y9CdEm4xqu9V9nbw5cVp-793" value="" style="edgeStyle=none;curved=1;rounded=0;orthogonalLoop=1;jettySize=auto;html=1;fontSize=12;startSize=8;endSize=8;" edge="1" parent="1" source="Y9CdEm4xqu9V9nbw5cVp-764" target="Y9CdEm4xqu9V9nbw5cVp-792">
          <mxGeometry relative="1" as="geometry" />
        </mxCell>
        <mxCell id="Y9CdEm4xqu9V9nbw5cVp-764" value="receber os tecidos sujos" style="whiteSpace=wrap;html=1;" vertex="1" parent="1">
          <mxGeometry x="-1939" y="2286" width="120" height="60" as="geometry" />
        </mxCell>
        <mxCell id="Y9CdEm4xqu9V9nbw5cVp-771" value="" style="edgeStyle=none;curved=1;rounded=0;orthogonalLoop=1;jettySize=auto;html=1;fontSize=12;startSize=8;endSize=8;" edge="1" parent="1" source="Y9CdEm4xqu9V9nbw5cVp-768" target="Y9CdEm4xqu9V9nbw5cVp-770">
          <mxGeometry relative="1" as="geometry" />
        </mxCell>
        <mxCell id="Y9CdEm4xqu9V9nbw5cVp-768" value="separar por peças leves e pesadas" style="rhombus;whiteSpace=wrap;html=1;" vertex="1" parent="1">
          <mxGeometry x="-1990.5" y="2544" width="223" height="99" as="geometry" />
        </mxCell>
        <mxCell id="Y9CdEm4xqu9V9nbw5cVp-775" style="edgeStyle=none;curved=1;rounded=0;orthogonalLoop=1;jettySize=auto;html=1;exitX=0;exitY=1;exitDx=0;exitDy=0;entryX=1;entryY=0;entryDx=0;entryDy=0;fontSize=12;startSize=8;endSize=8;" edge="1" parent="1" source="Y9CdEm4xqu9V9nbw5cVp-770" target="Y9CdEm4xqu9V9nbw5cVp-774">
          <mxGeometry relative="1" as="geometry" />
        </mxCell>
        <mxCell id="Y9CdEm4xqu9V9nbw5cVp-777" style="edgeStyle=none;curved=1;rounded=0;orthogonalLoop=1;jettySize=auto;html=1;exitX=1;exitY=1;exitDx=0;exitDy=0;entryX=0;entryY=0;entryDx=0;entryDy=0;fontSize=12;startSize=8;endSize=8;" edge="1" parent="1" source="Y9CdEm4xqu9V9nbw5cVp-770" target="Y9CdEm4xqu9V9nbw5cVp-776">
          <mxGeometry relative="1" as="geometry" />
        </mxCell>
        <mxCell id="Y9CdEm4xqu9V9nbw5cVp-799" value="" style="edgeStyle=none;curved=1;rounded=0;orthogonalLoop=1;jettySize=auto;html=1;fontSize=12;startSize=8;endSize=8;" edge="1" parent="1" source="Y9CdEm4xqu9V9nbw5cVp-770" target="Y9CdEm4xqu9V9nbw5cVp-798">
          <mxGeometry relative="1" as="geometry" />
        </mxCell>
        <mxCell id="Y9CdEm4xqu9V9nbw5cVp-770" value="separar por nivel de sujeira da peça" style="rhombus;whiteSpace=wrap;html=1;" vertex="1" parent="1">
          <mxGeometry x="-1979" y="2698" width="200" height="124.5" as="geometry" />
        </mxCell>
        <mxCell id="Y9CdEm4xqu9V9nbw5cVp-791" value="" style="edgeStyle=none;curved=1;rounded=0;orthogonalLoop=1;jettySize=auto;html=1;fontSize=12;startSize=8;endSize=8;" edge="1" parent="1" source="Y9CdEm4xqu9V9nbw5cVp-774" target="Y9CdEm4xqu9V9nbw5cVp-790">
          <mxGeometry relative="1" as="geometry" />
        </mxCell>
        <mxCell id="Y9CdEm4xqu9V9nbw5cVp-774" value="tecidos pesados" style="rounded=1;whiteSpace=wrap;html=1;" vertex="1" parent="1">
          <mxGeometry x="-2106" y="2845.5" width="120" height="60" as="geometry" />
        </mxCell>
        <mxCell id="Y9CdEm4xqu9V9nbw5cVp-801" value="" style="edgeStyle=none;curved=1;rounded=0;orthogonalLoop=1;jettySize=auto;html=1;fontSize=12;startSize=8;endSize=8;" edge="1" parent="1" source="Y9CdEm4xqu9V9nbw5cVp-776" target="Y9CdEm4xqu9V9nbw5cVp-800">
          <mxGeometry relative="1" as="geometry" />
        </mxCell>
        <mxCell id="Y9CdEm4xqu9V9nbw5cVp-776" value="tecidos leves" style="rounded=1;whiteSpace=wrap;html=1;" vertex="1" parent="1">
          <mxGeometry x="-1785" y="2847.25" width="120" height="60" as="geometry" />
        </mxCell>
        <mxCell id="Y9CdEm4xqu9V9nbw5cVp-778" value="lavagem de tecidos leves" style="text;html=1;align=center;verticalAlign=middle;whiteSpace=wrap;rounded=0;fontSize=16;" vertex="1" parent="1">
          <mxGeometry x="-1773" y="2796" width="208" height="30" as="geometry" />
        </mxCell>
        <mxCell id="Y9CdEm4xqu9V9nbw5cVp-787" value="lavagem de tecidos pesados" style="text;html=1;align=center;verticalAlign=middle;whiteSpace=wrap;rounded=0;fontSize=16;" vertex="1" parent="1">
          <mxGeometry x="-2211" y="2800" width="208" height="30" as="geometry" />
        </mxCell>
        <mxCell id="Y9CdEm4xqu9V9nbw5cVp-788" value="&amp;nbsp;tecidos leves" style="text;html=1;align=center;verticalAlign=middle;whiteSpace=wrap;rounded=0;fontSize=16;" vertex="1" parent="1">
          <mxGeometry x="-1748" y="2578" width="208" height="30" as="geometry" />
        </mxCell>
        <mxCell id="Y9CdEm4xqu9V9nbw5cVp-789" value="&amp;nbsp;tecidos pesados" style="text;html=1;align=center;verticalAlign=middle;whiteSpace=wrap;rounded=0;fontSize=16;" vertex="1" parent="1">
          <mxGeometry x="-2215" y="2578" width="208" height="30" as="geometry" />
        </mxCell>
        <mxCell id="Y9CdEm4xqu9V9nbw5cVp-808" style="edgeStyle=none;curved=1;rounded=0;orthogonalLoop=1;jettySize=auto;html=1;exitX=0.5;exitY=1;exitDx=0;exitDy=0;entryX=0;entryY=0;entryDx=0;entryDy=0;fontSize=12;startSize=8;endSize=8;" edge="1" parent="1" source="Y9CdEm4xqu9V9nbw5cVp-790" target="Y9CdEm4xqu9V9nbw5cVp-804">
          <mxGeometry relative="1" as="geometry" />
        </mxCell>
        <mxCell id="Y9CdEm4xqu9V9nbw5cVp-790" value="lavagem pesada" style="whiteSpace=wrap;html=1;rounded=1;" vertex="1" parent="1">
          <mxGeometry x="-2106" y="3025.5" width="120" height="60" as="geometry" />
        </mxCell>
        <mxCell id="Y9CdEm4xqu9V9nbw5cVp-794" style="edgeStyle=none;curved=1;rounded=0;orthogonalLoop=1;jettySize=auto;html=1;entryX=0.5;entryY=0;entryDx=0;entryDy=0;fontSize=12;startSize=8;endSize=8;" edge="1" parent="1" source="Y9CdEm4xqu9V9nbw5cVp-792" target="Y9CdEm4xqu9V9nbw5cVp-768">
          <mxGeometry relative="1" as="geometry" />
        </mxCell>
        <mxCell id="Y9CdEm4xqu9V9nbw5cVp-797" style="edgeStyle=none;curved=1;rounded=0;orthogonalLoop=1;jettySize=auto;html=1;exitX=1;exitY=0.5;exitDx=0;exitDy=0;fontSize=12;startSize=8;endSize=8;" edge="1" parent="1" source="Y9CdEm4xqu9V9nbw5cVp-792" target="Y9CdEm4xqu9V9nbw5cVp-795">
          <mxGeometry relative="1" as="geometry" />
        </mxCell>
        <mxCell id="Y9CdEm4xqu9V9nbw5cVp-792" value="separar por cores" style="rhombus;whiteSpace=wrap;html=1;" vertex="1" parent="1">
          <mxGeometry x="-1979" y="2405" width="201" height="80" as="geometry" />
        </mxCell>
        <mxCell id="Y9CdEm4xqu9V9nbw5cVp-795" value="&lt;h1 style=&quot;margin-top: 0px;&quot;&gt;separação por cores&lt;/h1&gt;&lt;p&gt;ela acaba sendo importe para não acabar tingindo peças brancas de cores indesejadas&lt;/p&gt;" style="text;html=1;whiteSpace=wrap;overflow=hidden;rounded=0;" vertex="1" parent="1">
          <mxGeometry x="-1699" y="2385" width="180" height="120" as="geometry" />
        </mxCell>
        <mxCell id="Y9CdEm4xqu9V9nbw5cVp-803" value="" style="edgeStyle=none;curved=1;rounded=0;orthogonalLoop=1;jettySize=auto;html=1;fontSize=12;startSize=8;endSize=8;" edge="1" parent="1" source="Y9CdEm4xqu9V9nbw5cVp-798" target="Y9CdEm4xqu9V9nbw5cVp-802">
          <mxGeometry relative="1" as="geometry" />
        </mxCell>
        <mxCell id="Y9CdEm4xqu9V9nbw5cVp-798" value="tecidos brancos" style="whiteSpace=wrap;html=1;" vertex="1" parent="1">
          <mxGeometry x="-1938.5" y="2863" width="120" height="60" as="geometry" />
        </mxCell>
        <mxCell id="Y9CdEm4xqu9V9nbw5cVp-809" style="edgeStyle=none;curved=1;rounded=0;orthogonalLoop=1;jettySize=auto;html=1;exitX=0.5;exitY=1;exitDx=0;exitDy=0;entryX=1;entryY=0;entryDx=0;entryDy=0;fontSize=12;startSize=8;endSize=8;" edge="1" parent="1" source="Y9CdEm4xqu9V9nbw5cVp-800" target="Y9CdEm4xqu9V9nbw5cVp-804">
          <mxGeometry relative="1" as="geometry" />
        </mxCell>
        <mxCell id="Y9CdEm4xqu9V9nbw5cVp-800" value="lavagem leve" style="whiteSpace=wrap;html=1;rounded=1;" vertex="1" parent="1">
          <mxGeometry x="-1785" y="3027.25" width="120" height="60" as="geometry" />
        </mxCell>
        <mxCell id="Y9CdEm4xqu9V9nbw5cVp-805" value="" style="edgeStyle=none;curved=1;rounded=0;orthogonalLoop=1;jettySize=auto;html=1;fontSize=12;startSize=8;endSize=8;" edge="1" parent="1" source="Y9CdEm4xqu9V9nbw5cVp-802" target="Y9CdEm4xqu9V9nbw5cVp-804">
          <mxGeometry relative="1" as="geometry" />
        </mxCell>
        <mxCell id="Y9CdEm4xqu9V9nbw5cVp-802" value="lavagem cuidadosa" style="whiteSpace=wrap;html=1;" vertex="1" parent="1">
          <mxGeometry x="-1938.5" y="3043" width="120" height="60" as="geometry" />
        </mxCell>
        <mxCell id="Y9CdEm4xqu9V9nbw5cVp-807" value="" style="edgeStyle=none;curved=1;rounded=0;orthogonalLoop=1;jettySize=auto;html=1;fontSize=12;startSize=8;endSize=8;" edge="1" parent="1" source="Y9CdEm4xqu9V9nbw5cVp-804" target="Y9CdEm4xqu9V9nbw5cVp-806">
          <mxGeometry relative="1" as="geometry" />
        </mxCell>
        <mxCell id="Y9CdEm4xqu9V9nbw5cVp-804" value="secagem" style="whiteSpace=wrap;html=1;" vertex="1" parent="1">
          <mxGeometry x="-1938.5" y="3223" width="120" height="60" as="geometry" />
        </mxCell>
        <mxCell id="Y9CdEm4xqu9V9nbw5cVp-811" value="" style="edgeStyle=none;curved=1;rounded=0;orthogonalLoop=1;jettySize=auto;html=1;fontSize=12;startSize=8;endSize=8;" edge="1" parent="1" source="Y9CdEm4xqu9V9nbw5cVp-806" target="Y9CdEm4xqu9V9nbw5cVp-810">
          <mxGeometry relative="1" as="geometry" />
        </mxCell>
        <mxCell id="Y9CdEm4xqu9V9nbw5cVp-806" value="centrifugação" style="whiteSpace=wrap;html=1;" vertex="1" parent="1">
          <mxGeometry x="-1938.5" y="3403" width="120" height="60" as="geometry" />
        </mxCell>
        <mxCell id="Y9CdEm4xqu9V9nbw5cVp-810" value="finalização e a guarda das roupas&amp;nbsp;" style="whiteSpace=wrap;html=1;" vertex="1" parent="1">
          <mxGeometry x="-1938.5" y="3583" width="120" height="60" as="geometry" />
        </mxCell>
        <mxCell id="Y9CdEm4xqu9V9nbw5cVp-812" value="lavagem das roupas" style="text;html=1;align=center;verticalAlign=middle;whiteSpace=wrap;rounded=0;fontSize=16;" vertex="1" parent="1">
          <mxGeometry x="-1961.25" y="1994" width="165.5" height="30" as="geometry" />
        </mxCell>
        <mxCell id="Y9CdEm4xqu9V9nbw5cVp-813" style="edgeStyle=none;curved=1;rounded=0;orthogonalLoop=1;jettySize=auto;html=1;exitX=0;exitY=0.5;exitDx=0;exitDy=0;entryX=0.5;entryY=0;entryDx=0;entryDy=0;fontSize=12;startSize=8;endSize=8;" edge="1" parent="1" source="Y9CdEm4xqu9V9nbw5cVp-696" target="Y9CdEm4xqu9V9nbw5cVp-697">
          <mxGeometry relative="1" as="geometry" />
        </mxCell>
        <mxCell id="Y9CdEm4xqu9V9nbw5cVp-814" style="edgeStyle=none;curved=1;rounded=0;orthogonalLoop=1;jettySize=auto;html=1;exitX=1;exitY=0.5;exitDx=0;exitDy=0;entryX=0.5;entryY=0;entryDx=0;entryDy=0;fontSize=12;startSize=8;endSize=8;" edge="1" parent="1" source="Y9CdEm4xqu9V9nbw5cVp-696" target="Y9CdEm4xqu9V9nbw5cVp-700">
          <mxGeometry relative="1" as="geometry" />
        </mxCell>
        <mxCell id="Y9CdEm4xqu9V9nbw5cVp-815" value="" style="rounded=1;whiteSpace=wrap;html=1;rotation=90;fillColor=#000000;strokeWidth=4;strokeColor=#FF0000;" vertex="1" parent="1">
          <mxGeometry x="3861.75" y="3707.75" width="469" height="378.5" as="geometry" />
        </mxCell>
        <mxCell id="Y9CdEm4xqu9V9nbw5cVp-816" value="lavagem de tecido (peças brancas)" style="rounded=0;whiteSpace=wrap;html=1;" vertex="1" parent="1">
          <mxGeometry x="3931" y="3672.5" width="322" height="20" as="geometry" />
        </mxCell>
        <mxCell id="Y9CdEm4xqu9V9nbw5cVp-817" value="" style="rounded=1;whiteSpace=wrap;html=1;" vertex="1" parent="1">
          <mxGeometry x="3917" y="3712.5" width="359" height="392" as="geometry" />
        </mxCell>
        <mxCell id="Y9CdEm4xqu9V9nbw5cVp-818" value="" style="rounded=1;whiteSpace=wrap;html=1;fillColor=#000000;" vertex="1" parent="1">
          <mxGeometry x="3947" y="3732.5" width="301" height="349" as="geometry" />
        </mxCell>
        <mxCell id="Y9CdEm4xqu9V9nbw5cVp-819" value="&lt;p&gt;quantidade de maquínas&lt;/p&gt;" style="rounded=0;whiteSpace=wrap;html=1;" vertex="1" parent="1">
          <mxGeometry x="3952.7500000000005" y="3820" width="159.87" height="20" as="geometry" />
        </mxCell>
        <mxCell id="Y9CdEm4xqu9V9nbw5cVp-820" value="&lt;p&gt;prosseguir&lt;/p&gt;" style="rounded=0;whiteSpace=wrap;html=1;" vertex="1" parent="1">
          <mxGeometry x="4030.26" y="4108.5" width="120" height="17" as="geometry" />
        </mxCell>
        <mxCell id="Y9CdEm4xqu9V9nbw5cVp-821" value="&lt;p&gt;&lt;br&gt;&lt;/p&gt;" style="rounded=0;whiteSpace=wrap;html=1;" vertex="1" parent="1">
          <mxGeometry x="4119.38" y="3820" width="100.62" height="20" as="geometry" />
        </mxCell>
        <mxCell id="Y9CdEm4xqu9V9nbw5cVp-822" value="&lt;p&gt;&lt;br&gt;&lt;/p&gt;" style="rounded=0;whiteSpace=wrap;html=1;" vertex="1" parent="1">
          <mxGeometry x="4107.13" y="3863" width="100.62" height="20" as="geometry" />
        </mxCell>
        <mxCell id="Y9CdEm4xqu9V9nbw5cVp-823" value="&lt;p&gt;temp. de cada lavagem&lt;/p&gt;" style="rounded=0;whiteSpace=wrap;html=1;" vertex="1" parent="1">
          <mxGeometry x="3955" y="3863" width="141.25" height="20" as="geometry" />
        </mxCell>
        <mxCell id="Y9CdEm4xqu9V9nbw5cVp-826" value="&lt;p&gt;numero de peças&lt;/p&gt;" style="rounded=0;whiteSpace=wrap;html=1;" vertex="1" parent="1">
          <mxGeometry x="3952.75" y="3774" width="96.5" height="20" as="geometry" />
        </mxCell>
        <mxCell id="Y9CdEm4xqu9V9nbw5cVp-827" value="&lt;p&gt;&lt;br&gt;&lt;/p&gt;" style="rounded=0;whiteSpace=wrap;html=1;" vertex="1" parent="1">
          <mxGeometry x="4060.75" y="3774" width="153.66" height="20" as="geometry" />
        </mxCell>
        <mxCell id="Y9CdEm4xqu9V9nbw5cVp-830" value="&lt;p&gt; valor total&lt;br&gt;&lt;/p&gt;" style="rounded=0;whiteSpace=wrap;html=1;" vertex="1" parent="1">
          <mxGeometry x="3955" y="3979.5" width="97.5" height="20" as="geometry" />
        </mxCell>
        <mxCell id="Y9CdEm4xqu9V9nbw5cVp-831" value="&lt;p&gt;&lt;br&gt;&lt;/p&gt;" style="rounded=0;whiteSpace=wrap;html=1;" vertex="1" parent="1">
          <mxGeometry x="4063.5" y="3978" width="141" height="20" as="geometry" />
        </mxCell>
        <mxCell id="Y9CdEm4xqu9V9nbw5cVp-832" value="" style="rounded=1;whiteSpace=wrap;html=1;rotation=90;fillColor=#000000;strokeWidth=4;strokeColor=#FF0000;" vertex="1" parent="1">
          <mxGeometry x="2756.75" y="4281.25" width="469" height="378.5" as="geometry" />
        </mxCell>
        <mxCell id="Y9CdEm4xqu9V9nbw5cVp-833" value="lavagem de tecido (peças pretas e outras cores)" style="rounded=0;whiteSpace=wrap;html=1;" vertex="1" parent="1">
          <mxGeometry x="2826" y="4246" width="322" height="20" as="geometry" />
        </mxCell>
        <mxCell id="Y9CdEm4xqu9V9nbw5cVp-834" value="" style="rounded=1;whiteSpace=wrap;html=1;" vertex="1" parent="1">
          <mxGeometry x="2812" y="4286" width="359" height="392" as="geometry" />
        </mxCell>
        <mxCell id="Y9CdEm4xqu9V9nbw5cVp-835" value="" style="rounded=1;whiteSpace=wrap;html=1;fillColor=#000000;" vertex="1" parent="1">
          <mxGeometry x="2842" y="4306" width="301" height="349" as="geometry" />
        </mxCell>
        <mxCell id="Y9CdEm4xqu9V9nbw5cVp-836" value="&lt;p&gt;quantidade de maquínas&lt;/p&gt;" style="rounded=0;whiteSpace=wrap;html=1;" vertex="1" parent="1">
          <mxGeometry x="2847.7500000000005" y="4393.5" width="159.87" height="20" as="geometry" />
        </mxCell>
        <mxCell id="Y9CdEm4xqu9V9nbw5cVp-837" value="&lt;p&gt;prosseguir&lt;/p&gt;" style="rounded=0;whiteSpace=wrap;html=1;" vertex="1" parent="1">
          <mxGeometry x="2925.26" y="4682" width="120" height="17" as="geometry" />
        </mxCell>
        <mxCell id="Y9CdEm4xqu9V9nbw5cVp-838" value="&lt;p&gt;&lt;br&gt;&lt;/p&gt;" style="rounded=0;whiteSpace=wrap;html=1;" vertex="1" parent="1">
          <mxGeometry x="3014.38" y="4393.5" width="100.62" height="20" as="geometry" />
        </mxCell>
        <mxCell id="Y9CdEm4xqu9V9nbw5cVp-839" value="&lt;p&gt;&lt;br&gt;&lt;/p&gt;" style="rounded=0;whiteSpace=wrap;html=1;" vertex="1" parent="1">
          <mxGeometry x="3002.13" y="4436.5" width="100.62" height="20" as="geometry" />
        </mxCell>
        <mxCell id="Y9CdEm4xqu9V9nbw5cVp-840" value="&lt;p&gt;temp. de cada lavagem&lt;/p&gt;" style="rounded=0;whiteSpace=wrap;html=1;" vertex="1" parent="1">
          <mxGeometry x="2850" y="4436.5" width="141.25" height="20" as="geometry" />
        </mxCell>
        <mxCell id="Y9CdEm4xqu9V9nbw5cVp-841" value="&lt;p&gt;numero de peças&lt;/p&gt;" style="rounded=0;whiteSpace=wrap;html=1;" vertex="1" parent="1">
          <mxGeometry x="2847.75" y="4347.5" width="96.5" height="20" as="geometry" />
        </mxCell>
        <mxCell id="Y9CdEm4xqu9V9nbw5cVp-842" value="&lt;p&gt;&lt;br&gt;&lt;/p&gt;" style="rounded=0;whiteSpace=wrap;html=1;" vertex="1" parent="1">
          <mxGeometry x="2955.75" y="4347.5" width="153.66" height="20" as="geometry" />
        </mxCell>
        <mxCell id="Y9CdEm4xqu9V9nbw5cVp-843" value="&lt;p&gt; valor total&lt;br&gt;&lt;/p&gt;" style="rounded=0;whiteSpace=wrap;html=1;" vertex="1" parent="1">
          <mxGeometry x="2850" y="4553" width="97.5" height="20" as="geometry" />
        </mxCell>
        <mxCell id="Y9CdEm4xqu9V9nbw5cVp-844" value="&lt;p&gt;&lt;br&gt;&lt;/p&gt;" style="rounded=0;whiteSpace=wrap;html=1;" vertex="1" parent="1">
          <mxGeometry x="2958.5" y="4551.5" width="141" height="20" as="geometry" />
        </mxCell>
      </root>
    </mxGraphModel>
  </diagram>
</mxfile>
